<svg width="28" height="28" viewBox="0 0 28 28" fill="none" xmlns="http://www.w3.org/2000/svg">
    <rect width="50" height="50" fill="none" />
    <path fill-rule="evenodd" clip-rule="evenodd"
        d="M14.0009 2.3335C12.6444 2.3335 11.5448 3.43315 11.5448 4.78964V12.158H4.79061C3.43412 12.158 2.33447 13.2577 2.33447 14.6142C2.33447 15.9706 3.43413 17.0703 4.79061 17.0703H11.5448V23.2107C11.5448 24.5672 12.6444 25.6668 14.0009 25.6668C15.3574 25.6668 16.457 24.5672 16.457 23.2107V17.0703H23.2117C24.5682 17.0703 25.6678 15.9706 25.6678 14.6142C25.6678 13.2577 24.5682 12.158 23.2117 12.158H16.457V4.78964C16.457 3.43315 15.3574 2.3335 14.0009 2.3335Z"
        fill="white" />
</svg>
