<svg width="205" height="204" viewBox="0 0 205 204" fill="none" xmlns="http://www.w3.org/2000/svg">
<path d="M198.1 99.4061C201.4 116.238 208.086 150.342 192.086 173.16C163.499 213.935 65.5366 212.187 22.6076 159.447C19.6077 155.761 -5.53157 123.846 2.12558 83.2596C11.9925 30.9672 70.8862 -6.87105 117.619 3.38045C147.192 9.86281 166.115 34.3307 173.8 44.2676C177.065 48.4982 192.03 68.4348 198.1 99.4061Z" fill="#F4F7FA"/>
<path d="M42.2224 97.8183C42.2784 97.8603 42.3343 97.9022 42.3903 97.9442C45.7328 100.476 49.8306 102.65 54.8935 104.105C55.9004 104.319 56.9074 104.534 57.9144 104.748C59.3339 102.587 60.3059 100.273 57.4948 98.6015C53.1313 96.0002 55.1102 87.6647 57.1451 85.0564C59.6626 81.8257 65.3687 74.1825 58.6906 70.0497C53.1243 66.6163 48.8307 65.5324 50.3691 57.6445C51.9075 49.7495 48.8866 43.8196 41.712 42.505C34.1597 41.1204 30.5584 29.6871 23.6355 31.4633C11.5798 34.5541 16.8594 54.1341 28.5025 62.3576C40.1526 70.5742 31.5793 73.3574 29.6283 79.6439C26.9571 88.2171 39.1806 89.329 41.4253 93.5247C42.1875 94.9512 42.3623 96.4267 42.2224 97.8183Z" fill="url(#paint0_linear_1128_1178)"/>
<mask id="mask0_1128_1178" style="mask-type:luminance" maskUnits="userSpaceOnUse" x="16" y="31" width="46" height="76">
<path d="M40.6681 102.523L56.8894 106.479C58.3935 104.413 60.6333 100.471 57.4942 98.5991C53.13 95.997 55.1097 87.6665 57.1439 85.0561C59.6627 81.8247 65.3717 74.1808 58.6879 70.0515C53.1244 66.6138 48.8315 65.5327 50.3713 57.6413C51.9112 49.7499 48.8867 43.8214 41.71 42.5039C34.157 41.1173 30.5592 29.691 23.6377 31.4637C11.5786 34.5531 16.8603 54.1316 28.5054 62.3552C40.1506 70.5781 31.5795 73.3598 29.625 79.6429C26.9565 88.2203 39.1835 89.328 41.4275 93.5279C43.1869 96.8208 41.803 100.403 40.6681 102.523Z" fill="white"/>
</mask>
<g mask="url(#mask0_1128_1178)">
<g style="mix-blend-mode:soft-light" opacity="0.5">
<path d="M48.9288 101.833L49.2924 101.854C50.4742 75.4277 38.8312 48.5543 18.9016 31.7295L18.6638 32.0022C38.5095 48.764 50.1106 75.5186 48.9288 101.833Z" fill="#FCFDFE"/>
<path d="M48.3413 87.3713L48.691 87.4622C51.2014 77.3715 61.7885 71.6514 61.8934 71.5954L61.7256 71.2808C61.6207 71.3367 50.8867 77.1268 48.3413 87.3713Z" fill="#FCFDFE"/>
<path d="M49.0127 96.9655L49.3623 96.8746C46.747 86.6721 28.4747 80.7771 28.2929 80.7212L28.188 81.0638C28.3698 81.1198 46.4463 86.9518 49.0127 96.9655Z" fill="#FCFDFE"/>
<path d="M41.2996 62.421L41.6562 62.3581C40.2786 54.1135 47.9847 43.869 48.0617 43.7641L47.775 43.5474C47.698 43.6523 39.894 54.0226 41.2996 62.421Z" fill="#FCFDFE"/>
<path d="M33.048 47.7918L33.3067 47.5401C26.6286 40.736 13.7688 40.3794 13.6359 40.3794L13.6289 40.743C13.7548 40.743 26.4747 41.0997 33.048 47.7918Z" fill="#FCFDFE"/>
</g>
</g>
<mask id="mask1_1128_1178" style="mask-type:luminance" maskUnits="userSpaceOnUse" x="19" y="7" width="55" height="109">
<path d="M63.8968 115.054L45.9567 114.993C45.9567 114.993 42.6106 105.778 47.0294 99.2981C56.0446 86.0767 43.8358 79.1042 39.159 75.4183C32.1067 69.8603 28.3159 61.8864 38.7247 58.4557C49.1343 55.025 38.7401 38.8758 26.0565 31.541C13.6449 24.3635 19.242 -1.84212 47.5322 11.2268C64.4269 19.0315 61.7158 36.9625 62.4997 46.3434C63.2829 55.7243 77.228 56.5481 72.4155 67.9877C68.3051 77.7602 60.534 84.8691 66.4234 91.6172C72.3127 98.3645 72.8987 105.91 63.8968 115.054Z" fill="white"/>
</mask>
<g mask="url(#mask1_1128_1178)">
<path d="M63.9002 115.055L45.9566 114.993C45.9566 114.993 42.607 105.776 47.0265 99.3006C56.0473 86.0772 43.8378 79.1053 39.1596 75.4201C32.1038 69.8608 29.0129 62.7001 37.5372 58.0918C47.1733 52.8752 38.74 38.8755 26.055 31.54C13.6427 24.3654 19.244 -1.84378 47.53 11.2258C64.4247 19.0298 61.7184 36.9595 62.5016 46.3439C63.2848 55.7213 77.2286 56.5464 72.4175 67.9867C68.3057 77.7627 60.5367 84.8674 66.4246 91.6155C72.3126 98.3636 72.9 105.909 63.9002 115.055Z" fill="url(#paint1_linear_1128_1178)"/>
<g style="mix-blend-mode:soft-light" opacity="0.5">
<path d="M56.1242 116.691L55.7536 116.621C55.7955 116.391 60.0262 93.2864 57.313 69.1191C54.8165 46.8609 45.7398 19.1063 16.7056 13.3443L16.7755 12.9736C29.7052 15.54 39.8169 22.6028 46.8377 33.9591C52.439 43.0288 56.0962 54.8467 57.6906 69.0911C60.4108 93.3073 56.1731 116.461 56.1242 116.691Z" fill="#BEB8F2"/>
<path d="M49.565 38.8334L49.1873 38.7844C50.7887 26.2812 46.0825 8.49147 46.0336 8.31665L46.3972 8.21875C46.4461 8.39357 51.1733 26.2533 49.565 38.8334Z" fill="#BEB8F2"/>
<path d="M44.6769 31.393C31.9569 23.4072 20.0341 27.1763 19.9153 27.2113L19.7964 26.8546C19.9153 26.8127 31.9989 22.9876 44.8797 31.0713L44.6769 31.393Z" fill="#BEB8F2"/>
<path d="M58.2291 85.021C54.0543 67.1473 29.7822 62.6859 29.5444 62.6649L29.5514 62.2803C29.7892 62.2873 54.383 66.9025 58.5927 84.9301L58.2291 85.021Z" fill="#BEB8F2"/>
<path d="M58.3688 77.4547L57.9982 77.3708C60.4247 65.9165 72.8859 58.0706 73.0118 57.9937L73.2146 58.3153C73.0887 58.3922 60.7603 66.1543 58.3688 77.4547Z" fill="#BEB8F2"/>
<path d="M56.3409 112.971C55.8164 106.021 45.9146 100.482 45.8097 100.426L45.9985 100.098C46.4111 100.328 56.1801 105.79 56.7185 112.943L56.3409 112.971Z" fill="#BEB8F2"/>
<path d="M57.418 107.517L57.0404 107.447C57.9914 102.021 66.222 95.9928 68.9282 94.0138C69.3128 93.7341 69.6415 93.4964 69.6904 93.4404L69.9702 93.6922C69.9002 93.7691 69.6835 93.9299 69.152 94.3215C66.4737 96.2795 58.3341 102.237 57.418 107.517Z" fill="#BEB8F2"/>
</g>
</g>
<path d="M145.388 104.84C147.367 109.105 145.486 113.371 143.674 116.245C143.248 116.245 142.996 116.364 142.563 116.469C138.633 117.427 136.794 116.937 132.801 117.231C131.941 117.294 129.381 116.651 128.36 116.315L126.458 115.658C126.458 115.658 123.081 105.287 128.388 102.42C133.689 99.5602 131.661 89.2318 131.213 83.6026C130.01 68.3302 146.514 69.7148 146.535 49.96C146.542 44.7084 144.793 34.6877 149.22 30.5059C154.269 25.7368 157.954 30.415 161.199 26.4291C166.268 20.1915 174.499 17.9608 179.401 24.3732C184.247 30.7017 178.359 43.3028 163.737 53.4285C154.066 61.8758 153.919 64.4072 154.681 70.5749C155.213 74.8895 159.331 86.134 153.471 90.6234C147.611 95.1128 143.129 99.9658 145.388 104.84Z" fill="url(#paint2_linear_1128_1178)"/>
<mask id="mask2_1128_1178" style="mask-type:luminance" maskUnits="userSpaceOnUse" x="125" y="20" width="57" height="100">
<path d="M141.127 119.734L126.777 116.037C126.777 116.037 123.081 105.287 128.385 102.422C133.69 99.5572 131.659 89.2344 131.214 83.6037C130.008 68.3279 146.515 69.7167 146.534 49.9626C146.539 44.7089 144.791 34.6874 149.221 30.5029C154.267 25.7352 157.952 30.412 161.197 26.4254C166.268 20.1941 174.498 17.9592 179.404 24.3716C184.246 30.7008 178.363 43.2998 163.737 53.4262C154.068 61.8791 153.917 64.4098 154.678 70.5719C155.211 74.8886 159.329 86.1338 153.469 90.6238C147.61 95.114 143.132 99.9663 145.39 104.841C148.824 112.259 141.127 119.734 141.127 119.734Z" fill="white"/>
</mask>
<g mask="url(#mask2_1128_1178)">
<g style="mix-blend-mode:soft-light" opacity="0.5">
<path d="M134.877 117.392L134.584 117.35C134.8 115.615 135.038 113.867 135.297 112.154C137.199 99.476 140.213 87.4273 144.255 76.3577C147.688 66.9733 151.898 58.1553 156.786 50.1485C160.716 43.7081 165.093 37.7502 169.807 32.4427C173.114 28.7155 176.555 25.3449 180.03 22.4289C180.631 21.9184 181.282 21.4289 181.911 20.9604C182.743 20.3311 183.603 19.6877 184.373 18.9814L184.575 19.1982C183.792 19.9115 182.925 20.5618 182.086 21.1982C181.464 21.6597 180.82 22.1492 180.219 22.6527C176.757 25.5617 173.324 28.9253 170.023 32.6385C165.324 37.932 160.954 43.8759 157.038 50.3024C152.164 58.2952 147.954 67.0922 144.534 76.4556C140.493 87.5113 137.486 99.5389 135.591 112.196C135.332 113.909 135.094 115.657 134.877 117.392Z" fill="#FCFDFE"/>
<path d="M151.499 60.2882L151.234 60.1623C156.59 48.75 151.884 27.6596 151.835 27.4498L152.122 27.3799C152.171 27.5967 156.898 48.785 151.499 60.2882Z" fill="#FCFDFE"/>
<path d="M139.311 93.532L139.038 93.4411C141.765 85.2595 157.086 78.9379 157.24 78.875L157.352 79.1477C157.198 79.2107 142.003 85.4762 139.311 93.532Z" fill="#FCFDFE"/>
<path d="M138.164 98.3152L137.877 98.2732C138.681 92.7 136.814 84.6652 132.605 75.6514C132.388 75.1969 132.388 75.1969 132.395 75.1409L132.689 75.1829L132.542 75.1619L132.682 75.127C132.696 75.1549 132.773 75.3297 132.87 75.5255C137.101 84.5883 138.982 92.686 138.164 98.3152Z" fill="#FCFDFE"/>
<path d="M135.318 114.224L135.052 114.098C137.661 108.476 146.59 106.252 146.681 106.231L146.751 106.518C146.66 106.539 137.87 108.728 135.318 114.224Z" fill="#FCFDFE"/>
<path d="M134.43 117.413C133.325 112.532 130.779 107.811 126.654 102.986L126.877 102.791C131.038 107.658 133.598 112.42 134.716 117.35L134.43 117.413Z" fill="#FCFDFE"/>
<path d="M167.303 35.8065L167.044 35.6737C170.373 29.492 172.443 22.2265 173.121 19.8349C173.282 19.2615 173.345 19.0587 173.38 18.9888L173.639 19.1146C173.618 19.1706 173.52 19.4992 173.401 19.9188C172.723 22.3104 170.646 29.6039 167.303 35.8065Z" fill="#FCFDFE"/>
<path d="M160.401 45.0578L160.191 44.8481C164.884 40.2328 178.051 40.3796 178.611 40.3866L178.604 40.6803C178.471 40.6803 165.002 40.5265 160.401 45.0578Z" fill="#FCFDFE"/>
</g>
</g>
<mask id="mask3_1128_1178" style="mask-type:luminance" maskUnits="userSpaceOnUse" x="118" y="47" width="76" height="101">
<path d="M122.089 141.785L139.209 147.151C139.209 147.151 145.184 139.379 142.931 131.866C138.335 116.538 152.081 113.583 157.653 111.483C166.056 108.317 172.08 101.863 163.195 95.4459C154.31 89.0286 169.1 76.7778 183.408 73.6205C197.409 70.5311 199.996 43.8597 169.079 47.7638C150.615 50.0952 147.778 68.0074 144.195 76.7128C140.612 85.4175 127.07 81.9861 128.199 94.3459C129.162 104.904 134.421 114.029 126.767 118.681C119.113 123.333 116.273 130.347 122.089 141.785Z" fill="white"/>
</mask>
<g mask="url(#mask3_1128_1178)">
<path d="M122.087 141.783L139.206 147.153C139.206 147.153 145.185 139.377 142.933 131.867C138.332 116.538 152.08 113.581 157.653 111.483C166.058 108.315 171.17 102.427 164.443 95.4551C156.828 87.5742 169.1 76.7772 183.408 73.6234C197.407 70.5326 199.995 43.8619 169.079 47.7639C150.611 50.0925 147.779 68.0082 144.192 76.7143C140.611 85.4204 127.073 81.9869 128.199 94.3432C129.164 104.902 134.423 114.028 126.766 118.678C119.115 123.336 116.276 130.349 122.087 141.783Z" fill="url(#paint3_linear_1128_1178)"/>
<g style="mix-blend-mode:soft-light" opacity="0.5">
<path d="M129.003 145.698L129.374 145.74C129.402 145.51 132.36 122.209 142.248 99.9931C151.359 79.5251 168.401 55.8194 197.82 59.106L197.862 58.7284C184.771 57.2669 172.995 60.9381 162.87 69.6442C154.786 76.5951 147.73 86.7557 141.898 99.8463C131.989 122.111 129.031 145.461 129.003 145.698Z" fill="#BEB8F2"/>
<path d="M158.8 73.4623L159.171 73.5323C161.422 61.127 171.289 45.5959 171.387 45.4421L171.065 45.2393C170.967 45.3931 161.066 60.9871 158.8 73.4623Z" fill="#BEB8F2"/>
<path d="M165.702 67.8472C180.24 64.0781 190.47 71.2807 190.568 71.3506L190.792 71.0499C190.687 70.973 180.324 63.6655 165.604 67.4836L165.702 67.8472Z" fill="#BEB8F2"/>
<path d="M136.577 114.867C145.954 99.0982 170.443 102.182 170.674 102.231L170.779 101.867C170.555 101.797 145.716 98.7625 136.248 114.678L136.577 114.867Z" fill="#BEB8F2"/>
<path d="M138.723 107.615L139.101 107.65C140.255 96.0001 130.752 84.7486 130.654 84.6367L130.367 84.8815C130.458 84.9934 139.863 96.1259 138.723 107.615Z" fill="#BEB8F2"/>
<path d="M129.919 142.083C132.521 135.615 143.639 133.335 143.751 133.314L143.674 132.937C143.206 133.034 132.248 135.286 129.57 141.943L129.919 142.083Z" fill="#BEB8F2"/>
<path d="M130.549 136.559L130.919 136.608C131.661 131.146 125.633 122.916 123.654 120.209C123.374 119.825 123.136 119.496 123.101 119.426L122.759 119.587C122.801 119.678 122.961 119.902 123.346 120.433C125.304 123.105 131.269 131.244 130.549 136.559Z" fill="#BEB8F2"/>
</g>
</g>
<path d="M138.29 146.118C138.23 146.151 138.167 146.181 138.101 146.209C134.29 147.964 129.822 149.209 124.563 149.544C123.538 149.535 122.51 149.528 121.479 149.523C120.549 147.104 120.102 144.635 123.207 143.608C128.032 141.999 127.885 133.44 126.458 130.454C124.696 126.755 120.759 118.063 128.172 115.468C134.346 113.308 138.773 113.168 138.961 105.133C139.15 97.0912 143.381 91.9515 150.674 92.2102C158.346 92.4759 164.317 82.0916 170.695 85.3083C181.807 90.9165 172.443 108.902 159.304 114.433C146.164 119.965 153.94 124.524 154.5 131.076C155.262 140.027 143.08 138.482 139.989 142.104C138.94 143.328 138.458 144.733 138.29 146.118Z" fill="url(#paint4_linear_1128_1178)"/>
<mask id="mask4_1128_1178" style="mask-type:luminance" maskUnits="userSpaceOnUse" x="120" y="84" width="56" height="68">
<path d="M138.798 151.051L122.106 151.43C121.08 149.088 119.74 144.758 123.207 143.604C128.029 142 127.885 133.438 126.459 130.452C124.693 126.755 120.759 118.063 128.174 115.466C134.346 113.304 138.771 113.17 138.962 105.132C139.154 97.0946 143.381 91.9542 150.673 92.2087C158.347 92.4772 164.316 82.0901 170.695 85.3089C181.809 90.9164 172.445 108.903 159.305 114.433C146.165 119.963 153.939 124.521 154.498 131.077C155.262 140.028 143.082 138.482 139.988 142.103C137.563 144.94 138.145 148.736 138.798 151.051Z" fill="white"/>
</mask>
<g mask="url(#mask4_1128_1178)">
<g style="mix-blend-mode:soft-light" opacity="0.5">
<path d="M130.878 148.601L130.521 148.545C135.038 122.482 152.185 98.7416 175.268 86.5811L175.436 86.9027C152.451 99.0073 135.381 122.65 130.878 148.601Z" fill="#FCFDFE"/>
<path d="M134.563 134.608L134.199 134.615C133.92 124.223 124.801 116.363 124.71 116.286L124.941 116.014C125.039 116.091 134.276 124.048 134.563 134.608Z" fill="#FCFDFE"/>
<path d="M131.843 143.831L131.521 143.671C136.269 134.265 155.374 132.433 155.569 132.412L155.597 132.776C155.409 132.79 136.5 134.601 131.843 143.831Z" fill="#FCFDFE"/>
<path d="M146.793 111.748L146.458 111.615C149.577 103.86 144.255 92.1961 144.199 92.0772L144.528 91.9233C144.584 92.0422 149.968 103.846 146.793 111.748Z" fill="#FCFDFE"/>
<path d="M158.003 99.2309L157.8 98.9303C165.779 93.7276 178.422 96.1401 178.548 96.1611L178.478 96.5177C178.352 96.4968 165.856 94.1052 158.003 99.2309Z" fill="#FCFDFE"/>
</g>
</g>
<path d="M145.8 7.83475V183.572C145.8 186.201 143.549 186.768 141.003 186.851L53.7397 191.362L52.418 191.411C49.7048 191.495 47.4811 189.348 47.4811 186.628V4.78588C47.4811 2.06566 49.7048 -0.0881316 52.418 0.00277529L54.2152 0.058718L141.8 6.86974C144.346 6.95366 145.8 5.20545 145.8 7.83475Z" fill="url(#paint5_linear_1128_1178)"/>
<path d="M148.514 7.83475V183.572C148.514 186.201 146.437 188.425 143.891 188.502L55.1384 191.411C52.4251 191.495 50.2014 189.348 50.2014 186.628V4.78588C50.2014 2.06566 52.4251 -0.0881316 55.1384 0.00277529L143.891 2.9048C146.437 2.98872 148.514 5.20545 148.514 7.83475Z" fill="url(#paint6_linear_1128_1178)"/>
<path d="M145.646 17.4918V180.299C145.646 182.754 143.702 184.823 141.318 184.893L57.8654 187.516C55.341 187.6 53.2711 185.586 53.2711 183.054V14.9464C53.2711 12.415 55.341 10.4011 57.8654 10.471L141.318 12.9045C143.702 12.9744 145.646 15.0373 145.646 17.4918Z" fill="url(#paint7_linear_1128_1178)"/>
<path d="M101.843 6.91893C101.843 7.84898 101.109 8.57623 100.2 8.54826C99.2841 8.52029 98.5498 7.74408 98.5498 6.82103C98.5498 5.89098 99.2841 5.16373 100.2 5.1917C101.109 5.21967 101.843 5.99587 101.843 6.91893Z" fill="#DE8BDF"/>
<path d="M132.696 116.363L66.0402 117.258C65.201 117.265 64.5157 116.594 64.5157 115.748V101.154C64.5157 100.308 65.201 99.6226 66.0402 99.6156L132.696 99.168C133.493 99.161 134.143 99.8254 134.143 100.644V114.853C134.143 115.678 133.493 116.349 132.696 116.363Z" fill="#F4F7FA"/>
<path d="M132.542 143.244L66.201 144.824C65.271 144.845 64.5157 144.111 64.5157 143.174V128.902C64.5157 127.972 65.271 127.202 66.201 127.188L132.542 126.049C133.423 126.035 134.143 126.755 134.143 127.664V141.566C134.143 142.475 133.423 143.223 132.542 143.244Z" fill="#F4F7FA"/>
<path d="M125.962 55.5609C125.962 70.2039 114.312 82.0847 99.7876 82.0847C85.1097 82.0917 73.089 69.9731 73.089 55.0224C73.089 40.0787 85.1097 28.2049 99.7876 28.5056C114.312 28.7993 125.962 40.9109 125.962 55.5609Z" fill="white"/>
<path d="M110.585 47.3515C110.585 53.3933 105.76 58.2394 99.7947 58.1834C93.8088 58.1275 88.9418 53.1556 88.9418 47.0788C88.9418 41.002 93.8088 36.156 99.7947 36.2539C105.76 36.3518 110.585 41.3167 110.585 47.3515Z" fill="url(#paint8_linear_1128_1178)"/>
<path d="M99.7875 82.0849C106.207 82.0849 112.06 79.7633 116.598 75.9242C115.053 67.9384 108.137 61.8756 99.7875 61.8057C91.3891 61.7427 84.3473 67.7775 82.767 75.8473C87.4032 79.7493 93.3401 82.0849 99.7875 82.0849Z" fill="url(#paint9_linear_1128_1178)"/>
<path d="M108.962 110.154L72.5925 110.553C71.3548 110.567 70.3408 109.56 70.3408 108.315C70.3408 107.077 71.3548 106.049 72.5925 106.042L108.962 105.707C110.165 105.693 111.151 106.686 111.151 107.909C111.151 109.133 110.165 110.14 108.962 110.154Z" fill="url(#paint10_linear_1128_1178)"/>
<path d="M75.7812 135.769C75.7812 137.356 74.5016 138.671 72.9142 138.706C71.3338 138.741 70.0471 137.475 70.0471 135.888C70.0471 134.3 71.3338 132.986 72.9142 132.951C74.5016 132.923 75.7812 134.181 75.7812 135.769Z" fill="url(#paint11_linear_1128_1178)"/>
<path d="M86.5082 135.552C86.5082 137.133 85.2355 138.44 83.6621 138.475C82.0957 138.51 80.816 137.252 80.816 135.664C80.816 134.084 82.0957 132.776 83.6621 132.748C85.2355 132.713 86.5082 133.972 86.5082 135.552Z" fill="url(#paint12_linear_1128_1178)"/>
<path d="M97.1443 135.335C97.1443 136.909 95.8856 138.209 94.3262 138.244C92.7668 138.279 91.5011 137.027 91.5011 135.447C91.5011 133.874 92.7668 132.566 94.3262 132.538C95.8856 132.51 97.1443 133.762 97.1443 135.335Z" fill="url(#paint13_linear_1128_1178)"/>
<path d="M107.696 135.118C107.696 136.685 106.445 137.985 104.899 138.013C103.354 138.048 102.102 136.804 102.102 135.23C102.102 133.664 103.354 132.363 104.899 132.335C106.445 132.3 107.696 133.552 107.696 135.118Z" fill="url(#paint14_linear_1128_1178)"/>
<path d="M118.165 134.902C118.165 136.461 116.927 137.755 115.396 137.79C113.857 137.825 112.613 136.58 112.613 135.014C112.613 133.454 113.857 132.161 115.396 132.133C116.927 132.098 118.165 133.342 118.165 134.902Z" fill="url(#paint15_linear_1128_1178)"/>
<path fill-rule="evenodd" clip-rule="evenodd" d="M99.7876 82.7351C92.501 82.7351 85.6481 79.8541 80.4734 74.6164C75.2917 69.3788 72.4386 62.4209 72.4386 55.0225C72.4386 47.5681 75.3336 40.6242 80.5853 35.4775C85.753 30.4147 92.578 27.7015 99.8016 27.8553C106.99 27.9952 113.731 30.9601 118.787 36.1978C123.836 41.4214 126.612 48.2954 126.612 55.5609C126.612 62.8195 123.836 69.6445 118.787 74.7703C113.724 79.903 106.983 82.7351 99.7876 82.7351ZM99.2491 29.149C92.571 29.149 86.2844 31.7154 81.4943 36.4006C76.4944 41.3095 73.7393 47.9178 73.7393 55.0225C73.7393 62.0783 76.4525 68.7075 81.3964 73.7074C86.3264 78.6932 92.8577 81.4344 99.7876 81.4344C113.864 81.4344 125.311 69.8263 125.311 55.5609C125.311 41.2816 113.857 29.4357 99.7806 29.156C99.6034 29.1513 99.4263 29.149 99.2491 29.149Z" fill="white"/>
<path style="mix-blend-mode:multiply" opacity="0.3" d="M148.514 7.72981C148.514 5.12149 146.444 2.98867 143.842 2.90476L95.4379 1.31738C113.395 20.3449 117.43 36.3025 117.892 47.2114C119.207 78.3435 92.382 91.9096 97.3679 125.958C98.7385 135.293 101.759 141.16 102.941 157.286C103.948 171.027 102.899 182.411 101.85 189.879L143.891 188.502C146.437 188.425 148.514 186.201 148.514 183.572V7.72981Z" fill="url(#paint16_linear_1128_1178)"/>
<path style="mix-blend-mode:multiply" opacity="0.3" d="M76.8581 95.4479C77.3686 80.4483 72.2289 74.1757 70.8652 72.6443C69.9002 71.5604 69.0121 70.7912 62.362 65.3018C57.425 61.218 53.3062 57.8404 50.3832 55.4419C50.3226 97.4549 50.262 139.468 50.2014 181.481C52.1944 165.355 56.0195 153.195 58.9355 145.433C67.0821 123.692 76.2008 114.685 76.8581 95.4479Z" fill="url(#paint17_linear_1128_1178)"/>
<path d="M162.297 155.16C165.213 153.398 163.989 144.083 159.709 137.664C153.639 128.552 140.919 124.566 138.451 127.44C135.927 130.384 143.905 140.776 145.199 142.461C149.898 148.58 158.856 157.237 162.297 155.16Z" fill="url(#paint18_linear_1128_1178)"/>
<path d="M195.352 193.704C194.855 194.362 194.827 195.501 195.359 196.012C195.883 196.515 196.554 196.04 198.575 195.921C200.743 195.795 201.351 196.25 202.785 195.718C203.365 195.501 204.372 195.012 204.316 194.585C204.274 194.292 203.729 194.187 201.897 193.746C199.296 193.124 199.303 193.075 198.757 193.04C197.387 192.935 196.009 192.83 195.352 193.704Z" fill="url(#paint19_linear_1128_1178)"/>
<path d="M195.31 190.131L197.589 193.145C197.575 193.355 196.764 194.348 195.729 194.292L193.002 191.557L195.31 190.131Z" fill="url(#paint20_linear_1128_1178)"/>
<path d="M183.597 201.382C183.114 202.053 183.114 203.186 183.653 203.69C184.184 204.179 184.848 203.697 186.869 203.536C189.03 203.361 189.653 203.809 191.072 203.242C191.645 203.012 192.645 202.501 192.583 202.081C192.534 201.781 191.988 201.69 190.142 201.291C187.527 200.725 187.534 200.676 186.988 200.648C185.618 200.571 184.24 200.494 183.597 201.382Z" fill="url(#paint21_linear_1128_1178)"/>
<path d="M183.513 197.879L185.786 200.9C185.779 201.11 184.967 202.103 183.932 202.047L181.198 199.312L183.513 197.879Z" fill="url(#paint22_linear_1128_1178)"/>
<path d="M114.633 128.937C118.039 127.629 123.256 126.069 129.745 125.825C137.059 125.552 142.926 125.335 147.108 128.636C161.024 139.629 154.206 168.586 153.199 171.81C152.003 175.642 149.723 178.243 149.723 178.243C148.36 179.802 147.024 180.718 146.297 181.194C135.829 188.124 129.325 192.424 122.451 190.669C121.535 190.432 117.382 188.991 115.095 185.537C114.682 184.921 114.431 184.131 114.361 183.026C113.298 164.803 115.445 146.496 114.633 128.937Z" fill="url(#paint23_linear_1128_1178)"/>
<path style="mix-blend-mode:multiply" opacity="0.3" d="M120.633 150.663C119.235 146.845 120.682 142.475 117.57 140.573C116.43 139.873 115.011 139.58 113.472 139.615C113.661 153.034 113.934 166.439 114.263 180.439C114.374 185.068 114.955 185.292 119.437 189.348C124.64 194.04 128.913 192.522 136.591 190.984C126.535 184.802 124.032 181.446 125.053 175.956C126.248 169.558 137.961 167.663 137.486 163.118C136.982 158.299 123.682 159.006 120.633 150.663Z" fill="url(#paint24_linear_1128_1178)"/>
<path d="M117.843 129.181C114.382 127.251 106.438 132.741 102.095 137.475C100.081 139.671 93.0535 147.335 95.2423 157.188C95.5989 158.796 97.2422 166.306 104.557 169.74C111.109 172.817 119.752 171.635 126.535 166.677C127.454 165.885 128.374 165.09 129.297 164.293C130.197 163.346 131.097 162.4 131.997 161.453C130.486 160.404 127.934 158.908 124.388 158.02C118.983 156.67 116.556 158.565 115.221 157.097C113.578 155.286 117.242 152.16 118.2 144.188C118.459 142.041 121.703 131.335 117.843 129.181Z" fill="url(#paint25_linear_1128_1178)"/>
<path d="M124.116 188.466C124.542 196.061 127.395 191.851 133.857 185.04C140.661 177.865 156.681 165.25 167.366 170.068C175.331 173.656 174.555 184.264 187.289 190.921C189.527 192.096 191.492 192.767 192.694 193.131C194.074 191.853 195.454 190.578 196.834 189.306C196.093 185.341 192.792 170.215 178.981 160.684C175.646 158.383 169.268 153.943 161.213 154.048C139.437 154.327 123.724 181.46 124.116 188.466Z" fill="url(#paint26_linear_1128_1178)"/>
<path d="M114.081 184.942C114.172 189.362 117.053 193.411 120.304 195.39C127.521 199.781 138.325 195.047 144.381 190.201C151.744 184.306 151.744 178.537 155.506 178.565C161.352 178.607 162.373 192.585 175.422 199.417C177.66 200.585 179.625 201.264 180.834 201.627C182.21 200.35 183.587 199.075 184.967 197.802C182.708 189.236 179.205 183.019 176.618 179.145C173.394 174.313 170.296 169.663 164.289 166.292C157.961 162.747 151.919 162.579 149.353 162.544C133.157 162.292 113.843 173.418 114.081 184.942Z" fill="url(#paint27_linear_1128_1178)"/>
<path d="M158.045 158.404L117.955 165.635L129.584 168.684L158.66 160.985L158.045 158.404Z" fill="url(#paint28_linear_1128_1178)"/>
<path d="M116.752 166.971C116.899 167.719 117.493 168.292 118.249 168.411L132.003 170.921L131.381 167.439L117.955 165.635C117.207 165.565 116.605 166.236 116.752 166.971Z" fill="url(#paint29_linear_1128_1178)"/>
<path d="M123.193 163.824C122.934 163.817 123.815 160.663 125.011 160.775C126.206 160.887 132.367 163.006 133.129 164.229C133.885 165.453 133.885 165.453 133.885 165.453C133.885 165.453 131.514 166.11 129.92 165.901C128.318 165.691 125.276 163.88 123.193 163.824Z" fill="url(#paint30_linear_1128_1178)"/>
<path d="M130.15 142.419L129.269 168.705C129.241 169.614 130.605 170.852 131.507 170.747L173.31 164.971C174.002 164.887 174.534 164.334 174.597 163.642L177.953 138.062C178.044 137.132 176.324 136.314 175.401 136.412L131.472 140.999C130.745 141.076 130.178 141.677 130.15 142.419Z" fill="url(#paint31_linear_1128_1178)"/>
<path d="M131.171 143.104L130.29 169.39C130.262 170.299 131.046 171.019 131.948 170.907L174.331 165.655C175.016 165.572 175.555 165.019 175.618 164.327L178.037 138.705C178.128 137.775 177.345 136.999 176.415 137.097L132.493 141.684C131.759 141.761 131.192 142.362 131.171 143.104Z" fill="url(#paint32_linear_1128_1178)"/>
<path style="mix-blend-mode:multiply" opacity="0.3" d="M157.639 160.782C153.8 159.488 154.884 156.39 150.213 152.985C144.052 148.488 138.318 151.076 135.961 147.411C135.227 146.265 134.78 144.439 135.675 141.349L132.493 141.684C131.759 141.761 131.192 142.363 131.171 143.104L130.29 169.39C130.262 170.299 131.046 171.019 131.948 170.907L174.331 165.656C175.016 165.572 175.555 165.019 175.618 164.327L175.954 160.796C174.604 160.173 173.017 159.635 171.191 159.411C164.849 158.621 162.052 162.271 157.639 160.782Z" fill="url(#paint33_linear_1128_1178)"/>
<path d="M130.059 115.818C130.178 118.524 129.961 120.685 129.731 122.167C129.465 123.867 129.241 124.307 128.955 124.678C128.955 124.678 128.864 124.79 128.759 124.895C128.493 125.16 125.171 125.804 124.192 126.034C124.087 126.055 122.171 126.524 121.619 127.559C121.619 127.566 121.605 127.587 121.598 127.615C121.409 128.643 127.304 131.915 133.22 130.852C136.849 130.202 140.087 127.999 139.842 126.915C139.591 125.825 135.975 126.552 134.815 124.608C134.01 123.251 134.787 121.258 135.724 119.594C134.689 117.818 131.094 117.594 130.059 115.818Z" fill="url(#paint34_linear_1128_1178)"/>
<path d="M137.829 118.972C140.143 118.3 141.64 110.329 139.689 109.364C138.759 108.902 138.066 110.552 134.353 112.035C131.381 113.217 130.129 112.832 129.304 114.14C128.493 115.426 128.99 117.293 129.248 118.615C129.36 119.189 129.731 119.461 130.025 119.937C130.43 120.608 131.059 121.664 132.087 123.419C132.29 123.014 132.563 122.51 132.948 121.993C133.094 121.79 133.675 121.007 135.402 119.832C136.5 119.084 137.563 119.049 137.829 118.972Z" fill="url(#paint35_linear_1128_1178)"/>
<path d="M130.437 121.769C130.437 121.769 131.388 124.552 134.409 125.013C137.115 125.426 138.822 119.538 137.402 117.895C136.927 117.342 135.829 116.916 134.85 116.972C134.269 117.007 134.032 117.189 133.081 117.223C132.206 117.258 131.997 117.112 131.696 117.272C131.325 117.461 130.955 118.056 131.095 119.923C130.696 119.293 130.13 118.958 129.654 119.07C129.577 119.091 129.367 119.174 129.221 119.335C128.696 119.937 129.13 120.944 130.437 121.769Z" fill="url(#paint36_linear_1128_1178)"/>
<path d="M131.654 116.888C131.766 117.006 131.262 117.405 131.087 118.076C130.738 119.377 131.724 121.258 133.052 121.692C133.836 121.95 134.164 121.51 135.528 121.664C136.367 121.762 137.031 122.013 137.444 122.202C137.542 123.74 136.829 125.097 135.717 125.552C134.514 126.041 133.283 125.314 132.773 125.006C132.423 124.803 131.318 124.146 130.941 122.922C130.542 121.643 131.332 121.097 130.759 120.16C130.465 119.692 130.011 119.412 129.696 118.559C129.612 118.321 129.57 118.125 129.542 117.992C130.388 117.412 131.5 116.706 131.654 116.888Z" fill="url(#paint37_linear_1128_1178)"/>
<path d="M136.353 122.524C136.353 122.524 135.717 122.699 134.731 122.426C134.682 122.412 134.626 122.412 134.619 122.44C134.57 122.524 135.115 123.09 135.745 123.056C136.185 123.028 136.598 122.706 136.563 122.594C136.549 122.545 136.451 122.531 136.353 122.524Z" fill="url(#paint38_linear_1128_1178)"/>
<path d="M4.00645 90.9449C2.89459 87.6792 3.6708 83.9311 5.38404 81.3088C8.28607 76.8753 12.0622 78.4137 15.8453 73.4978C18.2928 70.323 20.5165 67.6098 23.2368 65.5749C25.2367 64.0784 29.9639 62.3862 31.81 63.561C37.3413 67.0784 27.1947 97.0427 16.0132 98.7489C11.5377 99.4342 5.67075 95.8539 4.00645 90.9449Z" fill="url(#paint39_linear_1128_1178)"/>
<path d="M25.2158 185.572C25.5165 186.201 25.8452 187.124 25.9361 188.271C25.971 188.775 25.9571 189.236 25.9151 189.628C25.5934 190.11 24.076 191.753 22.0271 192.159C20.7614 192.404 18.7055 191.334 21.0341 189.879C23.3627 188.425 23.7054 188.075 23.0271 184.355C22.8452 183.397 22.9152 183.047 23.069 182.977C23.4187 182.824 24.4186 184.292 25.2158 185.572Z" fill="url(#paint40_linear_1128_1178)"/>
<path d="M35.9568 188.411C36.2505 189.04 36.5862 189.963 36.6701 191.117C36.712 191.621 36.6911 192.075 36.6561 192.467C36.3274 192.949 34.81 194.593 32.7611 194.998C31.4954 195.25 29.4395 194.173 31.7681 192.719C34.0967 191.264 34.4464 190.914 33.7611 187.194C33.5862 186.236 33.6562 185.887 33.803 185.824C34.1527 185.663 35.1526 187.131 35.9568 188.411Z" fill="url(#paint41_linear_1128_1178)"/>
<path d="M47.1172 110.734C47.8864 115.424 48.6579 120.112 49.4318 124.797C47.7465 129.231 46.1731 134.063 44.8445 139.279C40.0474 158.125 37.0545 176.278 36.8377 189.285C35.7841 189.667 34.7282 190.05 33.6699 190.432C31.7749 183.285 32.3483 172.481 30.67 159.74C28.677 144.685 30.0337 132.916 29.3414 132.874C28.677 132.839 26.817 143.608 26.817 155.915C26.81 168.922 25.3135 179.39 26.2785 186.907C25.0151 186.982 23.7494 187.057 22.4814 187.131C18.978 177.194 17.4466 165.349 15.6774 149.692C14.4396 138.811 12.9851 124.364 20.2507 109.462C20.9779 107.972 23.5093 104.665 23.9849 103.854C32.3203 105.448 38.7887 109.14 47.1172 110.734Z" fill="url(#paint42_linear_1128_1178)"/>
<path style="mix-blend-mode:multiply" opacity="0.3" d="M44.8446 139.279C46.1732 134.063 47.7466 129.231 49.4319 124.797C48.658 120.112 47.8865 115.424 47.1172 110.734C38.7888 109.14 32.3204 105.448 23.9849 103.854C23.5094 104.665 20.978 107.972 20.2508 109.462C17.8033 114.483 16.3488 119.455 15.5376 124.259C31.6561 124.084 36.3203 127.44 37.607 130.531C39.6489 135.454 33.4323 140.454 35.635 150.419C36.2923 153.419 37.2853 154.894 37.3972 158.649C37.551 163.579 35.9427 164.055 35.691 169.069C35.4182 174.558 33.5162 179.915 34.4043 183.803C34.9637 186.222 35.607 188.187 36.1105 189.551C36.3529 189.462 36.5954 189.374 36.8378 189.285C37.0546 176.278 40.0475 158.125 44.8446 139.279Z" fill="url(#paint43_linear_1128_1178)"/>
<path d="M40.2155 45.6871C40.7329 46.3794 39.9637 47.3094 39.8099 50.68C39.74 52.2254 39.8309 53.5191 39.9358 54.4352C39.9637 55.2673 40.0127 56.0365 40.0756 56.7218C40.1246 57.2183 40.1735 57.6099 40.2504 58.0295C40.3833 58.7987 40.5721 59.5609 40.8169 60.3021C40.8308 60.3511 40.8029 60.4 40.7609 60.421C40.7563 60.421 40.7539 60.421 40.7539 60.421C40.698 60.442 40.642 60.414 40.628 60.3581C40.3833 59.6168 40.1875 58.8406 40.0546 58.0574C39.9777 57.6379 39.9288 57.2463 39.8798 56.7428C39.8448 56.3792 39.8169 55.9946 39.7959 55.589C39.684 56.6519 39.663 57.8267 40.0406 59.4001C41.1875 64.1552 37.4883 67.295 34.5792 67.4209C31.2227 67.5607 28.943 64.9034 28.2367 64.0293C25.4046 60.5189 24.8592 54.7988 27.5235 50.6171C31.0199 45.1347 38.9498 43.9948 40.2155 45.6871Z" fill="url(#paint44_linear_1128_1178)"/>
<path d="M31.7192 50.2745C31.866 49.7431 32.5164 47.5753 34.5023 46.2117C38.2715 43.6313 44.3063 45.7012 47.7677 48.7431C51.397 51.9178 49.8866 54.1206 53.4459 57.652C57.32 61.484 60.0332 59.8127 65.4107 63.5189C67.5225 64.9735 73.2217 68.9034 73.6063 75.0292C73.9349 80.3227 70.1868 85.6233 65.6065 87.6652C57.7675 91.1686 47.9426 84.917 43.3133 79.1619C38.8659 73.6516 41.8658 72.302 35.5443 61.6449C33.2646 57.7988 30.6493 54.2464 31.7192 50.2745Z" fill="url(#paint45_linear_1128_1178)"/>
<path d="M26.0689 65.7144C23.2018 68.6165 22.4326 72.0989 22.2089 73.6583C21.5026 78.5043 23.4116 82.4623 23.8592 83.4972C25.971 88.4062 25.1878 98.0773 12.8734 118.909C14.0482 119.881 18.0831 127.105 19.9921 123.643C22.5935 118.923 34.3974 85.693 23.013 125.07C22.8662 125.587 24.027 125.482 24.5515 125.678C28.3346 127.091 32.8729 128.119 38.0336 128.056C46.1244 127.958 52.292 125.216 55.5507 123.454C53.341 118.301 51.0263 111.329 50.0334 102.867C48.1453 86.7209 52.0753 73.7073 54.8165 66.6864C52.32 64.9592 44.4111 59.9593 35.0547 61.5747C32.7261 61.9803 29.0898 62.6586 26.0689 65.7144Z" fill="url(#paint46_linear_1128_1178)"/>
<path style="mix-blend-mode:multiply" opacity="0.3" d="M50.0333 102.867C48.1452 86.7209 52.0752 73.7073 54.8164 66.6864C52.3199 64.9592 44.411 59.9593 35.0546 61.5747C32.726 61.9803 29.0897 62.6586 26.0688 65.7144C23.7891 68.0221 22.8381 70.7003 22.4255 72.4835C22.4955 72.4695 22.5934 72.4555 22.7122 72.4416C28.4743 71.6444 35.1245 76.2806 37.3972 80.6651C41.1943 87.9796 32.4603 93.9585 32.684 105.56C32.8029 111.825 35.5231 119.238 43.8516 127.517C49.0892 126.615 53.1241 124.762 55.5506 123.454C53.3409 118.301 51.0262 111.329 50.0333 102.867Z" fill="url(#paint47_linear_1128_1178)"/>
<path d="M37.2434 55.771C36.4182 57.4353 35.726 59.5192 36.635 60.9177C37.1805 61.7709 38.0965 62.2464 38.9916 62.6939C41.1174 63.7498 42.1104 63.3233 42.53 63.9596C43.453 65.3722 40.8377 70.7566 36.5651 71.2252C32.3204 71.6867 28.4744 67.0644 29.1177 65.1064C29.6911 63.3442 33.8729 63.8967 34.6211 61.666C34.9987 60.5471 34.3064 59.2954 33.705 58.4562L33.2015 58.4982L37.2434 55.771Z" fill="url(#paint48_linear_1128_1178)"/>
<path style="mix-blend-mode:multiply" opacity="0.4" d="M42.53 63.9596C42.1104 63.3233 41.1174 63.7498 38.9916 62.6939C38.0965 62.2464 37.1805 61.7709 36.635 60.9177C35.726 59.5192 36.4182 57.4353 37.2434 55.771L33.2015 58.4982L33.705 58.4562C34.1805 59.1276 34.705 60.0506 34.719 60.9597C35.0127 61.1625 35.2574 61.3862 35.4392 61.603C34.8798 62.8058 34.691 63.8407 34.6211 64.512C34.5022 65.561 34.4183 66.3372 34.8728 67.0714C35.3623 67.8686 36.1945 68.1483 36.9287 68.4001C38.5511 68.9455 40.0685 68.7637 41.0685 68.5189C42.4461 66.7987 43.0475 64.7498 42.53 63.9596Z" fill="url(#paint49_linear_1128_1178)"/>
<path d="M36.4952 57.3794C36.4952 57.3794 36.6351 59.5192 34.5582 59.8758C31.9918 60.3163 30.5793 53.5892 31.1387 53.0997C31.789 52.5263 32.6002 53.5193 34.2225 52.855C34.9078 52.5753 35.3693 51.5613 35.8938 52.4844C36.4882 53.5403 36.4742 55.5752 36.4742 55.5752C36.4742 55.5752 36.9987 54.9738 37.1945 55.5612C37.4462 56.3304 36.9357 56.9248 36.4952 57.3794Z" fill="url(#paint50_linear_1128_1178)"/>
<path d="M32.6701 49.5823C31.761 50.3375 31.1387 51.9179 31.6212 52.792C32.3204 54.0507 34.8658 53.0787 35.705 54.6172C36.0756 55.2885 35.9637 56.1626 36.1875 56.1696C36.3763 56.1766 36.5441 55.5822 36.705 55.0997C37.5791 52.4144 38.2993 52.1767 38.1735 51.3655C37.9147 49.7222 34.5372 48.0369 32.6701 49.5823Z" fill="url(#paint51_linear_1128_1178)"/>
<path d="M47.7467 66.4561C50.5718 66.6309 50.8585 65.7848 53.9913 68.0784C62.9841 74.6657 68.8161 93.2456 59.9002 102.231C54.9353 107.224 45.8866 110.273 38.1875 106.462C31.9219 103.357 29.6073 97.2246 29.0479 95.5812C29.1504 93.9309 29.253 92.283 29.3555 90.6373C32.8729 94.4344 35.9008 95.3994 38.0966 95.5113C41.8308 95.7141 43.3832 93.4834 49.7676 93.1338C52.2571 92.9939 53.6487 93.2456 53.9354 92.5673C54.5367 91.1688 49.1033 88.9101 46.5509 84.7633C44.6838 81.7354 43.558 76.4209 47.7467 66.4561Z" fill="url(#paint52_linear_1128_1178)"/>
<path d="M36.7051 52.5543C36.0688 53.1207 37.1107 55.3305 39.2225 59.708C40.5232 62.4072 41.1665 63.7568 41.6141 64.3582C44.0126 67.5889 48.3342 70.3371 52.9705 70.5609C56.1522 70.7077 56.7396 69.5399 59.292 70.2462C63.131 71.3021 65.0261 74.8475 65.2219 74.6936C65.4317 74.5188 63.3478 70.0154 58.6416 65.9526C54.7886 62.624 53.5718 63.3792 47.4671 58.694C47.0195 58.3514 45.1455 56.9039 42.4812 55.2186C39.3414 53.2396 37.3415 51.9949 36.7051 52.5543Z" fill="url(#paint53_linear_1128_1178)"/>
<path d="M11.6706 77.3719L18.2159 93.5534C18.3278 93.8541 18.5655 94.0848 18.8732 94.1827L26.4115 96.5743C27.1877 96.819 27.9359 96.1127 27.7262 95.3225L23.6983 80.0292C23.6074 79.6796 23.3417 78.9034 22.6703 78.6866L13.4887 76.0363C12.6706 75.7916 11.3769 76.5748 11.6706 77.3719Z" fill="url(#paint54_linear_1128_1178)"/>
<path d="M11.5937 77.6305L17.3838 93.2875C17.4887 93.5882 17.7335 93.8189 18.0411 93.9168L25.5794 96.3084C26.3556 96.5601 27.1039 95.8469 26.8941 95.0567L22.8662 79.7633C22.7753 79.4137 22.5026 79.134 22.1599 79.0361L12.8594 76.2739C12.0413 76.0362 11.2931 76.8263 11.5937 77.6305Z" fill="url(#paint55_linear_1128_1178)"/>
<path d="M29.7611 91.9658L28.9639 91.2246C28.9639 91.2246 27.8381 89.6792 26.9919 88.9309C26.1388 88.1897 25.3066 88.0358 24.4046 88.7561C23.5025 89.4764 24.2717 90.6651 24.922 91.7001C25.3206 92.3294 26.4395 92.728 27.3695 92.9728C28.0199 93.1406 29.1667 93.9937 29.1667 93.9937L29.7611 91.9658Z" fill="url(#paint56_linear_1128_1178)"/>
<path d="M12.4677 84.8818L13.216 84.0986C13.216 84.0986 14.7684 82.9797 15.5236 82.1406C16.2718 81.2944 16.4327 80.4693 15.7194 79.5602C15.0061 78.6512 13.8174 79.4064 12.7754 80.0497C12.1391 80.4413 11.7335 81.5602 11.4818 82.4832C11.3069 83.1406 10.4398 84.2734 10.4398 84.2734L12.4677 84.8818Z" fill="url(#paint57_linear_1128_1178)"/>
<path d="M10.321 83.2949C11.286 83.7751 12.251 84.2576 13.216 84.7424C13.5167 85.1131 17.0341 89.7423 15.153 94.1758C14.9083 94.7492 13.9852 96.931 12.1601 97.3156C9.34895 97.91 5.25115 94.0569 5.38401 89.9171C5.46792 87.141 7.4469 84.5886 10.321 83.2949Z" fill="url(#paint58_linear_1128_1178)"/>
<defs>
<linearGradient id="paint0_linear_1128_1178" x1="74.2122" y1="21.1637" x2="97.1273" y2="93.5242" gradientUnits="userSpaceOnUse">
<stop stop-color="#FF9085"/>
<stop offset="1" stop-color="#FB6FBB"/>
</linearGradient>
<linearGradient id="paint1_linear_1128_1178" x1="-84.0942" y1="47.5618" x2="-46.6307" y2="155.205" gradientUnits="userSpaceOnUse">
<stop stop-color="#FFC444"/>
<stop offset="0.996" stop-color="#F36F56"/>
</linearGradient>
<linearGradient id="paint2_linear_1128_1178" x1="77.8102" y1="-27.2964" x2="23.6724" y2="91.062" gradientUnits="userSpaceOnUse">
<stop stop-color="#AA80F9"/>
<stop offset="0.996" stop-color="#6165D7"/>
</linearGradient>
<linearGradient id="paint3_linear_1128_1178" x1="283.561" y1="122.198" x2="215.305" y2="213.476" gradientUnits="userSpaceOnUse">
<stop offset="0.004" stop-color="#E38DDD"/>
<stop offset="1" stop-color="#9571F6"/>
</linearGradient>
<linearGradient id="paint4_linear_1128_1178" x1="123.514" y1="64.3867" x2="85.5911" y2="130.136" gradientUnits="userSpaceOnUse">
<stop stop-color="#FFC444"/>
<stop offset="0.996" stop-color="#F36F56"/>
</linearGradient>
<linearGradient id="paint5_linear_1128_1178" x1="44.8305" y1="306.17" x2="-41.9953" y2="232.104" gradientUnits="userSpaceOnUse">
<stop stop-color="#444B8C"/>
<stop offset="0.996" stop-color="#26264F"/>
</linearGradient>
<linearGradient id="paint6_linear_1128_1178" x1="46.1108" y1="180.462" x2="57.8342" y2="-134.691" gradientUnits="userSpaceOnUse">
<stop stop-color="#444B8C"/>
<stop offset="0.996" stop-color="#26264F"/>
</linearGradient>
<linearGradient id="paint7_linear_1128_1178" x1="53.2718" y1="10.4717" x2="145.643" y2="10.4717" gradientUnits="userSpaceOnUse">
<stop stop-color="#FF9085"/>
<stop offset="1" stop-color="#FB6FBB"/>
</linearGradient>
<linearGradient id="paint8_linear_1128_1178" x1="89.8578" y1="-6.72275" x2="197.389" y2="213.155" gradientUnits="userSpaceOnUse">
<stop stop-color="#AA80F9"/>
<stop offset="0.996" stop-color="#6165D7"/>
</linearGradient>
<linearGradient id="paint9_linear_1128_1178" x1="68.5552" y1="-14.2632" x2="186.746" y2="227.41" gradientUnits="userSpaceOnUse">
<stop stop-color="#AA80F9"/>
<stop offset="0.996" stop-color="#6165D7"/>
</linearGradient>
<linearGradient id="paint10_linear_1128_1178" x1="47.8683" y1="17.4441" x2="137.595" y2="200.915" gradientUnits="userSpaceOnUse">
<stop stop-color="#AA80F9"/>
<stop offset="0.996" stop-color="#6165D7"/>
</linearGradient>
<linearGradient id="paint11_linear_1128_1178" x1="12.7049" y1="3.93961" x2="121.782" y2="226.977" gradientUnits="userSpaceOnUse">
<stop stop-color="#AA80F9"/>
<stop offset="0.996" stop-color="#6165D7"/>
</linearGradient>
<linearGradient id="paint12_linear_1128_1178" x1="20.8108" y1="-1.67181" x2="129.821" y2="221.23" gradientUnits="userSpaceOnUse">
<stop stop-color="#AA80F9"/>
<stop offset="0.996" stop-color="#6165D7"/>
</linearGradient>
<linearGradient id="paint13_linear_1128_1178" x1="96.1078" y1="130.286" x2="99.4482" y2="137.117" gradientUnits="userSpaceOnUse">
<stop stop-color="#AA80F9"/>
<stop offset="0.996" stop-color="#6165D7"/>
</linearGradient>
<linearGradient id="paint14_linear_1128_1178" x1="106.688" y1="130.09" x2="110.01" y2="136.884" gradientUnits="userSpaceOnUse">
<stop stop-color="#AA80F9"/>
<stop offset="0.996" stop-color="#6165D7"/>
</linearGradient>
<linearGradient id="paint15_linear_1128_1178" x1="117.183" y1="129.896" x2="120.488" y2="136.654" gradientUnits="userSpaceOnUse">
<stop stop-color="#AA80F9"/>
<stop offset="0.996" stop-color="#6165D7"/>
</linearGradient>
<linearGradient id="paint16_linear_1128_1178" x1="95.441" y1="1.31822" x2="148.516" y2="1.31822" gradientUnits="userSpaceOnUse">
<stop stop-color="#FF9085"/>
<stop offset="1" stop-color="#FB6FBB"/>
</linearGradient>
<linearGradient id="paint17_linear_1128_1178" x1="52.3667" y1="43.9562" x2="103.058" y2="45.8418" gradientUnits="userSpaceOnUse">
<stop stop-color="#FF9085"/>
<stop offset="1" stop-color="#FB6FBB"/>
</linearGradient>
<linearGradient id="paint18_linear_1128_1178" x1="124.18" y1="138.751" x2="136.649" y2="121.688" gradientUnits="userSpaceOnUse">
<stop stop-color="#AA80F9"/>
<stop offset="0.996" stop-color="#6165D7"/>
</linearGradient>
<linearGradient id="paint19_linear_1128_1178" x1="202.852" y1="190.642" x2="194.416" y2="193.79" gradientUnits="userSpaceOnUse">
<stop stop-color="#444B8C"/>
<stop offset="0.996" stop-color="#26264F"/>
</linearGradient>
<linearGradient id="paint20_linear_1128_1178" x1="200.361" y1="191.733" x2="192.619" y2="186.799" gradientUnits="userSpaceOnUse">
<stop stop-color="#FFC444"/>
<stop offset="0.996" stop-color="#F36F56"/>
</linearGradient>
<linearGradient id="paint21_linear_1128_1178" x1="191.033" y1="198.166" x2="182.664" y2="201.49" gradientUnits="userSpaceOnUse">
<stop stop-color="#444B8C"/>
<stop offset="0.996" stop-color="#26264F"/>
</linearGradient>
<linearGradient id="paint22_linear_1128_1178" x1="188.561" y1="199.485" x2="180.819" y2="194.551" gradientUnits="userSpaceOnUse">
<stop stop-color="#FFC444"/>
<stop offset="0.996" stop-color="#F36F56"/>
</linearGradient>
<linearGradient id="paint23_linear_1128_1178" x1="70.502" y1="145.797" x2="95.3484" y2="111.794" gradientUnits="userSpaceOnUse">
<stop stop-color="#AA80F9"/>
<stop offset="0.996" stop-color="#6165D7"/>
</linearGradient>
<linearGradient id="paint24_linear_1128_1178" x1="67.7341" y1="138.975" x2="100.661" y2="97.2389" gradientUnits="userSpaceOnUse">
<stop stop-color="#AA80F9"/>
<stop offset="0.996" stop-color="#6165D7"/>
</linearGradient>
<linearGradient id="paint25_linear_1128_1178" x1="69.7862" y1="145.369" x2="98.6877" y2="109.771" gradientUnits="userSpaceOnUse">
<stop stop-color="#AA80F9"/>
<stop offset="0.996" stop-color="#6165D7"/>
</linearGradient>
<linearGradient id="paint26_linear_1128_1178" x1="117.143" y1="209.822" x2="142.335" y2="132.355" gradientUnits="userSpaceOnUse">
<stop stop-color="#444B8C"/>
<stop offset="0.996" stop-color="#26264F"/>
</linearGradient>
<linearGradient id="paint27_linear_1128_1178" x1="192.314" y1="161.211" x2="157.778" y2="247.6" gradientUnits="userSpaceOnUse">
<stop stop-color="#444B8C"/>
<stop offset="0.996" stop-color="#26264F"/>
</linearGradient>
<linearGradient id="paint28_linear_1128_1178" x1="147.015" y1="181.065" x2="138.662" y2="166.892" gradientUnits="userSpaceOnUse">
<stop stop-color="#311944"/>
<stop offset="1" stop-color="#893976"/>
</linearGradient>
<linearGradient id="paint29_linear_1128_1178" x1="124.601" y1="160.938" x2="128.84" y2="173.035" gradientUnits="userSpaceOnUse">
<stop stop-color="#311944"/>
<stop offset="1" stop-color="#893976"/>
</linearGradient>
<linearGradient id="paint30_linear_1128_1178" x1="122.651" y1="161.209" x2="132.673" y2="159.247" gradientUnits="userSpaceOnUse">
<stop stop-color="#FFC444"/>
<stop offset="0.996" stop-color="#F36F56"/>
</linearGradient>
<linearGradient id="paint31_linear_1128_1178" x1="147.309" y1="171.941" x2="134.602" y2="156.531" gradientUnits="userSpaceOnUse">
<stop stop-color="#444B8C"/>
<stop offset="0.996" stop-color="#26264F"/>
</linearGradient>
<linearGradient id="paint32_linear_1128_1178" x1="128.269" y1="178.375" x2="146.359" y2="133.28" gradientUnits="userSpaceOnUse">
<stop stop-color="#311944"/>
<stop offset="1" stop-color="#893976"/>
</linearGradient>
<linearGradient id="paint33_linear_1128_1178" x1="128.19" y1="141.921" x2="174.249" y2="138.415" gradientUnits="userSpaceOnUse">
<stop stop-color="#311944"/>
<stop offset="1" stop-color="#893976"/>
</linearGradient>
<linearGradient id="paint34_linear_1128_1178" x1="119.843" y1="134.618" x2="131.114" y2="108.708" gradientUnits="userSpaceOnUse">
<stop stop-color="#FFC444"/>
<stop offset="0.996" stop-color="#F36F56"/>
</linearGradient>
<linearGradient id="paint35_linear_1128_1178" x1="132.189" y1="142.361" x2="149.034" y2="117.137" gradientUnits="userSpaceOnUse">
<stop stop-color="#444B8C"/>
<stop offset="0.996" stop-color="#26264F"/>
</linearGradient>
<linearGradient id="paint36_linear_1128_1178" x1="137.473" y1="118.732" x2="133.22" y2="144.285" gradientUnits="userSpaceOnUse">
<stop stop-color="#FFC444"/>
<stop offset="0.996" stop-color="#F36F56"/>
</linearGradient>
<linearGradient id="paint37_linear_1128_1178" x1="126.971" y1="139.614" x2="145.161" y2="112.376" gradientUnits="userSpaceOnUse">
<stop stop-color="#444B8C"/>
<stop offset="0.996" stop-color="#26264F"/>
</linearGradient>
<linearGradient id="paint38_linear_1128_1178" x1="135.81" y1="121.427" x2="134.642" y2="124.887" gradientUnits="userSpaceOnUse">
<stop stop-color="#FFC444"/>
<stop offset="1" stop-color="#F36F56"/>
</linearGradient>
<linearGradient id="paint39_linear_1128_1178" x1="31.9716" y1="30.0734" x2="54.3811" y2="70.7782" gradientUnits="userSpaceOnUse">
<stop stop-color="#AA80F9"/>
<stop offset="0.996" stop-color="#6165D7"/>
</linearGradient>
<linearGradient id="paint40_linear_1128_1178" x1="20.8799" y1="182.727" x2="26.5966" y2="183.344" gradientUnits="userSpaceOnUse">
<stop stop-color="#AA80F9"/>
<stop offset="0.996" stop-color="#6165D7"/>
</linearGradient>
<linearGradient id="paint41_linear_1128_1178" x1="31.616" y1="185.567" x2="37.3327" y2="186.184" gradientUnits="userSpaceOnUse">
<stop stop-color="#AA80F9"/>
<stop offset="0.996" stop-color="#6165D7"/>
</linearGradient>
<linearGradient id="paint42_linear_1128_1178" x1="14.106" y1="104.023" x2="49.0568" y2="103.415" gradientUnits="userSpaceOnUse">
<stop stop-color="#444B8C"/>
<stop offset="0.996" stop-color="#26264F"/>
</linearGradient>
<linearGradient id="paint43_linear_1128_1178" x1="17.7217" y1="103.202" x2="51.3066" y2="106.683" gradientUnits="userSpaceOnUse">
<stop stop-color="#444B8C"/>
<stop offset="0.996" stop-color="#26264F"/>
</linearGradient>
<linearGradient id="paint44_linear_1128_1178" x1="97.9964" y1="120.474" x2="12.578" y2="63.4942" gradientUnits="userSpaceOnUse">
<stop stop-color="#311944"/>
<stop offset="1" stop-color="#6B3976"/>
</linearGradient>
<linearGradient id="paint45_linear_1128_1178" x1="79.6127" y1="118.073" x2="9.26044" y2="71.1432" gradientUnits="userSpaceOnUse">
<stop stop-color="#311944"/>
<stop offset="1" stop-color="#6B3976"/>
</linearGradient>
<linearGradient id="paint46_linear_1128_1178" x1="66.5558" y1="43.2941" x2="121.462" y2="101.503" gradientUnits="userSpaceOnUse">
<stop stop-color="#AA80F9"/>
<stop offset="0.996" stop-color="#6165D7"/>
</linearGradient>
<linearGradient id="paint47_linear_1128_1178" x1="61.2247" y1="37.8241" x2="118.635" y2="83.1291" gradientUnits="userSpaceOnUse">
<stop stop-color="#AA80F9"/>
<stop offset="0.996" stop-color="#6165D7"/>
</linearGradient>
<linearGradient id="paint48_linear_1128_1178" x1="45.2959" y1="77.6147" x2="44.6855" y2="48.7227" gradientUnits="userSpaceOnUse">
<stop stop-color="#FFC444"/>
<stop offset="0.996" stop-color="#F36F56"/>
</linearGradient>
<linearGradient id="paint49_linear_1128_1178" x1="28.0595" y1="72.7068" x2="31.3854" y2="49.2426" gradientUnits="userSpaceOnUse">
<stop stop-color="#FFC444"/>
<stop offset="0.996" stop-color="#F36F56"/>
</linearGradient>
<linearGradient id="paint50_linear_1128_1178" x1="29.4785" y1="54.4227" x2="33.6161" y2="78.1163" gradientUnits="userSpaceOnUse">
<stop stop-color="#FFC444"/>
<stop offset="0.996" stop-color="#F36F56"/>
</linearGradient>
<linearGradient id="paint51_linear_1128_1178" x1="106.807" y1="106.356" x2="23.3123" y2="50.6595" gradientUnits="userSpaceOnUse">
<stop stop-color="#311944"/>
<stop offset="1" stop-color="#6B3976"/>
</linearGradient>
<linearGradient id="paint52_linear_1128_1178" x1="63.8022" y1="56.9382" x2="99.7436" y2="99.7419" gradientUnits="userSpaceOnUse">
<stop stop-color="#AA80F9"/>
<stop offset="0.996" stop-color="#6165D7"/>
</linearGradient>
<linearGradient id="paint53_linear_1128_1178" x1="83.6543" y1="98.9979" x2="21.5878" y2="57.5951" gradientUnits="userSpaceOnUse">
<stop stop-color="#311944"/>
<stop offset="1" stop-color="#6B3976"/>
</linearGradient>
<linearGradient id="paint54_linear_1128_1178" x1="51.3808" y1="77.7861" x2="34.0813" y2="88.6415" gradientUnits="userSpaceOnUse">
<stop stop-color="#FFC444"/>
<stop offset="0.996" stop-color="#F36F56"/>
</linearGradient>
<linearGradient id="paint55_linear_1128_1178" x1="11.944" y1="75.7892" x2="44.1218" y2="86.0088" gradientUnits="userSpaceOnUse">
<stop stop-color="#FF9085"/>
<stop offset="1" stop-color="#FB6FBB"/>
</linearGradient>
<linearGradient id="paint56_linear_1128_1178" x1="26.1162" y1="87.393" x2="33.4583" y2="96.6056" gradientUnits="userSpaceOnUse">
<stop stop-color="#FFC444"/>
<stop offset="0.996" stop-color="#F36F56"/>
</linearGradient>
<linearGradient id="paint57_linear_1128_1178" x1="17.0691" y1="81.2798" x2="7.79715" y2="88.5469" gradientUnits="userSpaceOnUse">
<stop stop-color="#FFC444"/>
<stop offset="0.996" stop-color="#F36F56"/>
</linearGradient>
<linearGradient id="paint58_linear_1128_1178" x1="24.5019" y1="90.1953" x2="5.0433" y2="111.406" gradientUnits="userSpaceOnUse">
<stop stop-color="#AA80F9"/>
<stop offset="0.996" stop-color="#6165D7"/>
</linearGradient>
</defs>
</svg>
