<svg width="50" height="50" viewBox="0 0 13 13" fill="none" xmlns="http://www.w3.org/2000/svg">
    <g clip-path="url(#clip0_175_882)">
        <path fill-rule="evenodd" clip-rule="evenodd"
            d="M8.82647 1.45215C9.03287 1.45215 9.20038 1.61966 9.20038 1.82606L9.20061 2.24874C9.92854 2.29865 10.5331 2.54799 10.961 2.97677C11.4282 3.4459 11.6739 4.12044 11.6715 4.92959V9.47787C11.6715 11.139 10.6165 12.171 8.91895 12.171H4.70221C3.00464 12.171 1.94971 11.1246 1.94971 9.43998V4.92859C1.94971 3.36174 2.8905 2.35599 4.42485 2.24891L4.42516 1.82606C4.42516 1.61966 4.59267 1.45215 4.79907 1.45215C5.00547 1.45215 5.17299 1.61966 5.17299 1.82606L5.17284 2.23936H8.4523L8.45255 1.82606C8.45255 1.61966 8.62007 1.45215 8.82647 1.45215ZM10.9236 5.89124H2.69753V9.43998C2.69753 10.7193 3.40946 11.4232 4.70221 11.4232H8.91895C10.2117 11.4232 10.9236 10.7322 10.9236 9.47787L10.9236 5.89124ZM9.02972 9.02828C9.23612 9.02828 9.40364 9.19579 9.40364 9.40219C9.40364 9.60859 9.23612 9.7761 9.02972 9.7761C8.82332 9.7761 8.65382 9.60859 8.65382 9.40219C8.65382 9.19579 8.81884 9.02828 9.02524 9.02828H9.02972ZM6.81741 9.02828C7.02381 9.02828 7.19132 9.19579 7.19132 9.40219C7.19132 9.60859 7.02381 9.7761 6.81741 9.7761C6.61101 9.7761 6.4415 9.60859 6.4415 9.40219C6.4415 9.19579 6.60652 9.02828 6.81292 9.02828H6.81741ZM4.60045 9.02828C4.80685 9.02828 4.97436 9.19579 4.97436 9.40219C4.97436 9.60859 4.80685 9.7761 4.60045 9.7761C4.39405 9.7761 4.22405 9.60859 4.22405 9.40219C4.22405 9.19579 4.38956 9.02828 4.59596 9.02828H4.60045ZM9.02972 7.09056C9.23612 7.09056 9.40364 7.25807 9.40364 7.46447C9.40364 7.67087 9.23612 7.83838 9.02972 7.83838C8.82332 7.83838 8.65382 7.67087 8.65382 7.46447C8.65382 7.25807 8.81884 7.09056 9.02524 7.09056H9.02972ZM6.81741 7.09056C7.02381 7.09056 7.19132 7.25807 7.19132 7.46447C7.19132 7.67087 7.02381 7.83838 6.81741 7.83838C6.61101 7.83838 6.4415 7.67087 6.4415 7.46447C6.4415 7.25807 6.60652 7.09056 6.81292 7.09056H6.81741ZM4.60045 7.09056C4.80685 7.09056 4.97436 7.25807 4.97436 7.46447C4.97436 7.67087 4.80685 7.83838 4.60045 7.83838C4.39405 7.83838 4.22405 7.67087 4.22405 7.46447C4.22405 7.25807 4.38956 7.09056 4.59596 7.09056H4.60045ZM8.4523 2.98719H5.17284L5.17299 3.46679C5.17299 3.67319 5.00547 3.8407 4.79907 3.8407C4.59267 3.8407 4.42516 3.67319 4.42516 3.46679L4.4249 2.9985C3.30803 3.09233 2.69753 3.76934 2.69753 4.92859V5.14342H10.9236L10.9236 4.92859C10.9256 4.31288 10.7601 3.83427 10.4315 3.50523C10.1431 3.21598 9.72154 3.04322 9.2008 2.99874L9.20038 3.46679C9.20038 3.67319 9.03287 3.8407 8.82647 3.8407C8.62007 3.8407 8.45255 3.67319 8.45255 3.46679L8.4523 2.98719Z"
            fill="white" />
    </g>
    <defs>
        <clipPath id="clip0_175_882">
            <rect width="11.9652" height="11.9652" fill="white"
                transform="translate(0.953857 0.953613)" />
        </clipPath>
    </defs>
</svg>
