<svg width="325" height="254" viewBox="0 0 325 254" fill="none" xmlns="http://www.w3.org/2000/svg">
<path d="M325 215.042H0V215.206H325V215.042Z" fill="#EBEBEB"/>
<path d="M292.435 225.61H270.907V225.775H292.435V225.61Z" fill="#EBEBEB"/>
<path d="M215.293 227.396H209.645V227.561H215.293V227.396Z" fill="#EBEBEB"/>
<path d="M270.257 219.515H257.784V219.679H270.257V219.515Z" fill="#EBEBEB"/>
<path d="M62.1726 220.618H34.0991V220.782H62.1726V220.618Z" fill="#EBEBEB"/>
<path d="M72.0784 220.618H67.9639V220.782H72.0784V220.618Z" fill="#EBEBEB"/>
<path d="M146.348 223.391H85.4556V223.555H146.348V223.391Z" fill="#EBEBEB"/>
<path d="M154.05 185.748H28.5419C27.5587 185.746 26.6163 185.35 25.9217 184.647C25.2271 183.944 24.8369 182.991 24.8369 181.998V3.71759C24.8455 2.72975 25.2394 1.78522 25.9331 1.08915C26.6268 0.393078 27.5643 0.00169222 28.5419 0H154.05C155.035 0 155.979 0.395133 156.675 1.09847C157.371 1.80182 157.762 2.75575 157.762 3.75043V181.998C157.762 182.992 157.371 183.946 156.675 184.649C155.979 185.353 155.035 185.748 154.05 185.748ZM28.5419 0.131364C27.6018 0.133104 26.7008 0.511703 26.0366 1.18406C25.3724 1.85642 24.9994 2.7676 24.9994 3.71759V181.998C24.9994 182.948 25.3724 183.859 26.0366 184.531C26.7008 185.203 27.6018 185.582 28.5419 185.584H154.05C154.991 185.582 155.893 185.204 156.558 184.531C157.223 183.859 157.598 182.948 157.599 181.998V3.71759C157.598 2.76699 157.223 1.85583 156.558 1.18366C155.893 0.51149 154.991 0.1331 154.05 0.131364H28.5419Z" fill="#EBEBEB"/>
<path d="M294.652 185.748H169.137C168.153 185.746 167.21 185.351 166.514 184.648C165.819 183.945 165.427 182.992 165.425 181.998V3.71759C165.436 2.72915 165.831 1.78462 166.526 1.08874C167.22 0.392848 168.159 0.00167376 169.137 0H294.652C295.628 0.0034184 296.564 0.395568 297.256 1.09145C297.949 1.78734 298.342 2.73088 298.35 3.71759V181.998C298.35 182.99 297.961 183.942 297.268 184.645C296.575 185.348 295.634 185.744 294.652 185.748ZM169.137 0.131364C168.196 0.1331 167.294 0.51149 166.629 1.18366C165.964 1.85583 165.59 2.76699 165.588 3.71759V181.998C165.59 182.948 165.964 183.859 166.629 184.531C167.294 185.204 168.196 185.582 169.137 185.584H294.652C295.593 185.582 296.494 185.204 297.159 184.531C297.825 183.859 298.199 182.948 298.201 181.998V3.71759C298.199 2.76699 297.825 1.85583 297.159 1.18366C296.494 0.51149 295.593 0.1331 294.652 0.131364H169.137Z" fill="#EBEBEB"/>
<path d="M235.878 213.774H28.3203C28.3203 213.774 34.7228 203.81 40.0593 195.823C43.4393 190.772 46.3838 186.509 47.0208 186.05C48.6588 184.867 52.8708 184.158 54.7363 179.777C56.6018 175.396 56.6018 173.531 59.2863 168.572C61.9708 163.613 72.2863 150.181 73.3588 150.181C74.4313 150.181 83.7588 135.508 87.2883 134.325C90.8178 133.143 91.1883 129.603 95.0168 124.289C98.8453 118.975 111.54 101.957 116.915 101.57C122.291 101.182 135.453 126.752 140.543 128.657C145.632 130.562 151.274 122.279 153.075 124.289C154.875 126.299 158.522 133.852 162.233 139.994C165.945 146.135 169.689 148.966 170.033 151.291C170.378 153.616 177.931 157.708 181.701 157.708C183.001 157.708 185.737 160.572 188.851 164.368C194.915 171.784 202.267 182.759 202.267 182.759C203.274 184.237 205.036 182.05 208.071 183.225C211.107 184.401 235.878 213.774 235.878 213.774Z" fill="#F0F0F0"/>
<path d="M235.878 213.774H28.3203C28.3203 213.774 34.7228 203.81 40.0593 195.823C43.1533 192.375 45.6363 189.794 46.5593 189.255C49.9458 187.285 52.5718 182.812 54.6128 182.24C56.2192 181.663 57.7261 180.834 59.0783 179.784C59.0783 179.784 62.2438 169.767 62.9783 168.001C63.7128 166.234 73.2678 155.219 75.4063 154.437C77.5448 153.656 78.9293 156.257 80.2033 157.675C81.4773 159.094 91.2533 176.782 91.2533 176.782L97.4478 172.625C97.4478 172.625 101.049 167.948 102.42 165.61C103.792 163.272 105.118 163.79 105.118 163.79C105.118 163.79 111.618 156.257 111.93 154.227C112.242 152.198 116.22 153.137 116.48 153.137C116.74 153.137 123.188 156.257 123.188 156.257C123.188 156.257 116.447 147.685 113.6 149.997C110.753 152.309 94.5943 168.001 94.5943 168.001L85.3838 156.257L89.7063 149.997C89.7063 149.997 95.6213 142.483 96.1348 141.459C96.6483 140.434 106.678 126.129 106.834 125.347C106.99 124.565 115.42 117.813 116.48 118.326C117.539 118.838 119.795 120.414 122.33 123.803C124.865 127.193 125.97 129.248 128.609 133.616C131.248 137.984 133.425 139.12 134.296 140.217C135.167 141.314 144.794 151.777 145.093 152.106L137.78 140.217C137.78 140.217 141.401 136.782 143.741 134.444C146.081 132.106 146.802 135.225 149.87 137.564C152.938 139.902 153.484 141.459 155.798 145.058C158.112 148.657 169.071 161.478 169.071 161.478C169.071 161.478 167.368 164.336 165.522 167.232C163.676 170.129 162.5 174.779 162.5 174.779L165.75 172.881C165.75 172.881 172.607 166.122 173.803 164.388C174.999 162.654 178.262 159.37 181.109 159.626C183.852 159.882 188.519 164.073 188.851 164.368C194.915 171.784 202.267 182.759 202.267 182.759C203.274 184.237 205.036 182.05 208.071 183.226C211.107 184.401 235.878 213.774 235.878 213.774Z" fill="#E6E6E6"/>
<path d="M65.1236 60.3023C76.1013 60.3023 85.0006 51.3097 85.0006 40.2168C85.0006 29.1239 76.1013 20.1313 65.1236 20.1313C54.1458 20.1313 45.2466 29.1239 45.2466 40.2168C45.2466 51.3097 54.1458 60.3023 65.1236 60.3023Z" fill="#F5F5F5"/>
<path d="M54.6323 65.4845C54.6333 64.5822 54.8428 63.6926 55.2442 62.8865C55.6456 62.0805 56.2278 61.3804 56.9444 60.842C57.6609 60.3035 58.4921 59.9417 59.3715 59.7853C60.251 59.6288 61.1544 59.6822 62.0098 59.941C61.7557 58.1982 61.8764 56.4206 62.3636 54.7292C62.8508 53.0378 63.6931 51.4724 64.8331 50.1397C65.9731 48.807 67.384 47.7382 68.9697 47.0063C70.5553 46.2744 72.2785 45.8964 74.0218 45.8982C74.7718 45.9015 75.5201 45.9719 76.2578 46.1084C77.4525 44.1203 79.255 42.579 81.393 41.7175C83.5311 40.856 85.8885 40.7211 88.1092 41.333C90.3299 41.945 92.2931 43.2707 93.7023 45.1098C95.1115 46.9489 95.89 49.2014 95.9203 51.5272H96.1023C98.6951 51.5272 101.182 52.5679 103.015 54.4205C104.848 56.2731 105.878 58.7858 105.878 61.4057C105.878 64.0257 104.848 66.5383 103.015 68.3909C101.182 70.2435 98.6951 71.2842 96.1023 71.2842H60.2028C58.709 71.2431 57.2903 70.6135 56.2495 69.5299C55.2088 68.4464 54.6284 66.9946 54.6323 65.4845Z" fill="#EBEBEB"/>
<path d="M122.648 29.8326C122.648 28.8519 123.034 27.9113 123.72 27.2178C124.407 26.5243 125.337 26.1347 126.308 26.1347C126.665 26.1327 127.02 26.1858 127.361 26.2924C127.307 25.916 127.278 25.5364 127.276 25.1561C127.276 23.0796 128.093 21.0882 129.546 19.62C130.999 18.1517 132.97 17.3268 135.024 17.3268C135.504 17.327 135.983 17.371 136.454 17.4582C137.218 16.1898 138.37 15.2069 139.735 14.6578C141.1 14.1086 142.605 14.0229 144.023 14.4136C145.44 14.8043 146.693 15.6503 147.594 16.8239C148.494 17.9975 148.992 19.435 149.012 20.9196H149.123C149.96 20.8923 150.793 21.0353 151.575 21.3401C152.356 21.6448 153.068 22.1051 153.67 22.6937C154.271 23.2822 154.749 23.9869 155.076 24.7659C155.403 25.5449 155.571 26.3823 155.571 27.2283C155.571 28.0744 155.403 28.9118 155.076 29.6908C154.749 30.4698 154.271 31.1745 153.67 31.763C153.068 32.3515 152.356 32.8118 151.575 33.1166C150.793 33.4214 149.96 33.5644 149.123 33.5371H126.204C125.25 33.5097 124.345 33.1071 123.681 32.4152C123.017 31.7232 122.646 30.7966 122.648 29.8326Z" fill="#EBEBEB"/>
<path d="M233.805 91.1537C233.804 90.8559 233.862 90.5608 233.974 90.2855C234.087 90.0102 234.252 89.7601 234.46 89.5495C234.669 89.3389 234.916 89.172 235.189 89.0584C235.461 88.9448 235.753 88.8868 236.048 88.8877C236.268 88.8866 236.487 88.9198 236.698 88.9862C236.664 88.7557 236.647 88.523 236.646 88.29C236.645 87.6598 236.767 87.0356 237.005 86.4531C237.243 85.8706 237.592 85.3413 238.033 84.8953C238.474 84.4494 238.997 84.0956 239.573 83.8543C240.149 83.6129 240.767 83.4887 241.391 83.4887C241.685 83.4904 241.979 83.519 242.268 83.574C242.736 82.7971 243.441 82.195 244.277 81.8587C245.113 81.5223 246.035 81.47 246.903 81.7095C247.772 81.949 248.539 82.4675 249.09 83.1865C249.641 83.9056 249.946 84.7862 249.958 85.6956H250.029C251.016 85.7367 251.95 86.1619 252.634 86.8823C253.318 87.6027 253.7 88.5625 253.7 89.5609C253.7 90.5594 253.318 91.5191 252.634 92.2395C251.95 92.9599 251.016 93.3852 250.029 93.4263H235.989C235.403 93.4125 234.846 93.1666 234.437 92.7415C234.029 92.3165 233.802 91.7462 233.805 91.1537Z" fill="#EBEBEB"/>
<path d="M255.034 38.0952C255.036 37.4948 255.273 36.9194 255.693 36.4948C256.113 36.0702 256.683 35.8309 257.277 35.8292C257.497 35.8276 257.716 35.8608 257.927 35.9277C257.893 35.6972 257.876 35.4645 257.875 35.2315C257.875 33.9599 258.375 32.7403 259.265 31.8411C260.154 30.9419 261.361 30.4367 262.62 30.4367C262.914 30.4363 263.208 30.4627 263.497 30.5156C263.967 29.7402 264.672 29.1399 265.508 28.8047C266.345 28.4694 267.266 28.4175 268.133 28.6568C269.001 28.896 269.769 29.4134 270.32 30.1311C270.872 30.8489 271.178 31.7283 271.193 32.6371H271.258C272.245 32.6782 273.179 33.1034 273.863 33.8238C274.547 34.5442 274.929 35.504 274.929 36.5024C274.929 37.5009 274.547 38.4607 273.863 39.1811C273.179 39.9015 272.245 40.3267 271.258 40.3678H257.218C256.632 40.3541 256.075 40.1081 255.666 39.6831C255.258 39.258 255.031 38.6878 255.034 38.0952Z" fill="#EBEBEB"/>
<path d="M290.265 213.767H73.353C73.353 213.767 80.2105 198.358 83.714 199.816C87.2175 201.275 98.287 192.027 99.886 188.296C101.485 184.565 107.036 189.518 114.498 187.941C121.96 186.365 132.88 162.115 136.254 163.37C139.627 164.624 149.397 187.304 151.717 188.151C154.038 188.999 156.267 181.642 159.517 181.012C162.767 180.381 165.315 186.05 165.946 187.626C166.576 189.202 169.709 194.24 169.709 194.24C169.709 194.24 174.669 192.664 176.242 191.403C177.815 190.142 185.576 174.398 187.214 172.158C188.852 169.918 192.121 168.099 197.061 169.045C202.001 169.99 203.964 161.163 209.411 155.797C214.858 150.43 217.66 152.348 219.551 152.092C221.443 151.836 231.687 134.404 234.176 135.882C236.666 137.36 247.885 158.647 249.906 161.169C251.928 163.692 256.614 159.6 257.167 161.169C257.719 162.739 266.416 175.028 266.416 175.028C266.416 175.028 270.316 174.713 272.676 176.605C273.072 176.92 273.833 178.187 274.827 180.073L275.029 180.453C280.008 190.03 290.265 213.767 290.265 213.767Z" fill="#EBEBEB"/>
<path d="M290.264 213.767H186.427C183.32 209.169 178.217 201.537 178.38 200.999C178.614 200.224 188.195 181.091 192.758 178.49C197.321 175.889 200.727 178.017 200.727 178.017L197.041 188.145C197.314 187.784 205.998 176.48 208.306 174.779C210.613 173.077 209.801 171.639 209.404 170.93C209.008 170.22 203.905 172.059 203.632 172.151C204.029 171.744 214.182 161.36 216.015 160.368C217.848 159.376 221.579 159.363 221.579 159.363C221.579 159.363 228.397 150.26 230.737 146.884C233.077 143.507 239.031 148.506 240.143 152.394C241.254 156.283 245.232 160.276 245.232 160.276L248.04 168.309C248.04 168.309 239.506 161.931 237.926 162.398C236.192 162.769 234.432 163.006 232.661 163.107C232.661 163.107 230.971 158.148 228.872 157.432C226.772 156.716 222.326 160.059 219.05 164.519C214.929 170.174 224.666 158.148 229.34 164.519C234.013 170.89 234.793 168.775 237.205 167.146C239.616 165.517 248.027 178.719 249.899 180.611C251.771 182.503 255.398 176.125 255.398 176.125C255.398 176.125 251.778 179.409 252.246 177.064C252.714 174.719 252.896 166.332 256.406 165.971C259.916 165.609 263.439 175.889 263.439 175.889L259.721 180.959L269.75 176.834L274.794 180.072L274.996 180.453C280.007 190.03 290.264 213.767 290.264 213.767Z" fill="#E0E0E0"/>
<path d="M76.6611 213.767C78.0131 211.462 79.1961 209.209 78.9166 208.808C78.3186 207.942 84.8901 205.183 86.3396 204.296C87.7891 203.409 89.3231 202.818 93.0931 203.042C96.8631 203.265 95.6346 203.528 96.6421 204.296C97.6496 205.065 97.8251 210.588 97.8251 210.588C97.8251 210.588 99.8401 206.838 99.8856 204.296C99.9311 201.754 96.6356 199.817 96.6356 199.817C96.6356 199.817 97.5001 198.326 98.2671 197.275C99.0341 196.224 102.642 190.779 104.982 190.05C107.322 189.321 111.521 191.232 113.399 192.408C115.278 193.583 115.265 193.59 116.903 194.536C118.541 195.482 118.073 196.427 118.775 199.79C119.477 203.153 120.64 199.482 122.675 200.973C124.709 202.464 126.854 205.787 126.854 205.787C126.854 205.787 126.25 201.61 124.787 199.79C123.325 197.971 122.675 193.111 122.675 193.111L124.787 188.125C124.787 188.125 129.526 179.882 132.353 176.106C135.181 172.329 135.135 173.977 138.45 177.288C141.765 180.598 141.44 180.119 143.358 183.987C145.275 187.856 151.45 197.275 151.45 197.275L151.262 193.603C151.262 193.603 155.487 189.124 157.359 190.536C159.231 191.948 160.609 195.028 160.609 195.028L158.496 197.275C158.496 197.275 155.935 202.345 154.85 203.042C153.764 203.738 157.573 202.109 160.609 200.999C163.644 199.889 165.984 195.968 167.863 197.275C169.221 198.221 177.346 208.336 181.675 213.767H76.6611Z" fill="#E0E0E0"/>
<path d="M70.3301 108.638C70.3301 108.638 70.1286 106.299 69.5826 105.932C68.3115 105.429 67.0086 105.012 65.6826 104.684C65.6826 104.684 66.9826 108.283 67.7951 108.697C68.6076 109.111 70.3301 108.638 70.3301 108.638Z" fill="#9759C4"/>
<path opacity="0.5" d="M65.7153 104.684C65.7543 104.795 67.0153 108.29 67.8278 108.697C68.355 108.888 68.9246 108.927 69.4723 108.808C69.762 108.769 70.0486 108.71 70.3303 108.631C70.3303 108.631 70.1223 106.299 69.5828 105.932C68.3309 105.426 67.045 105.011 65.7348 104.69L65.7153 104.684Z" fill="white"/>
<path opacity="0.2" d="M65.7153 104.684C65.7543 104.795 67.0153 108.29 67.8278 108.697C68.355 108.888 68.9246 108.927 69.4723 108.808C70.2328 108.296 68.6208 107.731 68.3868 107.547C68.1528 107.363 68.2958 107.186 68.3868 107.055C68.4778 106.923 68.1788 106.615 67.8408 106.483C67.7662 106.456 67.6976 106.414 67.6392 106.36C67.5807 106.306 67.5334 106.241 67.5002 106.168C67.4669 106.095 67.4483 106.017 67.4454 105.937C67.4425 105.857 67.4554 105.777 67.4833 105.702C67.5548 105.334 65.9493 104.762 65.7478 104.69L65.7153 104.684Z" fill="black"/>
<path d="M72.0264 107.232C71.2724 107.232 69.5564 108.066 68.9909 108.105C68.4254 108.145 65.6109 106.187 65.0064 105.866C64.4019 105.544 59.0979 104.821 59.0979 104.821C59.0979 104.821 62.6209 108.46 65.0064 108.565C64.2665 108.794 63.4987 108.918 62.7249 108.933C61.0898 108.589 59.4226 108.424 57.7524 108.44L61.0024 109.518L58.1489 109.885C59.4786 110.126 60.8349 110.179 62.1789 110.043C63.2048 110.421 64.259 110.715 65.3314 110.923C66.0695 111.117 66.8418 111.138 67.589 110.983C68.3361 110.828 69.0381 110.502 69.6409 110.03C70.6744 109.189 74.0804 108.237 74.0804 108.237L72.9169 107.816C72.8353 107.646 72.7092 107.502 72.5523 107.399C72.3953 107.296 72.2135 107.238 72.0264 107.232Z" fill="#9759C4"/>
<path opacity="0.6" d="M61.022 109.518L58.1685 109.892C59.4987 110.128 60.8546 110.178 62.1985 110.043C63.0253 110.35 63.8723 110.598 64.7335 110.785L65.3835 110.923C66.1216 111.117 66.8939 111.138 67.641 110.983C68.3881 110.828 69.0901 110.502 69.693 110.03C70.3259 109.604 71.0123 109.266 71.734 109.025L72.1175 108.88C72.2085 108.848 72.306 108.808 72.4035 108.782C72.618 108.703 72.826 108.637 73.0145 108.578C73.6645 108.368 74.126 108.237 74.126 108.237L72.9625 107.816C72.8793 107.643 72.7502 107.497 72.5895 107.394C72.4288 107.29 72.2429 107.234 72.0525 107.232C71.3177 107.337 70.6005 107.542 69.9205 107.843C69.63 107.964 69.3269 108.052 69.017 108.105C68.4515 108.151 65.637 106.187 65.0325 105.866C64.039 105.576 63.0238 105.37 61.997 105.248C60.5475 105.012 59.124 104.821 59.124 104.821C59.124 104.821 61.5615 107.343 63.7585 108.25C64.1221 108.404 64.5048 108.508 64.896 108.559H65C64.2692 108.788 63.5096 108.91 62.7445 108.92C62.3636 108.821 61.9772 108.744 61.5875 108.69C60.3232 108.514 59.0482 108.428 57.772 108.434L61.022 109.518Z" fill="white"/>
<path opacity="0.2" d="M69.8945 107.843C70.2482 107.808 70.6037 107.889 70.9085 108.073C71.1295 108.316 71.3375 108.828 71.7015 109.026L72.085 108.881C72.176 108.848 72.2735 108.809 72.371 108.783C72.5855 108.704 72.7935 108.638 72.982 108.579C73.0033 108.324 72.9857 108.067 72.93 107.817C72.8469 107.644 72.7178 107.498 72.5571 107.394C72.3964 107.291 72.2104 107.235 72.02 107.232C71.2875 107.338 70.5725 107.544 69.8945 107.843Z" fill="black"/>
<path opacity="0.2" d="M59.0981 104.821C59.0981 104.821 61.5356 107.343 63.7326 108.25C64.104 108.38 64.4841 108.483 64.8701 108.559H64.9806C66.7551 108.841 66.9306 108.559 66.9306 108.559C66.9306 108.559 66.3261 108.381 66.2806 108.381C66.2351 108.381 66.5341 108.184 66.1441 108.04C65.7541 107.895 65.8191 107.698 65.8191 107.698C65.4337 107.579 65.0629 107.416 64.7141 107.212C64.6751 107.094 64.8506 106.897 64.3696 106.798C63.8886 106.7 64.3696 106.45 63.5961 106.174C62.8226 105.898 63.0501 105.747 63.0501 105.747C62.6482 105.689 62.2726 105.51 61.9711 105.235C60.5216 105.012 59.0981 104.821 59.0981 104.821Z" fill="black"/>
<path opacity="0.2" d="M61.0221 109.517L58.1686 109.892C59.4988 110.127 60.8547 110.178 62.1986 110.043C63.0254 110.35 63.8724 110.598 64.7336 110.785C65.0651 110.608 64.1356 110.312 63.7261 110.128C63.2061 109.852 63.2841 109.918 63.4791 109.78C63.6741 109.642 63.4791 109.603 62.8291 109.465C62.1791 109.327 62.3676 109.189 62.0036 108.906C61.8604 108.822 61.7045 108.762 61.5421 108.729C60.2778 108.553 59.0028 108.467 57.7266 108.473L61.0221 109.517Z" fill="black"/>
<path d="M72.9365 107.816L72.605 108.053L72.8065 108.637L74.1 108.237L72.9365 107.816Z" fill="#9759C4"/>
<path d="M233.72 25.4975C232.342 24.6305 226.7 30.752 224.022 31.5533C225.915 32.2046 227.963 32.2322 229.872 31.6321C232.849 30.5878 235.17 26.4104 233.72 25.4975Z" fill="#9759C4"/>
<path opacity="0.4" d="M224.022 31.5275C225.915 32.1788 227.963 32.2064 229.872 31.6063C232.823 30.5619 235.15 26.3517 233.694 25.4716C233.369 25.268 232.804 25.4716 232.095 25.8723C229.84 27.2384 226.063 30.9626 224.022 31.5275Z" fill="white"/>
<path opacity="0.2" d="M224.022 31.5273C224.022 31.5273 226.434 31.79 226.765 31.4222C226.936 31.2357 227.147 31.0909 227.381 30.9987C227.615 30.9066 227.867 30.8694 228.117 30.8902C228.767 30.8902 229.053 30.5486 228.936 29.8655C228.819 29.1824 229.775 29.5437 230.347 29.3138C230.919 29.0839 230.282 28.8803 230.269 28.4008C230.256 27.9213 231.406 27.8688 231.478 27.4813C231.549 27.0937 231.088 27.1857 231.335 26.785C231.582 26.3844 232.42 26.2465 232.121 25.8721C229.84 27.2383 226.063 30.9624 224.022 31.5273Z" fill="black"/>
<path d="M238.173 24.3025C236.788 23.9938 233.337 24.9593 232.277 24.8411C231.328 24.736 224.783 24.2894 224.783 24.2894C224.783 24.2894 221.357 24.585 220.454 24.158C216.859 22.4634 211.464 21.5308 211.464 21.5308L217.119 24.6638L211.744 24.3485C211.744 24.3485 214.058 25.4191 219.108 26.0497C220.867 27.1095 222.709 28.0233 224.614 28.782C228.819 30.5554 231.855 29.1958 232.856 28.6572C235.04 27.4684 241.637 26.9035 241.637 26.9035L239.648 25.7278C239.561 25.3736 239.376 25.0517 239.115 24.7994C238.854 24.5472 238.527 24.3749 238.173 24.3025Z" fill="#9759C4"/>
<path opacity="0.6" d="M217.101 24.6506L211.738 24.3025C211.738 24.3025 214.059 25.3797 219.109 26.0102C219.109 26.0102 219.194 26.0693 219.376 26.1744C220.717 26.951 222.101 27.6484 223.523 28.2631C223.861 28.4207 224.225 28.5718 224.608 28.736C225.94 29.3171 227.375 29.6187 228.827 29.6227C230.229 29.6169 231.609 29.27 232.85 28.6112C234.16 28.0455 235.54 27.6611 236.952 27.4683L237.712 27.3435L238.271 27.2582L239.467 27.1005C240.722 26.9429 241.632 26.8641 241.632 26.8641L239.643 25.6818C239.544 25.339 239.356 25.0296 239.097 24.7867C238.838 24.5438 238.519 24.3764 238.174 24.3025C237.264 24.1054 235.463 24.447 234.04 24.6769C233.46 24.7981 232.87 24.8554 232.278 24.8476C231.219 24.7294 224.699 24.2762 224.784 24.2959H224.732C224.296 24.2959 221.287 24.5521 220.455 24.158C219.805 23.8624 219.122 23.58 218.414 23.3304C216.147 22.5606 213.829 21.9548 211.478 21.5176L217.101 24.6506Z" fill="white"/>
<path opacity="0.2" d="M234.039 24.6895C234.689 24.8209 235.573 25.0639 235.82 25.4645C236.152 25.99 236.353 27.0081 236.958 27.5007C237.211 27.4547 237.465 27.4087 237.712 27.3759L238.277 27.2905C238.693 27.2248 239.103 27.1723 239.473 27.1263C239.601 26.6649 239.658 26.1864 239.642 25.7076C239.553 25.3575 239.367 25.04 239.108 24.7914C238.848 24.5428 238.524 24.3732 238.173 24.302C237.25 24.1115 235.463 24.4596 234.039 24.6895Z" fill="black"/>
<path opacity="0.2" d="M217.1 24.6504L211.731 24.3351C211.731 24.3351 214.045 25.4057 219.095 26.0363C220.511 26.8961 221.986 27.6513 223.509 28.2957C224.159 28.0855 222.56 27.2185 221.89 26.6865C221.019 26.0297 221.143 26.1282 221.546 25.9509C221.949 25.7735 221.546 25.6159 220.512 25.1496C219.479 24.6832 219.758 24.4927 219.173 23.8359C218.943 23.6307 218.682 23.4643 218.4 23.3433C216.134 22.5696 213.816 21.9615 211.464 21.5239L217.1 24.6504Z" fill="black"/>
<path d="M239.648 25.708L238.959 26.0364L239.122 27.1727L241.637 26.8903L239.648 25.708Z" fill="#9759C4"/>
<path opacity="0.3" d="M219.375 26.2004C220.716 26.977 222.101 27.6744 223.522 28.2891C223.86 28.4467 224.224 28.5978 224.607 28.762C225.94 29.3431 227.375 29.6447 228.826 29.6487C229.619 28.839 230.278 27.9053 230.776 26.8835C230.776 26.8835 230.393 25.7144 228.378 24.9853C227.026 24.5124 222.398 25.4779 219.375 26.2004Z" fill="black"/>
<path d="M230.711 24.9066C228.196 23.593 213.811 29.3796 207.909 29.6489C211.87 30.9033 216.027 31.4044 220.168 31.1267C226.772 30.6078 233.35 26.3057 230.711 24.9066Z" fill="#9759C4"/>
<path opacity="0.6" d="M207.909 29.6488C211.87 30.9032 216.027 31.4043 220.168 31.1266C226.766 30.6077 233.37 26.3056 230.711 24.9065C230.12 24.5913 228.859 24.6767 227.208 24.9919C221.878 26.01 212.427 29.4451 207.909 29.6488Z" fill="white"/>
<path opacity="0.2" d="M207.909 29.6485C207.909 29.6485 212.843 30.5221 213.694 30.174C214.667 29.806 215.718 29.7019 216.743 29.8719C218.153 30.0032 218.842 29.6945 218.881 28.8735C218.92 28.0525 220.766 28.7027 222.053 28.5714C223.34 28.44 222.099 28.0525 222.268 27.4942C222.437 26.9359 224.868 27.1395 225.18 26.706C225.492 26.2725 224.497 26.2725 225.18 25.8718C225.862 25.4712 227.669 25.4974 227.208 24.9917C221.878 26.0098 212.427 29.4449 207.909 29.6485Z" fill="black"/>
<path d="M214.701 226.018H306.8C306.8 226.018 305.643 223.43 294.073 224.704C288.704 225.302 287.261 223.601 283.913 222.918C280.566 222.235 278.258 224.888 272.863 224.461C267.468 224.034 266.695 219.863 262.58 219.377C257.803 218.819 258.719 222.602 254.351 223.069C249.983 223.535 249.08 219.863 244.835 219.863C240.35 219.863 237.744 225.308 228.689 222.865C219.635 220.422 214.701 226.018 214.701 226.018Z" fill="#9759C4"/>
<path opacity="0.7" d="M214.701 226.018H306.8C306.8 226.018 305.643 223.43 294.073 224.704C288.704 225.302 287.261 223.601 283.913 222.918C280.566 222.235 278.258 224.888 272.863 224.461C267.468 224.034 266.695 219.863 262.58 219.377C257.803 218.819 258.719 222.602 254.351 223.069C249.983 223.535 249.08 219.863 244.835 219.863C240.35 219.863 237.744 225.308 228.689 222.865C219.635 220.422 214.701 226.018 214.701 226.018Z" fill="white"/>
<path d="M16.1196 226.018H108.225C108.225 226.018 107.068 223.43 95.4976 224.704C90.1286 225.302 88.6856 223.601 85.3446 222.918C82.0036 222.235 79.6831 224.888 74.2946 224.461C68.9061 224.034 68.1261 219.863 64.0116 219.377C59.2406 218.819 60.1571 222.602 55.7826 223.069C51.4081 223.535 50.5111 219.863 46.2666 219.863C41.7881 219.863 39.1751 225.308 30.1206 222.865C21.0661 220.422 16.1196 226.018 16.1196 226.018Z" fill="#9759C4"/>
<path opacity="0.7" d="M16.1196 226.018H108.225C108.225 226.018 107.068 223.43 95.4976 224.704C90.1286 225.302 88.6856 223.601 85.3446 222.918C82.0036 222.235 79.6831 224.888 74.2946 224.461C68.9061 224.034 68.1261 219.863 64.0116 219.377C59.2406 218.819 60.1571 222.602 55.7826 223.069C51.4081 223.535 50.5111 219.863 46.2666 219.863C41.7881 219.863 39.1751 225.308 30.1206 222.865C21.0661 220.422 16.1196 226.018 16.1196 226.018Z" fill="white"/>
<path d="M244.895 140.197L163.417 148.375C180.967 100.999 150.697 55.3891 150.697 55.3891C197.575 60.8407 233.702 49.2151 234.365 49.0049C266.28 78.9492 244.895 140.197 244.895 140.197Z" fill="#9759C4"/>
<path opacity="0.2" d="M243.666 139.146C243.666 139.146 251.667 91.1988 237.094 57.5961C237.094 57.5961 248.307 102.516 232.772 133.432C213.584 127.475 189.605 136.5 189.605 136.5C204.685 133.458 220.253 137.36 220.955 137.537C195.605 133.938 168.071 145.078 167.707 145.222C168.006 144.848 178.269 131.711 176.495 106.017C174.72 80.3219 156.254 60.9852 155.695 60.3875C175.754 73.6355 202.943 68.0066 202.943 68.0066C179.056 71.4418 157.573 57.977 156.982 57.6026C157.632 57.8391 184.756 67.3235 206.596 62.3974C228.436 57.4713 234.208 49.261 234.384 49.0049C233.734 49.2151 197.594 60.8276 150.716 55.3891C150.716 55.3891 180.96 100.999 163.436 148.375L244.914 140.197C244.511 139.83 244.101 139.488 243.685 139.146H243.666Z" fill="black"/>
<path d="M234.181 46.7399L147.218 54.2734L147.409 56.5312L234.372 48.9976L234.181 46.7399Z" fill="black"/>
<path d="M246.31 138.913L159.347 146.446L159.538 148.704L246.501 141.17L246.31 138.913Z" fill="black"/>
<path opacity="0.3" d="M234.181 46.7399L147.218 54.2734L147.409 56.5312L234.372 48.9976L234.181 46.7399Z" fill="white"/>
<path opacity="0.3" d="M246.31 138.913L159.347 146.446L159.538 148.704L246.501 141.17L246.31 138.913Z" fill="white"/>
<path d="M173.778 100.729L181.032 100.387C181.032 100.387 181.064 99.1525 181.753 98.6862C182.442 98.2198 188.006 97.5039 188.006 97.5039C188.006 97.5039 188.864 101.248 188.006 102.377C187.148 103.507 182.52 104.282 182.091 104.02C181.753 103.775 181.451 103.483 181.194 103.153L174.98 104.072L173.778 100.729Z" fill="#EBB376"/>
<path d="M148.415 87.4873C155.78 88.6893 162.852 94.929 165.679 97.136C168.507 99.3429 177.847 100.177 177.847 100.177V104.932C177.847 104.932 171.724 108.177 164.652 107.402C157.58 106.627 146.394 96.3149 146.394 96.3149L148.415 87.4873Z" fill="#9759C4"/>
<path opacity="0.6" d="M177.847 100.177V104.932C177.847 104.932 171.724 108.177 164.652 107.402C160.967 106.995 156.163 104 152.406 101.228C148.955 98.6795 146.394 96.3149 146.394 96.3149L147.135 93.0637L148.435 87.4873C155.806 88.6893 162.878 94.929 165.705 97.136C168.533 99.3429 177.847 100.177 177.847 100.177Z" fill="white"/>
<path d="M176.866 99.416V106.017L178.582 105.386V99.416H176.866Z" fill="#9759C4"/>
<path opacity="0.7" d="M176.866 99.416V106.017L178.582 105.386V99.416H176.866Z" fill="white"/>
<path opacity="0.2" d="M152.406 101.229C148.955 98.6802 146.394 96.3157 146.394 96.3157L147.135 93.0645C147.525 93.106 147.907 93.2102 148.266 93.3732C148.266 93.3732 152.751 96.6966 152.406 101.229Z" fill="black"/>
<path d="M103.922 63.225V58.069C103.922 58.069 102.349 56.9721 102.538 56.6437C102.726 56.3153 102.323 51.4942 102.538 50.7323C102.752 49.9704 106.938 48.105 107.088 48.3152C107.237 48.5254 108.076 54.9885 107.861 55.7635C107.647 56.5386 106.34 57.4187 106.34 57.4187L106.236 63.8884L103.922 63.225Z" fill="#EBB376"/>
<path d="M122.395 83.5006C116.695 81.1558 107.523 68.9455 106.906 61.4053L102.421 63.2247C102.421 63.2247 99.4634 78.9883 104.481 85.2149C109.499 91.4415 120.829 92.8603 120.829 92.8603L122.395 83.5006Z" fill="#9759C4"/>
<path opacity="0.6" d="M122.396 83.5006L121.317 89.9308L120.829 92.8603C117.728 92.3913 114.696 91.5398 111.801 90.3249C109.103 89.1624 106.373 87.5138 104.514 85.2149C99.4961 79.0145 102.454 63.2247 102.454 63.2247L106.932 61.4053C107.524 68.9652 116.695 81.1558 122.396 83.5006Z" fill="white"/>
<path opacity="0.2" d="M121.317 89.9317L120.829 92.8612C117.729 92.3922 114.696 91.5407 111.801 90.3258C114.992 89.6427 119.328 89.8069 121.317 89.9317Z" fill="black"/>
<path d="M141.343 115.028H116.76C114.427 127.928 107.108 180.296 112.36 220.96H120.68C120.68 220.96 119.913 159.219 127.258 139.245C128.103 149.925 136.696 220.914 136.696 220.914H145.146C145.146 220.914 143.846 194.208 142.611 168.986C141.831 153.104 141.376 118.293 141.343 115.028Z" fill="#263238"/>
<path opacity="0.2" d="M127.257 139.245C126.046 142.743 125.126 146.338 124.508 149.991C123.825 140.487 126.575 130.411 126.575 130.411L127.257 139.245Z" fill="black"/>
<path d="M138.359 220.414H143.988C144.08 220.415 144.168 220.448 144.239 220.506C144.31 220.565 144.359 220.646 144.378 220.736L145.295 224.907C145.318 224.996 145.322 225.088 145.307 225.179C145.293 225.269 145.26 225.355 145.21 225.432C145.161 225.509 145.096 225.574 145.02 225.624C144.943 225.674 144.858 225.707 144.768 225.722H144.619C142.799 225.689 141.473 225.577 139.185 225.577C137.774 225.577 133.53 225.728 131.586 225.728C129.643 225.728 129.389 223.758 130.182 223.607C133.751 222.818 136.442 221.728 137.586 220.697C137.8 220.508 138.076 220.407 138.359 220.414Z" fill="#263238"/>
<path d="M114.498 220.27H120.127C120.219 220.271 120.309 220.303 120.381 220.361C120.453 220.42 120.503 220.501 120.524 220.592L121.434 224.756C121.453 224.845 121.454 224.937 121.438 225.026C121.422 225.116 121.388 225.201 121.339 225.278C121.29 225.354 121.227 225.42 121.153 225.471C121.079 225.523 120.995 225.559 120.907 225.577H120.758C118.938 225.577 117.612 225.433 115.324 225.433C113.92 225.433 109.669 225.584 107.725 225.584C105.782 225.584 105.528 223.614 106.321 223.462C109.896 222.681 112.581 221.591 113.725 220.553C113.936 220.361 114.214 220.26 114.498 220.27Z" fill="#263238"/>
<path d="M119.945 118.043L116.24 117.997L116.558 115.33H119.945V118.043Z" fill="black"/>
<path d="M133.348 115.33H141.298V118.305L133.348 118.207V115.33Z" fill="black"/>
<path d="M132.464 118.194L120.829 118.056V115.33H132.464V118.194Z" fill="black"/>
<path d="M127.836 114.805H123.26V118.135H127.836V114.805Z" fill="white"/>
<path d="M141.297 115.33H116.558C116.558 115.33 116.24 97.4846 122.408 83.501L148.408 87.4879C148.685 87.5299 148.948 87.6369 149.176 87.8004C149.404 87.9638 149.592 88.1791 149.722 88.4289C149.853 88.6787 149.924 88.9561 149.93 89.2387C149.935 89.5213 149.875 89.8012 149.754 90.056C147.732 94.3647 143.364 104.434 141.297 115.33Z" fill="#9759C4"/>
<path opacity="0.6" d="M141.297 115.33H116.558C116.558 115.33 116.24 97.4846 122.408 83.501L148.408 87.4879C148.685 87.5299 148.948 87.6369 149.176 87.8004C149.404 87.9638 149.592 88.1791 149.722 88.4289C149.853 88.6787 149.924 88.9561 149.93 89.2387C149.935 89.5213 149.875 89.8012 149.754 90.056C147.732 94.3647 143.364 104.434 141.297 115.33Z" fill="white"/>
<path d="M131.216 96.3157C131.216 96.3157 139.204 92.1186 141.616 89.4717H146.361C146.361 89.4717 143.67 84.0661 137.813 82.8707C131.957 81.6752 128.915 84.3222 127.225 82.8707C127.225 82.8707 127.16 85.7015 128.98 86.8707C128.71 90.1793 129.494 93.4885 131.216 96.3157Z" fill="#9759C4"/>
<path opacity="0.7" d="M131.216 96.3157C131.216 96.3157 139.204 92.1186 141.616 89.4717H146.361C146.361 89.4717 143.67 84.0661 137.813 82.8707C131.957 81.6752 128.915 84.3222 127.225 82.8707C127.225 82.8707 127.16 85.7015 128.98 86.8707C128.71 90.1793 129.494 93.4885 131.216 96.3157Z" fill="white"/>
<path d="M131.99 85.2148C131.99 85.2148 129.981 87.3889 131.184 95.4481C131.184 95.4481 139.335 90.2855 140.615 86.6336L131.99 85.2148Z" fill="#EBB376"/>
<path d="M133.25 87.5342C133.25 87.5342 138.45 88.4866 140.634 86.6343C139.633 85.4258 139.471 83.3503 139.679 81.1762C139.842 79.6401 140.129 78.12 140.537 76.631C140.667 76.1515 140.797 75.7049 140.927 75.3174L134.284 79.8363L134.323 80.1516C134.323 80.4603 134.381 80.769 134.388 81.0777C134.435 81.8229 134.338 82.5704 134.102 83.278C133.99 83.7703 133.804 84.2422 133.549 84.677C133.12 85.0458 132.572 85.2421 132.009 85.2288C131.261 86.214 133.25 87.5342 133.25 87.5342Z" fill="#EBB376"/>
<path opacity="0.2" d="M133.53 84.6637C135.912 84.2559 138.08 83.0227 139.66 81.176C139.823 79.6399 140.11 78.1199 140.518 76.6309L134.304 80.1317C134.304 80.4404 134.362 80.7491 134.369 81.0578C134.416 81.8031 134.319 82.5505 134.083 83.2581C133.972 83.7527 133.785 84.2268 133.53 84.6637Z" fill="black"/>
<path d="M139.874 79.3234C142.149 79.0804 143.384 78.6666 143.007 77.1231C142.63 75.5795 142.923 76.4662 144.554 74.66C146.186 72.8538 146.355 73.0377 145.497 71.1198C144.639 69.2019 144.983 67.4153 145.406 65.8652C145.828 64.3151 145.776 63.5992 143.963 62.8176C142.149 62.036 140.771 61.8652 140.908 59.7437C141.044 57.6222 138.308 57.9703 137.008 58.4301C136.666 58.5609 136.287 58.5526 135.951 58.4068C135.615 58.261 135.348 57.9891 135.207 57.6484C135.207 57.6484 134.674 58.1673 135.701 58.8635C136.728 59.5598 136.806 60.2494 136.806 60.2494C135.903 59.8123 134.948 59.4923 133.966 59.297C132.958 59.2117 130.066 60.6829 128.993 59.77C127.921 58.857 126.276 59.77 126.276 59.77C126.276 59.77 127.817 59.4678 128.161 59.77C128.506 60.0721 128.811 61.3726 129.806 61.031C129.806 61.031 127.817 62.8439 126.276 62.1542C124.736 61.4645 124.905 63.0409 123.618 63.8094C122.331 64.5779 122.162 63.8882 121.668 63.2774C121.174 62.6665 120.121 63.2774 120.121 63.2774C120.121 63.2774 121.057 63.0409 121.317 63.8094C121.577 64.5779 122.864 66.6009 123.722 65.8915C124.58 65.1821 124.924 66.7454 124.924 66.7454C124.924 66.7454 123.982 66.3119 123.468 66.9161C122.955 67.5204 121.655 68.1312 121.317 67.6124C120.979 67.0935 120.979 69.9046 122.006 69.7076C123.033 69.5106 123.468 71.1854 123.806 71.1723C124.144 71.1592 125.269 71.1723 125.269 71.1723C125.269 71.1723 125.178 72.7552 124.066 72.6042C123.736 72.5733 123.403 72.6378 123.108 72.7901C122.812 72.9424 122.565 73.1763 122.396 73.4646C122.396 73.4646 123.468 72.9917 123.897 73.4646C124.326 73.9375 126.159 76.4728 127.258 75.6781C128.671 77.3572 130.495 78.6323 132.549 79.376C136.065 80.637 139.874 79.3234 139.874 79.3234Z" fill="#263238"/>
<path d="M129.474 64.4932C129.474 64.4932 127.596 70.641 130.547 73.5572C133.498 76.4735 135.227 64.769 135.227 64.769L129.474 64.4932Z" fill="#263238"/>
<path d="M139.399 80.007C138.555 80.9345 137.433 81.5573 136.206 81.7803C134.978 82.0032 133.712 81.8141 132.6 81.2418C131.146 80.5239 130.018 79.2715 129.448 77.741C129.364 77.5269 129.295 77.3074 129.24 77.0841C128.18 72.9922 128.655 66.1875 133.055 64.2762C134.024 63.8506 135.085 63.6828 136.136 63.7886C137.187 63.8945 138.194 64.2705 139.061 64.8809C139.927 65.4913 140.625 66.3157 141.087 67.2757C141.549 68.2356 141.76 69.2991 141.7 70.3649C141.531 74.9364 141.642 77.6293 139.399 80.007Z" fill="#EBB376"/>
<path d="M134.862 71.7838C134.895 72.1582 134.68 72.4406 134.44 72.4406C134.199 72.4406 133.998 72.145 133.985 71.7838C133.972 71.4225 134.173 71.127 134.407 71.127C134.641 71.127 134.849 71.4094 134.862 71.7838Z" fill="#263238"/>
<path d="M130.696 71.8746C130.728 72.2424 130.514 72.5314 130.273 72.5314C130.033 72.5314 129.831 72.2358 129.825 71.8746C129.818 71.5133 130.007 71.2178 130.247 71.2178C130.488 71.2178 130.689 71.5199 130.696 71.8746Z" fill="#263238"/>
<path d="M132.022 72.0264C131.608 73.1746 131.039 74.2598 130.332 75.2513C130.588 75.4291 130.88 75.5477 131.187 75.5988C131.493 75.6499 131.807 75.6322 132.107 75.5469L132.022 72.0264Z" fill="#D58745"/>
<path d="M129.143 70.1742C129.176 70.1932 129.214 70.2031 129.253 70.2031C129.292 70.2031 129.33 70.1932 129.364 70.1742C129.576 70.0036 129.824 69.8851 130.089 69.8281C130.354 69.7711 130.629 69.7771 130.891 69.8458C130.945 69.865 131.005 69.862 131.057 69.8375C131.109 69.8129 131.15 69.7688 131.171 69.7144C131.189 69.6604 131.186 69.6011 131.162 69.5494C131.137 69.4977 131.094 69.4579 131.041 69.4386C130.709 69.3394 130.358 69.3229 130.018 69.3903C129.679 69.4578 129.361 69.6073 129.091 69.8261C129.067 69.8424 129.048 69.8633 129.033 69.8876C129.018 69.9118 129.008 69.939 129.003 69.9672C128.999 69.9955 129.001 70.0244 129.008 70.0521C129.015 70.0797 129.028 70.1057 129.045 70.1282C129.074 70.1501 129.107 70.1657 129.143 70.1742Z" fill="#263238"/>
<path d="M135.649 70.0959C135.692 70.0936 135.733 70.0775 135.766 70.05C135.805 70.0095 135.826 69.9553 135.826 69.8989C135.826 69.8425 135.805 69.7883 135.766 69.7478C135.504 69.5129 135.19 69.3469 134.849 69.2644C134.509 69.1819 134.154 69.1855 133.816 69.2749C133.788 69.2824 133.763 69.2954 133.741 69.3132C133.719 69.331 133.7 69.3532 133.687 69.3784C133.673 69.4036 133.665 69.4313 133.663 69.4598C133.66 69.4884 133.664 69.5171 133.673 69.5442C133.691 69.598 133.728 69.6429 133.778 69.6697C133.827 69.6966 133.885 69.7034 133.939 69.6887C134.205 69.6309 134.481 69.6371 134.744 69.7067C135.007 69.7763 135.25 69.9074 135.454 70.0894C135.483 70.106 135.517 70.1152 135.55 70.1164C135.584 70.1175 135.618 70.1105 135.649 70.0959Z" fill="#263238"/>
<path d="M138.262 64.7285L137.846 65.5889C139.328 66.121 138.99 67.8615 138.665 68.6497C137.976 70.3246 138.86 72.9781 140.115 74.0619C140.115 74.0619 140.173 73.3328 140.765 73.5233C141.356 73.7138 141.103 77.5299 139.855 79.323C139.855 79.323 141.707 77.7204 142.838 73.7335C143.885 70.0487 144.08 66.9617 143.365 65.5036L138.262 64.7285Z" fill="#263238"/>
<path d="M143.754 74.0686C143.517 74.5866 143.18 75.0521 142.764 75.4387C142.348 75.8252 141.861 76.1252 141.33 76.3214C139.913 76.8338 139.094 75.5792 139.38 74.1605C139.659 72.906 140.725 71.0866 142.201 71.1983C142.519 71.2276 142.826 71.3357 143.093 71.5131C143.361 71.6904 143.581 71.9315 143.735 72.2151C143.888 72.4987 143.97 72.8161 143.974 73.1393C143.977 73.4626 143.902 73.7817 143.754 74.0686Z" fill="#EBB376"/>
<path d="M139.861 72.4533L139.328 72.0264C139.328 72.0264 139.328 74.4894 138.489 75.0543C138.489 75.0543 135.824 74.9492 134.869 75.0543C134.212 75.2236 133.637 75.6271 133.25 76.1906C133.25 76.1906 131.261 75.4418 130.137 76.8474C129.499 76.0827 129.035 75.1858 128.778 74.2201C128.778 74.2201 128.206 78.6339 130.312 81.34C132.418 84.0461 136.572 83.4747 138.684 81.9115C140.797 80.3482 139.861 72.4533 139.861 72.4533Z" fill="#263238"/>
<path opacity="0.2" d="M139.861 72.4533L139.328 72.0264C139.328 72.0264 139.328 74.4894 138.489 75.0543C138.489 75.0543 135.824 74.9492 134.869 75.0543C134.212 75.2236 133.637 75.6271 133.25 76.1906C133.25 76.1906 131.261 75.4418 130.137 76.8474C129.499 76.0827 129.035 75.1858 128.778 74.2201C128.778 74.2201 128.206 78.6339 130.312 81.34C132.418 84.0461 136.572 83.4747 138.684 81.9115C140.797 80.3482 139.861 72.4533 139.861 72.4533Z" fill="white"/>
<path d="M133.03 77.5766C133.431 78.0961 133.794 78.645 134.115 79.2187C134.226 79.1793 134.336 79.1464 134.44 79.1005C135.903 78.5356 136.39 77.7868 136.501 77.13C136.541 76.8049 136.508 76.4746 136.403 76.1645C136.348 75.9889 136.267 75.8228 136.163 75.6719C135.415 76.4262 134.515 77.0086 133.524 77.3796C133.251 77.5044 133.03 77.5766 133.03 77.5766Z" fill="#263238"/>
<path d="M133.523 77.3728L133.855 77.8522C135.233 77.3137 136.13 76.7488 136.403 76.1577C136.348 75.9821 136.267 75.816 136.162 75.665C135.414 76.4193 134.514 77.0018 133.523 77.3728Z" fill="white"/>
<path d="M134.44 79.1003C135.902 78.5355 136.39 77.7867 136.5 77.1299C135.947 77.3527 135.438 77.6755 134.999 78.0823C134.712 78.3541 134.516 78.7102 134.44 79.1003Z" fill="#DE5753"/>
<path d="M140.907 64.9855C140.689 64.3996 140.352 63.8669 139.916 63.4221C139.48 62.9772 138.956 62.6304 138.379 62.4042C136.494 61.7473 132.49 62.056 130.702 63.061C129.541 63.6975 128.341 64.2569 127.108 64.7359C128.063 64.9677 128.979 65.3418 129.825 65.8459C131.125 66.6538 134.375 66.0955 134.375 66.0955C134.375 66.0955 133.075 66.437 133.042 66.8311C133.032 66.9441 132.997 67.0533 132.939 67.1508C132.882 67.2482 132.803 67.3315 132.71 67.3944C132.616 67.4574 132.51 67.4985 132.399 67.5146C132.288 67.5308 132.175 67.5217 132.067 67.4879C131.619 67.2712 132.314 68.263 133.042 67.9608C133.77 67.6587 133.12 66.8377 134.017 67.1792C134.914 67.5208 135.616 68.3943 136.513 67.4419C137.41 66.4896 137.722 67.4879 139.347 66.7851C140.972 66.0823 140.907 64.9855 140.907 64.9855Z" fill="#263238"/>
<path d="M101.557 62.6345L106.906 60.375V62.0696L101.557 64.4144V62.6345Z" fill="#9759C4"/>
<path opacity="0.7" d="M101.557 62.6345L106.906 60.375V62.0696L101.557 64.4144V62.6345Z" fill="white"/>
<path d="M184.84 28.7338L181.245 28.9395L191.885 218.869L195.48 218.664L184.84 28.7338Z" fill="black"/>
<path opacity="0.4" d="M184.84 28.7338L181.245 28.9395L191.885 218.869L195.48 218.664L184.84 28.7338Z" fill="white"/>
<path d="M73.1646 204.396L82.6351 235.312H228.697C228.697 235.312 244.381 218.426 250.296 198.419C250.296 198.419 135.428 207.509 73.1646 204.396Z" fill="#9759C4"/>
<path opacity="0.2" d="M250.296 198.419C249.446 201.26 248.423 204.046 247.235 206.761C247.131 207.004 247.027 207.247 246.916 207.49C245.948 209.664 244.901 211.765 243.809 213.775C243.679 214.025 243.543 214.268 243.406 214.511C242.171 216.751 240.897 218.872 239.63 220.843C239.474 221.092 239.311 221.335 239.155 221.578C237.758 223.72 236.393 225.664 235.125 227.378L234.592 228.094C231.206 232.613 228.697 235.319 228.697 235.319H82.6351L81.0231 230.064L80.8216 229.408L79.2551 224.291L79.0471 223.634L77.4546 218.439L77.2531 217.782L75.6671 212.606L75.4591 211.949L73.1646 204.455C135.428 207.509 250.296 198.419 250.296 198.419Z" fill="white"/>
<g opacity="0.2">
<path d="M247.234 206.76C247.13 207.003 247.026 207.246 246.916 207.489C223.607 211.673 188.721 213.768 142.74 213.768C123.73 213.768 102.833 213.409 80.048 212.691C78.293 212.632 76.798 212.586 75.667 212.559L75.459 211.903L80.0675 212.047C158.223 214.504 214.403 212.73 247.234 206.76Z" fill="black"/>
</g>
<g opacity="0.2">
<path d="M243.809 213.774C243.679 214.024 243.542 214.267 243.406 214.51C221.306 218.083 189.683 219.876 148.961 219.876C128.343 219.876 105.398 219.416 80.1259 218.497L77.4544 218.405L77.2529 217.748L80.1519 217.853C155.63 220.599 210.6 219.226 243.809 213.774Z" fill="black"/>
</g>
<g opacity="0.2">
<path d="M239.629 220.842C239.473 221.091 239.311 221.334 239.155 221.577C218.394 224.533 190.119 226.018 154.577 226.018C132.555 226.018 107.766 225.448 80.2104 224.31L79.2549 224.27L79.0469 223.614L80.2364 223.666C152.601 226.648 206.089 225.696 239.629 220.842Z" fill="black"/>
</g>
<g opacity="0.2">
<path d="M235.124 227.377L234.591 228.093C213.726 230.287 186.355 231.377 152.691 231.377C131.315 231.377 107.423 230.939 81.016 230.063L80.8145 229.407C149.259 231.705 201.012 231.022 235.124 227.377Z" fill="black"/>
</g>
<path d="M247.65 199.719C247.65 199.719 245.05 213.262 226.909 235.312H229.652C229.652 235.312 243.711 222.234 250.309 199.719H247.65Z" fill="#9759C4"/>
<path d="M193.447 203.351C193.447 203.351 191.562 220.842 185.738 235.311H182.995C182.995 235.311 186.934 226.74 190.022 203.351H193.447Z" fill="#9759C4"/>
<path d="M75.4587 204.507L84.6042 235.404H81.8677L72.5142 204.396L75.4587 204.507Z" fill="#9759C4"/>
<path d="M125.002 204.888C125.002 204.888 126.568 221.367 130.507 235.311H133.595C133.595 235.311 129.825 224.612 127.595 204.888H125.002Z" fill="#9759C4"/>
<g opacity="0.1">
<path d="M247.65 199.719C247.65 199.719 245.05 213.262 226.909 235.312H229.652C229.652 235.312 243.711 222.234 250.309 199.719H247.65Z" fill="white"/>
<path d="M193.447 203.351C193.447 203.351 191.562 220.842 185.738 235.311H182.995C182.995 235.311 186.934 226.74 190.022 203.351H193.447Z" fill="white"/>
<path d="M75.4587 204.507L84.6042 235.404H81.8677L72.5142 204.396L75.4587 204.507Z" fill="white"/>
<path d="M125.002 204.888C125.002 204.888 126.568 221.367 130.507 235.311H133.595C133.595 235.311 129.825 224.612 127.595 204.888H125.002Z" fill="white"/>
</g>
<path d="M69.063 200.678C69.063 200.678 183.463 206.07 253.013 195.62L251.713 201.045C251.713 201.045 157.989 212.711 71.013 206.471L69.063 200.678Z" fill="#9759C4"/>
<path d="M186.213 53.4978C186.153 53.4991 186.094 53.4831 186.044 53.4518L182.313 51.2318C182.276 51.2095 182.244 51.1801 182.218 51.1452C182.192 51.1103 182.174 51.0706 182.164 51.0285C182.153 50.9863 182.152 50.9426 182.158 50.8997C182.165 50.8568 182.18 50.8156 182.202 50.7786C182.223 50.7416 182.252 50.7092 182.286 50.6835C182.32 50.6578 182.359 50.6392 182.4 50.6287C182.441 50.6183 182.484 50.6164 182.526 50.6229C182.568 50.6295 182.608 50.6444 182.644 50.6669L186.375 52.9264C186.438 52.961 186.487 53.0161 186.516 53.0827C186.544 53.1493 186.549 53.2235 186.53 53.2934C186.511 53.3632 186.47 53.4247 186.412 53.4677C186.354 53.5108 186.284 53.5329 186.213 53.5307V53.4978Z" fill="#263238"/>
<path d="M182.651 53.8126C182.599 53.8118 182.548 53.799 182.502 53.7751C182.455 53.7512 182.415 53.7168 182.384 53.6747C182.359 53.6394 182.342 53.5994 182.332 53.5572C182.322 53.5149 182.321 53.4711 182.328 53.4284C182.336 53.3856 182.351 53.3447 182.374 53.3081C182.397 53.2715 182.427 53.2398 182.462 53.2149L186.05 50.627C186.085 50.602 186.124 50.5842 186.165 50.5746C186.206 50.565 186.249 50.5638 186.291 50.5712C186.333 50.5785 186.373 50.5942 186.408 50.6173C186.444 50.6405 186.475 50.6706 186.499 50.7059C186.548 50.7769 186.568 50.8646 186.555 50.9503C186.542 51.0361 186.496 51.1133 186.427 51.1656L182.839 53.7469C182.786 53.79 182.719 53.8132 182.651 53.8126Z" fill="#263238"/>
<path d="M191.75 146.247C191.703 146.248 191.656 146.237 191.614 146.214L187.551 144.29C187.508 144.275 187.468 144.251 187.434 144.22C187.4 144.189 187.373 144.15 187.355 144.108C187.337 144.065 187.328 144.019 187.329 143.973C187.329 143.927 187.34 143.881 187.359 143.839C187.379 143.797 187.406 143.76 187.441 143.729C187.476 143.699 187.517 143.676 187.561 143.663C187.605 143.65 187.651 143.646 187.696 143.652C187.742 143.658 187.785 143.674 187.824 143.698L191.887 145.623C191.973 145.641 192.049 145.693 192.097 145.768C192.145 145.842 192.162 145.933 192.144 146.02C192.126 146.107 192.074 146.184 192 146.232C191.927 146.281 191.837 146.298 191.75 146.28V146.247Z" fill="#263238"/>
<path d="M187.85 146.589C187.798 146.59 187.746 146.578 187.7 146.554C187.653 146.53 187.613 146.494 187.584 146.451C187.559 146.415 187.541 146.375 187.532 146.333C187.522 146.291 187.521 146.247 187.528 146.204C187.535 146.162 187.551 146.121 187.574 146.084C187.597 146.047 187.627 146.016 187.662 145.991L191.126 143.547C191.161 143.522 191.201 143.504 191.243 143.495C191.285 143.485 191.328 143.484 191.37 143.491C191.412 143.498 191.453 143.514 191.489 143.537C191.525 143.561 191.557 143.591 191.581 143.626C191.63 143.698 191.649 143.786 191.635 143.872C191.62 143.958 191.573 144.035 191.503 144.086L188.032 146.529C187.979 146.567 187.916 146.588 187.85 146.589Z" fill="#263238"/>
<path d="M293.111 237.269H277.29L261.3 236.684C260.658 235.924 259.744 235.452 258.758 235.371C256.191 234.95 248.267 236.028 247.214 235.371C246.161 234.714 247.546 232.704 244.926 231.358C242.307 230.011 237.679 235.725 235.105 234.293C232.531 232.862 233.35 225.597 229.45 225.61C225.55 225.624 230.477 231.863 227.909 232.901C225.342 233.939 197.45 229.84 182.981 227.561C168.512 225.282 175.708 226.74 176.221 230.602C176.735 234.464 163.624 231.325 143.825 229.387C124.026 227.449 120.679 233.42 115.537 233.945C110.396 234.471 101.842 228.573 94.9325 229.827C88.023 231.082 91.364 232.901 87.2495 233.164C83.135 233.426 73.6645 226.385 73.151 229.387C72.6375 232.389 77.012 231.863 75.4455 233.683C73.879 235.502 65.468 232.894 62.569 233.164C59.67 233.433 59.969 235.312 59.969 235.312C59.969 235.312 51.6035 234.188 52.2535 237.282H36.1465C36.66 239.568 37.4465 238.635 58.6755 239.41C79.9045 240.185 69.0755 241.959 71.8055 244.717C74.5355 247.476 100.711 243.601 112.521 244.717C124.332 245.834 113.288 247.725 119.944 249.808C126.6 251.89 156.494 249.808 163.995 250.583C171.496 251.358 162.409 253.702 185.809 253.965C209.209 254.228 199.075 252.987 202.923 251.108C208.234 248.481 220.005 249.026 223.684 248.244C227.363 247.463 225.4 244.717 233.376 244.717C241.351 244.717 270.146 245.131 273.494 244.717C276.841 244.303 274.521 239.929 285.194 239.876C295.867 239.824 293.111 237.269 293.111 237.269Z" fill="#9759C4"/>
<path opacity="0.7" d="M293.111 237.269H277.29L261.3 236.684C260.658 235.924 259.744 235.452 258.758 235.371C256.191 234.95 248.267 236.028 247.214 235.371C246.161 234.714 247.546 232.704 244.926 231.358C242.307 230.011 237.679 235.725 235.105 234.293C232.531 232.862 233.35 225.597 229.45 225.61C225.55 225.624 230.477 231.863 227.909 232.901C225.342 233.939 197.45 229.84 182.981 227.561C168.512 225.282 175.708 226.74 176.221 230.602C176.735 234.464 163.624 231.325 143.825 229.387C124.026 227.449 120.679 233.42 115.537 233.945C110.396 234.471 101.842 228.573 94.9325 229.827C88.023 231.082 91.364 232.901 87.2495 233.164C83.135 233.426 73.6645 226.385 73.151 229.387C72.6375 232.389 77.012 231.863 75.4455 233.683C73.879 235.502 65.468 232.894 62.569 233.164C59.67 233.433 59.969 235.312 59.969 235.312C59.969 235.312 51.6035 234.188 52.2535 237.282H36.1465C36.66 239.568 37.4465 238.635 58.6755 239.41C79.9045 240.185 69.0755 241.959 71.8055 244.717C74.5355 247.476 100.711 243.601 112.521 244.717C124.332 245.834 113.288 247.725 119.944 249.808C126.6 251.89 156.494 249.808 163.995 250.583C171.496 251.358 162.409 253.702 185.809 253.965C209.209 254.228 199.075 252.987 202.923 251.108C208.234 248.481 220.005 249.026 223.684 248.244C227.363 247.463 225.4 244.717 233.376 244.717C241.351 244.717 270.146 245.131 273.494 244.717C276.841 244.303 274.521 239.929 285.194 239.876C295.867 239.824 293.111 237.269 293.111 237.269Z" fill="white"/>
<path opacity="0.4" d="M254.267 238.359C253.221 236.849 246.896 239.916 245.349 238.359C243.802 236.803 246.084 231.922 239.629 235.404C233.175 238.885 233.526 238.629 231.894 236.5C230.263 234.372 228.033 234.99 229.405 236.5C230.776 238.011 223.75 238.629 217.75 236.5C211.751 234.372 196.3 233.262 199.55 236.5C202.8 239.739 193.7 237.039 190.983 237.269C188.266 237.499 190.723 239.331 188.195 239.798C185.666 240.264 167.596 240.763 169.208 240.96C172.127 241.302 260.241 240.96 260.241 240.96C260.241 240.96 258.694 240.198 254.924 239.798C254.95 239.798 255.45 240.093 254.267 238.359Z" fill="white"/>
<path opacity="0.4" d="M133.595 247.193C133.12 247.995 167.148 247.193 169.137 247.712C171.126 248.231 174.376 249.275 177.977 248.757C181.578 248.238 195.124 249.381 197.178 248.894C199.232 248.408 196.151 245.335 194.435 244.704C192.719 244.073 193.447 246.865 193.447 246.865C193.447 246.865 190.32 247.069 186.381 244.704C182.442 242.339 180.382 244.77 181.233 245.985C182.085 247.2 176.781 248.651 173.862 246.366C170.944 244.08 169.137 246.366 169.137 246.366C169.137 246.366 134.622 245.459 133.595 247.193Z" fill="white"/>
<path opacity="0.4" d="M161.35 237.643C157.937 235.311 146.952 232.467 136.65 232.815C126.347 233.163 129.617 236.868 127.823 237.268C126.029 237.669 121.55 238.707 114.4 236.454C107.25 234.201 106.685 235.718 106.685 237.643C106.685 239.567 100.685 237.702 99.138 237.86C97.591 238.017 99.3135 240.027 97.4285 239.797C95.5435 239.567 86.6255 238.674 86.4565 239.797H137.553C137.553 239.797 136 236.677 139.77 237.249C143.54 237.82 143.884 238.05 144.053 236.29C144.222 234.53 149.715 235.278 152.971 236.29C154.881 236.862 156.529 238.097 157.625 239.778C157.625 239.778 157.352 237.623 159.361 237.623C161.369 237.623 160.55 239.797 160.55 239.797C160.55 239.797 163.007 238.779 161.35 237.643Z" fill="white"/>
</svg>
