<svg width="219" height="211" viewBox="0 0 219 211" fill="none" xmlns="http://www.w3.org/2000/svg">
<g clip-path="url(#clip0_338_5565)">
<path d="M137.221 3.6821C134.404 1.66028 131.104 0.420456 127.655 0.0883567C124.206 -0.243743 120.731 0.343691 117.581 1.79109C86.4864 16.1159 -16.1476 66.6643 5.47395 100.458C30.8759 140.174 121.028 202.832 154.086 199.843C187.143 196.855 224.623 141.297 216.206 104.729C209.133 74.0038 161.587 21.2351 137.221 3.6821Z" fill="#9759C4"/>
<path opacity="0.7" d="M137.221 3.6821C134.404 1.66028 131.104 0.420456 127.655 0.0883567C124.206 -0.243743 120.731 0.343691 117.581 1.79109C86.4864 16.1159 -16.1476 66.6643 5.47395 100.458C30.8759 140.174 121.028 202.832 154.086 199.843C187.143 196.855 224.623 141.297 216.206 104.729C209.133 74.0038 161.587 21.2351 137.221 3.6821Z" fill="white"/>
<path d="M166.04 107.279C166.802 109.105 170.069 112.093 170.074 112.093C170.079 112.093 171.384 109.339 171.444 109.155C172.146 107.014 172.246 102.459 170.204 100.977C169.858 100.74 169.467 100.579 169.055 100.504C168.644 100.429 168.221 100.441 167.814 100.54C167.408 100.639 167.026 100.822 166.695 101.078C166.364 101.333 166.089 101.656 165.89 102.025C164.999 103.566 165.392 105.727 166.04 107.279Z" fill="#263238"/>
<path d="M218.338 136.477C216.714 134.546 212.191 134.98 210.109 135.828C209.93 135.903 207.245 137.38 207.28 137.415L207.32 137.45C206.603 137.51 205.826 137.585 205.004 137.685C203.46 137.879 201.722 138.114 199.849 138.493C197.83 138.877 195.834 139.376 193.872 139.99C191.67 140.684 189.533 141.572 187.487 142.644L187.412 142.689C187.935 142.16 189.335 140.643 189.429 140.514C190.764 138.697 192.273 134.401 190.799 132.356C190.544 132.023 190.222 131.747 189.854 131.547C189.486 131.347 189.08 131.227 188.663 131.194C188.245 131.161 187.825 131.216 187.431 131.356C187.036 131.496 186.675 131.718 186.371 132.006C185.041 133.189 184.747 135.364 184.877 137.046C185.026 138.937 187.019 142.534 187.178 142.824C185.121 143.963 183.141 145.237 181.251 146.636C180.145 147.449 179.059 148.297 177.978 149.165C178.412 148.696 178.8 148.272 178.845 148.207C180.18 146.391 181.684 142.095 180.21 140.05C179.955 139.717 179.633 139.443 179.266 139.243C178.898 139.043 178.493 138.923 178.076 138.89C177.659 138.857 177.24 138.912 176.846 139.052C176.451 139.191 176.091 139.412 175.787 139.7C174.457 140.883 174.158 143.058 174.293 144.74C174.427 146.421 176.066 149.544 176.509 150.363L175.274 151.361C173.306 152.987 171.354 154.614 169.387 156.151C168.694 156.694 167.992 157.203 167.295 157.712C167.678 157.298 167.997 156.944 168.042 156.884C169.377 155.068 170.886 150.772 169.411 148.726C169.157 148.393 168.835 148.118 168.467 147.918C168.099 147.718 167.693 147.597 167.275 147.564C166.858 147.531 166.438 147.587 166.043 147.727C165.648 147.867 165.287 148.088 164.984 148.377C163.654 149.559 163.36 151.735 163.489 153.411C163.619 155.088 165.103 157.902 165.626 158.9C164.894 159.399 164.162 159.898 163.43 160.362C162.931 160.656 162.433 160.98 161.935 161.25L160.406 162.083C159.41 162.582 158.414 163.081 157.418 163.54C156.735 163.864 156.083 164.159 155.425 164.458C156.123 163.924 157.463 162.856 157.562 162.752C158.913 161.301 159.867 159.526 160.332 157.598C160.49 157.445 160.633 157.278 160.76 157.099C161.008 156.761 161.183 156.375 161.272 155.966C161.362 155.556 161.365 155.133 161.281 154.722C161.197 154.311 161.028 153.923 160.784 153.582C160.541 153.241 160.229 152.955 159.868 152.743C157.662 151.53 153.593 153.556 151.954 155.103C151.859 155.198 150.923 156.305 150.34 157.014C150.619 156.545 150.893 156.091 151.172 155.607C151.735 154.649 152.263 153.676 152.84 152.613C153.099 152.114 153.338 151.585 153.622 151.061C153.906 150.537 154.12 149.969 154.374 149.42C154.937 148.132 155.445 146.8 155.924 145.428C156.76 145.927 159.764 147.609 161.442 147.788C163.121 147.968 165.292 147.738 166.513 146.441C166.809 146.145 167.04 145.79 167.19 145.399C167.341 145.008 167.407 144.589 167.386 144.171C167.365 143.752 167.257 143.343 167.067 142.969C166.878 142.595 166.613 142.265 166.289 142C164.296 140.464 159.963 141.851 158.11 143.133C157.996 143.213 156.77 144.281 156.118 144.879C156.402 144.066 156.686 143.253 156.945 142.42C157.697 140.01 158.379 137.55 159.066 135.095C159.281 134.347 159.5 133.598 159.719 132.85C160.013 133.029 163.534 135.12 165.417 135.344C167.085 135.524 169.267 135.29 170.487 133.992C170.784 133.697 171.015 133.342 171.166 132.951C171.317 132.56 171.384 132.142 171.363 131.723C171.343 131.305 171.235 130.895 171.046 130.521C170.857 130.147 170.592 129.817 170.268 129.552C168.276 128.015 163.938 129.402 162.085 130.684C161.945 130.779 160.187 132.321 159.759 132.735C160.257 131.088 160.73 129.452 161.253 127.86C161.987 125.704 162.859 123.598 163.863 121.554C164.002 121.638 167.668 123.834 169.591 124.048C171.264 124.233 173.441 123.998 174.661 122.701C174.958 122.405 175.189 122.051 175.34 121.66C175.491 121.269 175.558 120.851 175.537 120.432C175.517 120.013 175.409 119.604 175.22 119.23C175.031 118.856 174.766 118.525 174.442 118.26C172.45 116.724 168.116 118.111 166.264 119.393C166.119 119.493 164.226 121.149 163.903 121.474C163.962 121.359 164.007 121.229 164.072 121.109C165.138 119.091 166.379 117.171 167.783 115.372C168.545 114.374 169.332 113.451 170.114 112.577C170.756 113.076 173.71 115.212 175.418 115.596C177.127 115.98 179.253 115.965 180.608 114.813C180.936 114.551 181.205 114.224 181.398 113.852C181.591 113.48 181.704 113.071 181.729 112.652C181.755 112.234 181.692 111.814 181.545 111.422C181.398 111.029 181.171 110.671 180.877 110.372C179.059 108.626 174.601 109.529 172.624 110.597C172.515 110.656 171.483 111.37 170.741 111.899C171.1 111.51 171.464 111.101 171.817 110.736C173.137 109.354 174.432 108.177 175.583 107.139C176.245 106.555 176.853 106.041 177.426 105.567C178.302 105.707 181.829 106.236 183.492 105.787C185.156 105.338 187.068 104.35 187.736 102.698C187.906 102.315 187.993 101.901 187.993 101.482C187.993 101.063 187.905 100.649 187.735 100.266C187.565 99.8833 187.317 99.5405 187.007 99.2598C186.696 98.9792 186.33 98.7669 185.933 98.6368C183.517 97.9234 179.956 100.782 178.711 102.628C178.601 102.793 177.181 105.507 177.216 105.517H177.266C176.708 105.961 176.111 106.445 175.468 106.989C174.288 107.987 172.978 109.16 171.613 110.512C170.138 111.957 168.748 113.487 167.449 115.092C165.986 116.883 164.686 118.802 163.564 120.825C163.564 120.825 163.564 120.875 163.529 120.9C163.674 120.171 164.027 118.131 164.027 117.971C164.137 115.721 163.031 111.3 160.67 110.412C160.275 110.276 159.855 110.225 159.438 110.262C159.022 110.299 158.618 110.423 158.252 110.626C157.886 110.829 157.567 111.107 157.315 111.441C157.064 111.776 156.885 112.159 156.79 112.567C156.332 114.289 157.288 116.265 158.319 117.592C159.485 119.089 163.131 120.99 163.42 121.139C162.331 123.227 161.381 125.383 160.576 127.596C160.077 128.883 159.659 130.195 159.236 131.513C159.34 130.884 159.43 130.315 159.435 130.235C159.545 127.985 158.439 123.569 156.078 122.676C155.682 122.54 155.263 122.489 154.846 122.526C154.43 122.563 154.025 122.687 153.66 122.89C153.294 123.093 152.975 123.371 152.723 123.705C152.471 124.04 152.292 124.424 152.198 124.832C151.74 126.553 152.696 128.534 153.727 129.856C154.758 131.178 157.851 132.89 158.673 133.324C158.514 133.823 158.349 134.322 158.175 134.845C157.428 137.285 156.681 139.725 155.904 142.095C155.625 142.928 155.316 143.742 155.017 144.555C155.107 143.991 155.181 143.522 155.181 143.447C155.296 141.197 154.185 136.776 151.829 135.888C151.434 135.752 151.015 135.701 150.598 135.738C150.182 135.774 149.778 135.898 149.413 136.1C149.047 136.303 148.728 136.58 148.476 136.914C148.224 137.248 148.044 137.631 147.949 138.039C147.491 139.765 148.447 141.741 149.478 143.068C150.509 144.395 153.304 145.932 154.275 146.456C153.941 147.279 153.607 148.103 153.244 148.886C152.985 149.415 152.771 149.944 152.482 150.463C152.193 150.981 151.934 151.49 151.66 151.999C151.107 152.957 150.534 153.95 149.971 154.873C149.578 155.517 149.194 156.121 148.811 156.734C149.1 155.906 149.628 154.275 149.658 154.135C150.106 151.924 149.658 147.389 147.486 146.152C147.115 145.957 146.708 145.842 146.291 145.815C145.873 145.788 145.454 145.849 145.062 145.995C144.669 146.14 144.312 146.366 144.012 146.659C143.712 146.952 143.477 147.304 143.322 147.693C142.61 149.325 143.252 151.426 144.074 152.892C144.981 154.509 148.153 156.884 148.557 157.153C147.919 158.151 147.287 159.149 146.674 160.052C146.365 160.516 146.067 160.965 145.773 161.394L146.854 162.537C147.202 162.003 147.561 161.449 147.929 160.871C148.582 159.873 149.259 158.74 149.922 157.598C151.1 158.073 152.306 158.478 153.533 158.81C153.503 160.711 154.763 164.184 154.927 164.633C153.837 165.132 152.776 165.586 151.765 166.01C151.347 166.161 150.919 166.285 150.484 166.379L151.64 167.591C151.885 167.543 152.125 167.473 152.357 167.382C153.463 166.883 154.638 166.344 155.844 165.765C156.118 166.169 158.379 169.423 159.968 170.376C161.407 171.244 163.484 171.947 165.138 171.279C165.53 171.134 165.888 170.909 166.187 170.617C166.487 170.325 166.722 169.974 166.878 169.586C167.034 169.197 167.107 168.781 167.092 168.362C167.077 167.944 166.975 167.534 166.792 167.157C165.621 164.922 161.109 164.363 158.892 164.747C158.763 164.772 157.373 165.177 156.496 165.451C156.994 165.211 157.463 164.987 157.966 164.737C158.962 164.239 159.958 163.74 160.989 163.176L162.483 162.318C162.981 162.038 163.479 161.679 164.012 161.36C165.193 160.596 166.348 159.768 167.499 158.905C167.927 159.773 169.491 162.846 170.796 163.924C172.101 165.002 174.034 166.01 175.777 165.601C176.187 165.518 176.575 165.349 176.917 165.107C177.258 164.864 177.544 164.552 177.757 164.191C177.97 163.83 178.106 163.429 178.154 163.012C178.202 162.596 178.163 162.174 178.038 161.774C177.216 159.389 172.843 158.151 170.592 158.196C170.452 158.196 168.844 158.416 167.962 158.55C168.644 158.027 169.332 157.508 170.004 156.954C171.957 155.357 173.884 153.686 175.812 152.019C176.4 151.52 176.992 151.021 177.585 150.522C177.734 150.832 179.522 154.514 180.977 155.731C182.272 156.804 184.219 157.817 185.958 157.408C186.368 157.325 186.756 157.157 187.097 156.914C187.438 156.671 187.725 156.359 187.938 155.998C188.151 155.638 188.286 155.236 188.335 154.82C188.383 154.403 188.344 153.981 188.219 153.581C187.397 151.196 183.024 149.959 180.748 150.004C180.578 150.004 178.257 150.323 177.675 150.428C178.98 149.32 180.294 148.227 181.629 147.204C183.428 145.811 185.315 144.537 187.278 143.387C187.347 143.532 189.195 147.379 190.684 148.631C191.979 149.704 193.927 150.717 195.665 150.308C196.076 150.226 196.465 150.058 196.806 149.815C197.148 149.572 197.435 149.261 197.649 148.9C197.862 148.539 197.998 148.137 198.047 147.72C198.095 147.304 198.056 146.881 197.931 146.481C197.11 144.096 192.731 142.859 190.485 142.903C190.306 142.903 187.815 143.248 187.367 143.338C187.482 143.273 187.591 143.193 187.706 143.128C189.706 142.035 191.799 141.123 193.962 140.404C195.152 139.985 196.313 139.655 197.448 139.361C197.717 140.114 198.992 143.547 200.213 144.809C201.433 146.072 203.201 147.239 204.969 147.02C205.386 146.983 205.79 146.858 206.156 146.655C206.522 146.451 206.841 146.173 207.093 145.838C207.344 145.503 207.523 145.119 207.617 144.711C207.711 144.302 207.719 143.879 207.639 143.467C207.086 141.007 202.872 139.296 200.631 139.097C200.507 139.097 199.256 139.097 198.345 139.141C198.843 139.017 199.391 138.877 199.884 138.762C201.742 138.343 203.47 138.074 205.004 137.849C205.876 137.724 206.668 137.63 207.41 137.555C208.057 138.154 210.712 140.548 212.346 141.092C213.98 141.636 216.116 141.866 217.586 140.863C217.94 140.639 218.243 140.343 218.476 139.994C218.709 139.645 218.866 139.251 218.936 138.838C219.007 138.424 218.991 138 218.888 137.594C218.784 137.187 218.597 136.807 218.338 136.477Z" fill="#263238"/>
<path d="M197.717 138.947C197.717 138.992 200.332 137.375 200.487 137.255C202.25 135.853 204.835 132.111 203.973 129.771C203.814 129.384 203.575 129.035 203.273 128.747C202.971 128.458 202.611 128.236 202.218 128.095C201.825 127.954 201.406 127.897 200.99 127.928C200.573 127.959 200.167 128.077 199.799 128.274C198.2 129.068 197.344 131.083 197.03 132.74C196.641 134.646 197.717 138.947 197.717 138.947Z" fill="#263238"/>
<path d="M52.9607 107.279C52.1986 109.105 48.9312 112.093 48.9312 112.093C48.9312 112.093 47.6163 109.339 47.5565 109.155C46.8543 107.014 46.7596 102.459 48.7968 100.977C49.1423 100.74 49.5335 100.579 49.9451 100.504C50.3567 100.429 50.7794 100.441 51.186 100.54C51.5926 100.639 51.974 100.822 52.3054 101.078C52.6369 101.333 52.911 101.656 53.1101 102.025C54.0017 103.566 53.6082 105.727 52.9607 107.279Z" fill="#263238"/>
<path d="M0.662662 136.477C2.2864 134.546 6.81393 134.98 8.89589 135.828C9.0752 135.903 11.7549 137.38 11.725 137.415L11.6851 137.45C12.3974 137.51 13.1794 137.585 14.0012 137.685C15.5403 137.879 17.2786 138.114 19.1563 138.493C21.1755 138.877 23.171 139.377 25.1332 139.99C27.3384 140.677 29.4786 141.559 31.5286 142.624L31.5983 142.669C31.1002 142.14 29.6757 140.623 29.606 140.494C28.2761 138.677 26.7669 134.381 28.2413 132.336C28.4962 132.004 28.8179 131.729 29.1854 131.529C29.553 131.33 29.9584 131.209 30.3752 131.176C30.7921 131.144 31.2112 131.199 31.6055 131.338C31.9998 131.478 32.3605 131.699 32.6642 131.987C33.9941 133.169 34.2929 135.344 34.1584 137.026C34.009 138.917 32.0167 142.514 31.8573 142.804C33.9146 143.942 35.8946 145.216 37.7844 146.616C38.8902 147.429 39.981 148.277 41.0618 149.145C40.6235 148.676 40.24 148.252 40.1951 148.187C38.8603 146.371 37.3511 142.075 38.8254 140.03C39.0803 139.697 39.4023 139.421 39.7703 139.221C40.1383 139.021 40.5443 138.9 40.9618 138.868C41.3793 138.835 41.799 138.89 42.1938 139.03C42.5885 139.17 42.9495 139.392 43.2533 139.68C44.5832 140.863 44.8771 143.038 44.7476 144.72C44.6181 146.401 42.9744 149.525 42.5311 150.343L43.7614 151.341C45.7537 152.967 47.6862 154.594 49.6487 156.131C50.341 156.674 51.0433 157.183 51.7456 157.692C51.362 157.278 51.0383 156.924 50.9935 156.864C49.6636 155.048 48.1544 150.752 49.6287 148.706C49.8837 148.374 50.2053 148.099 50.5729 147.9C50.9405 147.7 51.3458 147.58 51.7627 147.547C52.1796 147.514 52.5987 147.569 52.993 147.709C53.3873 147.848 53.7479 148.069 54.0517 148.357C55.3815 149.539 55.6804 151.715 55.5459 153.391C55.4114 155.068 53.9321 157.882 53.4091 158.88C54.1413 159.379 54.9034 159.878 55.6106 160.342C56.1087 160.636 56.6068 160.96 57.1049 161.23L58.639 162.063C59.6351 162.562 60.6313 163.061 61.6274 163.52C62.3048 163.844 62.9573 164.139 63.6197 164.438C62.9274 163.904 61.5876 162.836 61.483 162.732C60.1358 161.279 59.1824 159.504 58.7137 157.578C58.5573 157.425 58.4155 157.258 58.2903 157.079C58.042 156.741 57.8671 156.356 57.7769 155.947C57.6868 155.537 57.6834 155.114 57.7669 154.703C57.8505 154.293 58.0192 153.904 58.2621 153.563C58.5049 153.222 58.8166 152.936 59.1769 152.723C61.3884 151.51 65.4577 153.536 67.0913 155.083C67.191 155.178 68.1274 156.285 68.7051 156.994C68.4262 156.525 68.1523 156.071 67.8733 155.587C67.3155 154.629 66.7825 153.656 66.2097 152.593L65.4228 151.041C65.1488 150.542 64.9247 149.949 64.6707 149.4C64.1128 148.112 63.6048 146.78 63.1217 145.408C62.2849 145.907 59.2865 147.589 57.6079 147.768C55.9294 147.948 53.7578 147.718 52.5375 146.421C52.2411 146.125 52.0099 145.771 51.859 145.38C51.708 144.989 51.6407 144.571 51.6614 144.152C51.682 143.733 51.7902 143.324 51.9789 142.95C52.1676 142.576 52.4325 142.245 52.7567 141.98C54.749 140.444 59.0872 141.831 60.9351 143.113C61.0546 143.193 62.2799 144.261 62.9274 144.859C62.6485 144.046 62.3596 143.233 62.1006 142.4C61.3535 139.99 60.6711 137.53 59.9788 135.075C59.7696 134.327 59.5455 133.578 59.3313 132.83C59.0324 133.009 55.511 135.1 53.6333 135.324C51.9597 135.504 49.7831 135.27 48.5628 133.972C48.2664 133.677 48.0352 133.322 47.8843 132.931C47.7334 132.54 47.6661 132.122 47.6867 131.703C47.7074 131.285 47.8156 130.875 48.0042 130.501C48.1929 130.127 48.4579 129.797 48.782 129.532C50.7743 127.995 55.1126 129.382 56.9604 130.664C57.0999 130.759 58.8631 132.301 59.2914 132.715C58.7934 131.068 58.3202 129.432 57.7673 127.84C57.0352 125.683 56.1633 123.577 55.1574 121.534C55.0229 121.618 51.3571 123.814 49.4295 124.028C47.7609 124.213 45.5794 123.978 44.3591 122.681C44.0626 122.385 43.8314 122.031 43.6805 121.64C43.5296 121.249 43.4623 120.831 43.4829 120.412C43.5036 119.993 43.6118 119.584 43.8004 119.21C43.9891 118.836 44.2541 118.505 44.5782 118.241C46.5705 116.704 50.9088 118.091 52.7616 119.373C52.9061 119.473 54.7988 121.129 55.1176 121.454C55.0628 121.339 55.013 121.209 54.9532 121.089C53.8876 119.071 52.6459 117.151 51.2425 115.352C50.4804 114.354 49.6935 113.431 48.9065 112.557C48.269 113.056 45.3154 115.192 43.602 115.576C41.9633 115.94 39.7718 115.945 38.417 114.793C38.0895 114.531 37.8204 114.204 37.6273 113.832C37.4342 113.46 37.3213 113.051 37.2959 112.632C37.2705 112.214 37.3333 111.794 37.4801 111.402C37.6269 111.009 37.8545 110.651 38.148 110.352C39.966 108.606 44.4188 109.509 46.4012 110.577C46.5108 110.637 47.5368 111.35 48.2789 111.879C47.9203 111.49 47.5567 111.081 47.2031 110.716C45.8882 109.334 44.5932 108.157 43.4376 107.119C42.7802 106.535 42.1725 106.021 41.5947 105.547C40.7231 105.687 37.1917 106.216 35.5281 105.767C33.8646 105.318 31.9569 104.33 31.2845 102.678C31.1179 102.297 31.0326 101.885 31.0341 101.468C31.0355 101.052 31.1236 100.64 31.2929 100.26C31.4621 99.8796 31.7087 99.5388 32.0168 99.2593C32.325 98.9798 32.688 98.7678 33.0826 98.6368C35.5032 97.9234 39.0595 100.782 40.3047 102.628C40.4143 102.793 41.8388 105.507 41.7989 105.517H41.7442C42.307 105.961 42.9047 106.445 43.5472 106.989C44.7227 107.987 46.0376 109.16 47.4023 110.512C48.8752 111.957 50.2639 113.487 51.5613 115.092C53.0242 116.883 54.3244 118.802 55.4463 120.825C55.4609 120.849 55.4726 120.874 55.4811 120.9C55.3367 120.171 54.9831 118.131 54.9831 117.971C54.8735 115.721 55.9792 111.3 58.3351 110.412C58.731 110.275 59.1511 110.224 59.5683 110.26C59.9854 110.296 60.3902 110.42 60.7565 110.624C61.1228 110.827 61.4424 111.105 61.6945 111.44C61.9467 111.775 62.1257 112.159 62.2201 112.567C62.6734 114.289 61.7221 116.265 60.691 117.592C59.5206 119.089 55.8796 120.99 55.5857 121.139C56.6761 123.226 57.6278 125.383 58.4347 127.596C58.9079 128.883 59.3462 130.195 59.7696 131.513C59.67 130.884 59.5803 130.315 59.5754 130.235C59.4658 127.985 60.5715 123.569 62.9274 122.676C63.3233 122.54 63.7434 122.488 64.1606 122.524C64.5777 122.561 64.9825 122.684 65.3488 122.888C65.7151 123.091 66.0347 123.369 66.2868 123.704C66.5389 124.039 66.718 124.423 66.8124 124.832C67.2707 126.553 66.3143 128.534 65.2833 129.856C64.2523 131.178 61.1592 132.89 60.3374 133.324C60.4968 133.823 60.6562 134.322 60.8355 134.845C61.5826 137.285 62.3297 139.725 63.1117 142.095C63.3906 142.928 63.6945 143.742 63.9983 144.555C63.9037 143.991 63.8339 143.522 63.8289 143.447C63.7194 141.197 64.8251 136.776 67.181 135.888C67.5765 135.752 67.9963 135.7 68.4132 135.736C68.83 135.772 69.2347 135.895 69.6009 136.098C69.9671 136.301 70.2868 136.578 70.5392 136.913C70.7915 137.247 70.971 137.631 71.066 138.039C71.5242 139.765 70.5679 141.741 69.5369 143.068C68.5059 144.395 65.7117 145.932 64.7404 146.456C65.0741 147.279 65.4079 148.103 65.7714 148.886C66.0304 149.415 66.2396 149.944 66.5285 150.463C66.8174 150.981 67.0814 151.49 67.3503 151.999C67.9082 152.957 68.476 153.95 69.0438 154.873C69.4323 155.517 69.8158 156.121 70.1994 156.734C69.9105 155.906 69.3825 154.275 69.3576 154.135C68.9044 151.924 69.3576 147.389 71.5292 146.152C71.8996 145.958 72.3065 145.844 72.7235 145.817C73.1406 145.791 73.5586 145.852 73.9505 145.997C74.3424 146.143 74.6996 146.369 74.9989 146.661C75.2982 146.953 75.533 147.305 75.6882 147.693C76.4004 149.325 75.7629 151.426 74.9411 152.892C74.0346 154.509 70.8618 156.884 70.4584 157.153C71.0959 158.151 71.7285 159.149 72.3361 160.052C72.6449 160.516 72.9488 160.965 73.2426 161.394L72.1618 162.537C71.8082 162.003 71.4545 161.449 71.0859 160.871C70.4335 159.873 69.7561 158.74 69.0687 157.598C67.8903 158.074 66.6844 158.478 65.4577 158.81C65.4925 160.711 64.2324 164.184 64.063 164.633C65.1538 165.132 66.2197 165.586 67.2308 166.01C67.6471 166.161 68.0731 166.285 68.5059 166.379L67.3553 167.591C67.1104 167.544 66.8703 167.474 66.6381 167.382C65.5274 166.883 64.3519 166.344 63.1516 165.765C62.8776 166.169 60.6213 169.423 59.0324 170.376C57.588 171.244 55.511 171.947 53.8624 171.279C53.4699 171.135 53.1119 170.91 52.8116 170.618C52.5113 170.327 52.2753 169.976 52.119 169.587C51.9627 169.199 51.8895 168.782 51.9041 168.363C51.9187 167.945 52.0208 167.534 52.2038 167.157C53.3793 164.922 57.8869 164.363 60.1033 164.747C60.2378 164.772 61.6274 165.177 62.4991 165.451C62.001 165.211 61.5328 164.987 61.0347 164.737C60.0386 164.239 59.0424 163.74 58.0114 163.176L56.5172 162.318C56.0191 162.038 55.521 161.679 54.9831 161.36C53.8076 160.596 52.6521 159.768 51.4965 158.905C51.0682 159.773 49.5042 162.846 48.1992 163.924C46.8943 165.002 44.9568 166.01 43.2185 165.601C42.8082 165.518 42.42 165.349 42.0788 165.107C41.7377 164.864 41.4512 164.552 41.2381 164.191C41.0249 163.83 40.8897 163.429 40.8414 163.012C40.793 162.596 40.8324 162.174 40.9572 161.774C41.779 159.389 46.1521 158.151 48.4284 158.196C48.5678 158.196 50.1816 158.416 51.0632 158.55C50.3759 158.027 49.6935 157.508 49.0161 156.954C47.0636 155.357 45.141 153.686 43.2135 152.019C42.6257 151.52 42.0281 151.021 41.4353 150.522C41.2859 150.832 39.4978 154.514 38.0434 155.731C36.7484 156.804 34.8059 157.817 33.0626 157.408C32.6524 157.325 32.2642 157.157 31.923 156.914C31.5819 156.671 31.2954 156.359 31.0822 155.998C30.8691 155.638 30.7339 155.236 30.6855 154.82C30.6372 154.403 30.6766 153.981 30.8014 153.581C31.6232 151.196 35.9963 149.959 38.2725 150.004C38.4419 150.004 40.7629 150.323 41.3407 150.428C40.0357 149.32 38.7258 148.227 37.386 147.204C35.589 145.809 33.7021 144.534 31.7378 143.387C31.673 143.532 29.8251 147.379 28.3309 148.631C27.0409 149.704 25.0934 150.717 23.3501 150.308C22.9399 150.225 22.5516 150.057 22.2105 149.814C21.8693 149.571 21.5829 149.259 21.3697 148.898C21.1566 148.538 21.0214 148.136 20.973 147.719C20.9246 147.303 20.9641 146.881 21.0888 146.481C21.9107 144.096 26.2838 142.859 28.56 142.903C28.7343 142.903 31.2297 143.248 31.678 143.338L31.3343 143.128C29.3352 142.03 27.2414 141.115 25.0785 140.394C23.888 139.975 22.7275 139.645 21.5919 139.351C21.3229 140.104 20.0479 143.537 18.8326 144.799C17.6172 146.062 15.8441 147.229 14.0709 147.01C13.6546 146.972 13.2507 146.847 12.8855 146.644C12.5203 146.44 12.2018 146.161 11.9507 145.827C11.6995 145.492 11.5213 145.108 11.4275 144.7C11.3337 144.292 11.3265 143.868 11.4062 143.457C11.9591 140.998 16.1728 139.286 18.4142 139.087C18.5337 139.087 19.7839 139.087 20.6954 139.131C20.1973 139.007 19.6544 138.867 19.1563 138.752C17.2985 138.333 15.5701 138.064 14.041 137.839C13.1644 137.714 12.3775 137.62 11.6353 137.545C10.9828 138.144 8.32808 140.538 6.69439 141.082C5.06069 141.626 2.92394 141.856 1.45461 140.853C1.09876 140.632 0.79315 140.339 0.55756 139.993C0.32197 139.646 0.161656 139.254 0.0869991 138.841C0.0123418 138.429 0.0250059 138.005 0.124172 137.598C0.223338 137.191 0.406795 136.809 0.662662 136.477Z" fill="#263238"/>
<path d="M21.2833 138.947C21.2833 138.992 18.6684 137.375 18.519 137.255C16.7558 135.853 14.1658 132.111 15.0324 129.771C15.1918 129.384 15.4303 129.035 15.7327 128.747C16.035 128.458 16.3944 128.236 16.7877 128.095C17.181 127.954 17.5994 127.897 18.016 127.928C18.4326 127.959 18.8381 128.077 19.2063 128.274C20.8002 129.068 21.6619 131.083 21.9756 132.74C22.3641 134.646 21.2833 138.947 21.2833 138.947Z" fill="#263238"/>
<path d="M110.564 210.995C131.844 210.995 149.095 208.906 149.095 206.33C149.095 203.753 131.844 201.665 110.564 201.665C89.2833 201.665 72.0322 203.753 72.0322 206.33C72.0322 208.906 89.2833 210.995 110.564 210.995Z" fill="#263238"/>
<path d="M207.34 181.013H181.968V189.984H207.34V181.013Z" stroke="#263238" stroke-linecap="round" stroke-linejoin="round"/>
<path d="M206.543 189.969H182.765V204.414H206.543V189.969Z" stroke="#263238" stroke-linecap="round" stroke-linejoin="round"/>
<path d="M197.378 181.063H191.929V204.543H197.378V181.063Z" stroke="#263238" stroke-linecap="round" stroke-linejoin="round"/>
<path d="M194.46 181.008C194.46 181.008 191.735 175.27 188.543 175.929C185.35 176.587 186.954 181.292 194.46 181.008Z" stroke="#263238" stroke-linecap="round" stroke-linejoin="round"/>
<path d="M194.699 181.008C194.699 181.008 197.423 175.27 200.616 175.929C203.809 176.587 202.215 181.292 194.699 181.008Z" stroke="#263238" stroke-linecap="round" stroke-linejoin="round"/>
<path d="M201.801 168.869C201.985 170.186 201.328 171.598 199.356 172.446C197.383 173.294 196.367 170.949 194.285 173.105C192.203 175.26 194.699 181.008 194.699 181.008C194.699 181.008 201.517 180.07 201.801 182.704C202.085 185.339 199.918 186.561 200.581 188.163C201.243 189.765 203.305 188.632 203.49 186.846" stroke="#263238" stroke-linecap="round" stroke-linejoin="round"/>
<path d="M199.351 27.1977C206.508 27.1977 212.311 21.3851 212.311 14.215C212.311 7.04494 206.508 1.23242 199.351 1.23242C192.193 1.23242 186.391 7.04494 186.391 14.215C186.391 21.3851 192.193 27.1977 199.351 27.1977Z" stroke="#263238" stroke-linecap="round" stroke-linejoin="round"/>
<path d="M199.44 24.733V22.9867C197.996 22.9268 196.925 22.4578 196.218 21.5747C195.51 20.6915 195.122 19.4392 195.052 17.8126L197.737 17.3137C197.754 17.8795 197.824 18.4425 197.946 18.9951C198.034 19.432 198.241 19.836 198.544 20.1626C198.687 20.301 198.856 20.4086 199.042 20.4789C199.228 20.5493 199.426 20.5809 199.625 20.5718C199.828 20.5909 200.032 20.56 200.221 20.4818C200.409 20.4035 200.576 20.2802 200.705 20.1227C200.933 19.7849 201.047 19.3826 201.029 18.9752C201.062 18.3288 200.888 17.6888 200.531 17.149C200.142 16.6221 199.694 16.1416 199.196 15.717L197.035 13.826C196.659 13.491 196.316 13.1219 196.009 12.7233C195.711 12.3265 195.477 11.8854 195.316 11.4161C195.137 10.8706 195.051 10.2988 195.062 9.72466C195.031 9.17754 195.111 8.62977 195.299 8.11496C195.487 7.60016 195.777 7.12919 196.153 6.73098C196.95 5.98064 197.998 5.5569 199.092 5.54348V3.85205H199.998V5.52352C200.615 5.54031 201.219 5.70272 201.761 5.99753C202.206 6.25707 202.583 6.61772 202.862 7.05031C203.142 7.50303 203.345 7.99856 203.465 8.51721C203.601 9.06144 203.681 9.61817 203.704 10.1787L201.059 10.6427C201.04 10.1587 200.985 9.6767 200.895 9.20077C200.832 8.83065 200.668 8.48517 200.422 8.20287C200.29 8.07753 200.133 7.98331 199.96 7.92718C199.788 7.87104 199.605 7.85443 199.425 7.87856C199.222 7.87171 199.02 7.90973 198.833 7.98992C198.647 8.07012 198.48 8.19052 198.345 8.34258C198.09 8.65606 197.959 9.05174 197.976 9.45523C197.954 9.97214 198.093 10.483 198.374 10.9172C198.668 11.3177 199.002 11.6871 199.371 12.0198L201.512 13.8909C201.96 14.3007 202.378 14.7426 202.763 15.2131C203.15 15.6967 203.46 16.2368 203.684 16.8147C203.92 17.4531 204.037 18.1297 204.028 18.8105C204.04 19.5134 203.887 20.2092 203.579 20.8412C203.287 21.4235 202.85 21.9202 202.309 22.2832C201.723 22.6623 201.052 22.8918 200.357 22.9518V24.733H199.44Z" fill="#263238"/>
<path d="M34.3664 13.9329C36.6729 13.3939 38.1066 11.0839 37.5686 8.77339C37.0305 6.46284 34.7246 5.02667 32.418 5.56563C30.1115 6.10459 28.6779 8.41458 29.2159 10.7251C29.7539 13.0357 32.0599 14.4719 34.3664 13.9329Z" stroke="#263238" stroke-linecap="round" stroke-linejoin="round"/>
<path d="M39.5228 22.1034C39.4083 18.1618 36.7087 15.0034 33.3915 15.0034C30.0743 15.0034 27.3797 18.1618 27.2651 22.1034" stroke="#263238" stroke-linecap="round" stroke-linejoin="round"/>
<path d="M43.2532 12.5932C45.2228 12.5932 46.8195 10.9937 46.8195 9.02071C46.8195 7.04769 45.2228 5.44824 43.2532 5.44824C41.2837 5.44824 39.687 7.04769 39.687 9.02071C39.687 10.9937 41.2837 12.5932 43.2532 12.5932Z" stroke="#263238" stroke-linecap="round" stroke-linejoin="round"/>
<path d="M48.3437 19.2943C48.249 16.0012 46.0326 13.3867 43.2533 13.3867C42.3502 13.419 41.4731 13.6984 40.7172 14.1944C39.9612 14.6905 39.3552 15.3843 38.9648 16.2008" stroke="#263238" stroke-linecap="round" stroke-linejoin="round"/>
<path d="M23.6488 12.5932C25.6183 12.5932 27.215 10.9937 27.215 9.02071C27.215 7.04769 25.6183 5.44824 23.6488 5.44824C21.6792 5.44824 20.0825 7.04769 20.0825 9.02071C20.0825 10.9937 21.6792 12.5932 23.6488 12.5932Z" stroke="#263238" stroke-linecap="round" stroke-linejoin="round"/>
<path d="M18.5586 19.2943C18.6383 16.0012 20.8946 13.3867 23.649 13.3867C24.5521 13.4214 25.4289 13.7016 26.1852 14.1973C26.9416 14.6931 27.549 15.3856 27.9424 16.2008" stroke="#263238" stroke-linecap="round" stroke-linejoin="round"/>
<path d="M32.2609 200.15C39.3276 199.012 44.1347 192.349 42.9977 185.27C41.8607 178.191 35.2103 173.376 28.1436 174.515C21.0769 175.654 16.2698 182.316 17.4068 189.395C18.5438 196.474 25.1942 201.289 32.2609 200.15Z" stroke="#263238" stroke-linecap="round" stroke-linejoin="round"/>
<path d="M30.1885 180.036V194.64" stroke="#263238" stroke-width="4" stroke-linecap="round" stroke-linejoin="round"/>
<path d="M37.4807 187.34H22.897" stroke="#263238" stroke-width="4" stroke-linecap="round" stroke-linejoin="round"/>
<path d="M151.426 26.6287V178.039C151.426 180.035 150.634 181.949 149.226 183.36C147.817 184.771 145.907 185.563 143.915 185.563H78.6067C76.6147 185.563 74.7042 184.771 73.2956 183.36C71.887 181.949 71.0957 180.035 71.0957 178.039V26.6287C71.0957 24.634 71.8864 22.721 73.2939 21.3101C74.7014 19.8992 76.6106 19.1059 78.6017 19.1045H106.634L106.658 19.1943C107.356 21.6891 108.965 23.3506 110.748 23.3506H111.744C113.532 23.3506 115.141 21.709 115.838 19.1943L115.863 19.1045H143.89C144.878 19.1013 145.858 19.2934 146.772 19.6701C147.686 20.0468 148.517 20.6005 149.217 21.2995C149.917 21.9985 150.473 22.829 150.852 23.7435C151.231 24.658 151.426 25.6385 151.426 26.6287Z" fill="white" stroke="#263238" stroke-linecap="round" stroke-linejoin="round"/>
<path d="M156.531 62.7926V47.6695H155.166V28.3103C155.166 25.145 153.911 22.1093 151.677 19.8711C149.442 17.6329 146.412 16.3755 143.252 16.3755H79.2641C76.1043 16.3755 73.0739 17.6329 70.8396 19.8711C68.6053 22.1093 67.3501 25.145 67.3501 28.3103V182.151C67.3501 185.316 68.6053 188.352 70.8396 190.59C73.0739 192.828 76.1043 194.086 79.2641 194.086H143.252C146.412 194.086 149.442 192.828 151.677 190.59C153.911 188.352 155.166 185.316 155.166 182.151V75.6804H156.531V66.7443H155.166V62.7926H156.531ZM151.426 173.629C151.424 176.794 150.169 179.829 147.935 182.067C145.701 184.305 142.671 185.562 139.512 185.564H83.0097C79.8499 185.564 76.8195 184.306 74.5852 182.068C72.3509 179.83 71.0956 176.794 71.0956 173.629V31.0396C71.0956 27.8742 72.3509 24.8386 74.5852 22.6004C76.8195 20.3621 79.8499 19.1047 83.0097 19.1047H106.634L106.658 19.1945C107.356 21.6893 108.965 23.3508 110.748 23.3508H111.744C113.532 23.3508 115.141 21.7092 115.838 19.1945L115.863 19.1047H139.487C141.053 19.1021 142.605 19.4088 144.053 20.0074C145.501 20.6059 146.817 21.4845 147.926 22.593C149.035 23.7014 149.915 25.018 150.515 26.4673C151.116 27.9166 151.425 29.4703 151.426 31.0396V173.629Z" fill="#9759C4" stroke="#263238" stroke-linecap="round" stroke-linejoin="round"/>
<path d="M142.301 18.022H80.2206C78.7117 18.022 77.2175 18.3197 75.8234 18.8982C74.4292 19.4766 73.1625 20.3245 72.0955 21.3934C71.0285 22.4623 70.1821 23.7312 69.6046 25.1277C69.0272 26.5243 68.73 28.0211 68.73 29.5327V180.933C68.73 183.986 69.9406 186.914 72.0955 189.073C74.2504 191.231 77.1731 192.444 80.2206 192.444H142.301C143.81 192.444 145.304 192.146 146.698 191.568C148.091 190.989 149.358 190.141 150.424 189.072C151.491 188.003 152.337 186.734 152.914 185.338C153.491 183.941 153.787 182.445 153.787 180.933V29.5327C153.787 28.0213 153.491 26.5246 152.914 25.1281C152.337 23.7316 151.491 22.4626 150.424 21.3937C149.358 20.3248 148.091 19.4768 146.698 18.8983C145.304 18.3197 143.81 18.022 142.301 18.022ZM151.426 174.053C151.426 177.106 150.215 180.034 148.06 182.192C145.905 184.351 142.983 185.564 139.935 185.564H82.5865C79.539 185.564 76.6163 184.351 74.4614 182.192C72.3065 180.034 71.0959 177.106 71.0959 174.053V30.6104C71.0959 27.5589 72.3059 24.6324 74.4599 22.4746C76.6139 20.3169 79.5353 19.1047 82.5815 19.1047H106.634L106.659 19.1945C107.356 21.6892 108.965 23.3507 110.748 23.3507H111.744C113.532 23.3507 115.141 21.7092 115.838 19.1945L115.863 19.1047H139.91C141.421 19.1014 142.918 19.3967 144.315 19.9737C145.712 20.5507 146.982 21.3981 148.052 22.4673C149.121 23.5365 149.97 24.8065 150.549 26.2047C151.128 27.6029 151.426 29.1017 151.426 30.6154V174.053Z" fill="#263238" stroke="#263238" stroke-linecap="round" stroke-linejoin="round"/>
<path d="M112.132 19.6784C112.133 19.4559 112.068 19.2382 111.946 19.0528C111.823 18.8674 111.648 18.7228 111.443 18.6372C111.238 18.5516 111.012 18.529 110.794 18.5721C110.577 18.6153 110.376 18.7223 110.219 18.8796C110.062 19.0369 109.955 19.2374 109.912 19.4556C109.869 19.6739 109.892 19.9 109.977 20.1053C110.063 20.3107 110.207 20.4859 110.392 20.6089C110.577 20.7319 110.795 20.797 111.017 20.796C111.313 20.796 111.596 20.6783 111.806 20.4687C112.015 20.2591 112.132 19.9748 112.132 19.6784Z" fill="white"/>
<path d="M78.2329 23.9842C78.2329 25.1169 76.9628 25.526 76.9578 26.3892V26.449H78.1931V26.8332H76.5444V26.479C76.5444 25.2665 77.8145 25.027 77.8145 23.9842C77.8145 23.6001 77.69 23.3955 77.3762 23.3955C77.0624 23.3955 76.9379 23.615 76.9379 23.9493V24.2836H76.5444V23.9842C76.5444 23.4105 76.8084 23.0312 77.3862 23.0312C77.964 23.0312 78.2329 23.3955 78.2329 23.9842Z" fill="#263238"/>
<path d="M80.2903 23.9845V24.0793C80.3096 24.2408 80.2752 24.4041 80.1923 24.5439C80.1095 24.6838 79.9828 24.7923 79.8321 24.8527C79.9836 24.9149 80.1106 25.0253 80.1933 25.1668C80.2761 25.3083 80.3102 25.4732 80.2903 25.636V25.9254C80.2903 26.4992 80.0214 26.8734 79.4436 26.8734C78.8658 26.8734 78.6019 26.4992 78.6019 25.9254V25.666H78.9904V25.9504C78.9904 26.2897 79.1298 26.4942 79.4336 26.4942C79.7375 26.4942 79.872 26.2946 79.872 25.9154V25.6211C79.872 25.2518 79.7176 25.0772 79.3988 25.0622H79.1746V24.688H79.4038C79.4673 24.6883 79.5301 24.6753 79.5882 24.6497C79.6464 24.6241 79.6985 24.5866 79.7412 24.5396C79.7839 24.4925 79.8163 24.437 79.8363 24.3767C79.8562 24.3163 79.8633 24.2524 79.857 24.1891V23.9845C79.857 23.6003 79.7225 23.4007 79.4187 23.4007C79.1149 23.4007 78.9754 23.6103 78.9754 23.9496V24.1442H78.5869V23.9845C78.5869 23.4107 78.8559 23.0415 79.4287 23.0415C80.0015 23.0415 80.2903 23.3908 80.2903 23.9845Z" fill="#263238"/>
<path d="M81.0972 24.249V24.748H80.6987V24.249H81.0972ZM81.0972 26.2947V26.8186H80.6987V26.2947H81.0972Z" fill="#263238"/>
<path d="M81.9486 24.5884C82.0029 24.4894 82.0841 24.4077 82.1829 24.353C82.2816 24.2983 82.3938 24.2726 82.5064 24.2791C83.0045 24.2791 83.1987 24.6333 83.1987 25.1672V25.9056C83.1987 26.4794 82.9298 26.8536 82.352 26.8536C81.7742 26.8536 81.5103 26.4794 81.5103 25.9056V25.6512H81.8938V25.9306C81.8938 26.2699 82.0332 26.4744 82.3321 26.4744C82.6309 26.4744 82.7754 26.2699 82.7754 25.9306V25.2021C82.7754 24.8628 82.6359 24.6583 82.3321 24.6583C82.2776 24.6563 82.2233 24.6652 82.1723 24.6846C82.1214 24.7039 82.0748 24.7333 82.0354 24.7709C81.9959 24.8086 81.9644 24.8538 81.9426 24.9038C81.9209 24.9539 81.9093 25.0078 81.9087 25.0624V25.1472H81.5202L81.6198 23.0566H83.1141V23.4309H82.0083L81.9486 24.5884Z" fill="#263238"/>
<path d="M85.2858 23.9845V24.0543H84.8824V23.9346C84.8824 23.5953 84.7429 23.3957 84.4391 23.3957C84.1353 23.3957 83.9809 23.6003 83.9809 24.0044V24.8476C84.0242 24.723 84.107 24.616 84.2168 24.543C84.3265 24.47 84.4571 24.4351 84.5885 24.4435C85.0866 24.4435 85.2858 24.7927 85.2858 25.3366V25.9054C85.2858 26.4792 84.997 26.8534 84.4242 26.8534C83.8514 26.8534 83.5625 26.4792 83.5625 25.9054V23.9845C83.5625 23.3907 83.8315 23.0215 84.4242 23.0215C85.0169 23.0215 85.2858 23.3857 85.2858 23.9845ZM83.9958 25.3915V25.9304C83.9958 26.2696 84.1353 26.4742 84.4391 26.4742C84.7429 26.4742 84.8874 26.2696 84.8874 25.9304V25.3665C84.8874 25.0273 84.7429 24.8227 84.4391 24.8227C84.1353 24.8227 83.9958 25.0273 83.9958 25.3665V25.3915Z" fill="#263238"/>
<path d="M126.268 24.1289H125.207V26.7833H126.268V24.1289Z" fill="#263238"/>
<path d="M127.682 23.5952H126.622V26.7835H127.682V23.5952Z" fill="#263238"/>
<path d="M129.092 23.2158H128.031V26.7783H129.092V23.2158Z" fill="#263238"/>
<path d="M130.506 22.5625H129.445V26.7836H130.506V22.5625Z" fill="#263238"/>
<path d="M143.621 26.7038H137.26V22.812H143.621V26.7038ZM137.614 26.3545H143.267V23.1663H137.614V26.3545Z" fill="#263238"/>
<path d="M141.504 23.5552H138.147V25.9701H141.504V23.5552Z" fill="#263238"/>
<path d="M144.204 24.3037H143.402V25.2218H144.204V24.3037Z" fill="#263238"/>
<path d="M134.929 25.8603C134.887 25.8605 134.845 25.8484 134.81 25.8254C133.515 25.057 132.658 25.7705 132.623 25.8254C132.601 25.8476 132.575 25.8652 132.547 25.8772C132.518 25.8892 132.487 25.8954 132.456 25.8954C132.425 25.8954 132.395 25.8892 132.366 25.8772C132.337 25.8652 132.311 25.8476 132.29 25.8254C132.246 25.7807 132.222 25.7207 132.222 25.6582C132.222 25.5958 132.246 25.5358 132.29 25.4911C132.339 25.4512 133.43 24.4932 135.034 25.4911C135.061 25.507 135.084 25.528 135.102 25.553C135.121 25.578 135.134 25.6064 135.142 25.6365C135.149 25.6667 135.15 25.6981 135.146 25.7288C135.141 25.7595 135.13 25.7889 135.114 25.8154C135.087 25.8348 135.058 25.8488 135.026 25.8565C134.994 25.8642 134.962 25.8655 134.929 25.8603Z" fill="#263238"/>
<path d="M135.408 25.0571C135.366 25.0567 135.325 25.0465 135.288 25.0272C133.415 23.9095 132.16 24.9923 132.145 25.0272C132.097 25.0629 132.037 25.0791 131.977 25.0726C131.918 25.0662 131.863 25.0375 131.823 24.9922C131.784 24.947 131.763 24.8886 131.764 24.8285C131.766 24.7684 131.79 24.7111 131.831 24.668C131.831 24.668 133.366 23.3507 135.532 24.668C135.559 24.6838 135.582 24.7049 135.601 24.7299C135.619 24.7548 135.632 24.7832 135.64 24.8134C135.647 24.8436 135.649 24.8749 135.644 24.9056C135.639 24.9363 135.628 24.9658 135.612 24.9923C135.585 25.0186 135.553 25.0382 135.518 25.0495C135.482 25.0608 135.444 25.0634 135.408 25.0571Z" fill="#263238"/>
<path d="M135.846 24.1341C135.802 24.135 135.758 24.1229 135.721 24.0992C133.35 22.6872 131.776 24.0194 131.712 24.0992C131.688 24.1198 131.661 24.1356 131.632 24.1455C131.602 24.1554 131.571 24.1594 131.54 24.157C131.509 24.1547 131.478 24.1462 131.45 24.132C131.423 24.1178 131.398 24.0981 131.378 24.0743C131.356 24.0524 131.338 24.0264 131.326 23.9977C131.314 23.969 131.308 23.9382 131.308 23.9071C131.308 23.876 131.314 23.8452 131.326 23.8165C131.338 23.7878 131.356 23.7618 131.378 23.74C131.378 23.74 133.271 22.1234 135.945 23.74C135.999 23.7731 136.038 23.826 136.054 23.8875C136.07 23.9489 136.061 24.0141 136.03 24.0693C136.006 24.0925 135.977 24.1102 135.945 24.1214C135.913 24.1326 135.879 24.1369 135.846 24.1341Z" fill="#263238"/>
<path d="M134.217 26.2594C134.217 26.3778 134.182 26.4936 134.116 26.592C134.05 26.6905 133.957 26.7672 133.848 26.8126C133.739 26.8579 133.619 26.8697 133.503 26.8466C133.387 26.8235 133.28 26.7665 133.197 26.6828C133.113 26.599 133.056 26.4924 133.033 26.3762C133.01 26.2601 133.022 26.1397 133.067 26.0303C133.112 25.9209 133.189 25.8274 133.287 25.7616C133.385 25.6958 133.501 25.6607 133.619 25.6607C133.698 25.66 133.776 25.675 133.849 25.7049C133.922 25.7347 133.988 25.7788 134.043 25.8346C134.099 25.8903 134.143 25.9565 134.173 26.0295C134.203 26.1024 134.218 26.1806 134.217 26.2594Z" fill="#263238"/>
<path d="M32.3252 46.6968H38.1328" stroke="#263238" stroke-linecap="round" stroke-linejoin="round"/>
<path d="M77.3467 46.6968H83.1543" stroke="#263238" stroke-linecap="round" stroke-linejoin="round"/>
<path d="M38.1328 31.4189L41.4002 33.9686" stroke="#263238" stroke-linecap="round" stroke-linejoin="round"/>
<path d="M76.6194 31.4189L73.3521 33.9686" stroke="#263238" stroke-linecap="round" stroke-linejoin="round"/>
<path d="M51.2021 25.2368L51.5657 30.6903" stroke="#263238" stroke-linecap="round" stroke-linejoin="round"/>
<path d="M63.9132 25.9653L63.186 30.6904" stroke="#263238" stroke-linecap="round" stroke-linejoin="round"/>
<path d="M72.1513 39.8809H40.8022V66.9787H72.1513V39.8809Z" fill="white" stroke="#263238" stroke-linecap="round" stroke-linejoin="round"/>
<path d="M52.4425 39.8809H46.5303V66.9787H52.4425V39.8809Z" fill="#9759C4" stroke="#263238" stroke-linecap="round" stroke-linejoin="round"/>
<path d="M72.1516 39.8809H58.4097V66.9787H72.1516V39.8809Z" fill="white" stroke="#263238" stroke-linecap="round" stroke-linejoin="round"/>
<path d="M54.2657 37.6705L49.6685 35.6747C49.5558 35.6651 49.4425 35.6651 49.3298 35.6747L49.2551 35.6348H44.6279L48.234 37.3312C48.2523 37.585 48.2906 37.8369 48.3486 38.0846C48.4693 38.4632 48.6824 38.8056 48.9685 39.0809C49.2546 39.3562 49.6048 39.5557 49.9873 39.6613L50.0171 39.806H50.5152L58.5193 39.9157C58.5193 39.9157 56.4473 38.7731 54.2657 37.6705Z" fill="#9759C4" stroke="#263238" stroke-linecap="round" stroke-linejoin="round"/>
<path d="M53.8968 39.8812C53.8968 39.8812 48.916 37.1918 46.2164 36.0093C43.5168 34.8268 43.4222 36.653 43.726 38.05C44.0298 39.4471 45.8727 39.7714 45.8727 39.7714L53.8968 39.8812Z" fill="#9759C4" stroke="#263238" stroke-linecap="round" stroke-linejoin="round"/>
<path d="M55.0824 37.9199H53.3242C53.0735 37.9193 52.8251 37.9683 52.5934 38.0641C52.3616 38.1599 52.151 38.3006 51.9738 38.4782C51.7965 38.6557 51.656 38.8667 51.5604 39.0988C51.4648 39.331 51.4159 39.5798 51.4165 39.8309H56.99C56.99 39.3241 56.789 38.838 56.4313 38.4796C56.0735 38.1213 55.5883 37.9199 55.0824 37.9199Z" fill="#9759C4" stroke="#263238" stroke-linecap="round" stroke-linejoin="round"/>
<path d="M66.0701 35.6546H62.0058L61.4778 37.6504C59.2962 38.7531 57.2441 39.8607 57.2441 39.8607L65.2483 39.751H65.7463L65.7712 39.6063C66.1546 39.5014 66.5058 39.3023 66.7928 39.0269C67.0799 38.7516 67.2937 38.4088 67.4149 38.0296C67.659 36.892 67.6291 35.46 66.0701 35.6546Z" fill="#9759C4" stroke="#263238" stroke-linecap="round" stroke-linejoin="round"/>
<path d="M52.4424 39.8812C52.4424 39.8812 57.4232 37.1918 60.1277 36.0093C62.8323 34.8268 62.917 36.653 62.5932 38.05C62.2695 39.4471 60.4465 39.7714 60.4465 39.7714L52.4424 39.8812Z" fill="#9759C4" stroke="#263238" stroke-linecap="round" stroke-linejoin="round"/>
<path d="M41.8238 68.8894C41.8238 68.8894 39.2039 67.1431 39.7767 66.5893C40.3495 66.0355 43.1636 67.2529 43.8062 68.0861C44.4487 68.9194 44.1249 69.4782 43.592 69.5281C43.059 69.578 41.8238 68.8894 41.8238 68.8894Z" fill="white" stroke="#263238" stroke-linecap="round" stroke-linejoin="round"/>
<path d="M44.0403 66.8539C44.0403 66.8539 39.981 64.7433 40.9572 66.6942C41.9335 68.6451 44.3641 70.4363 45.3403 70.9253C46.3165 71.4143 51.6759 71.2496 51.6759 71.2496C51.6759 71.2496 50.6797 69.4584 49.7234 68.9694C48.7671 68.4804 44.0403 66.8539 44.0403 66.8539Z" fill="white" stroke="#263238" stroke-linecap="round" stroke-linejoin="round"/>
<path d="M47.9354 66.8537C47.9354 66.8537 42.5761 63.9299 42.4117 65.0675C42.2474 66.2051 46.6354 69.9472 48.0948 70.5958C49.2399 71.0202 50.4501 71.2413 51.671 71.2495L47.9354 66.8537Z" fill="white" stroke="#263238" stroke-linecap="round" stroke-linejoin="round"/>
<path d="M69.0438 71.8833C69.0438 71.8833 67.0963 67.328 65.6319 66.6793C64.1676 66.0307 51.0183 67.3279 51.0183 67.3279C51.0183 67.3279 44.6827 62.1239 45.1709 64.7234C45.659 67.323 49.7183 70.4214 50.8539 71.2098C51.9896 71.9981 60.437 71.7087 60.437 71.7087L63.0369 74.1486L69.0438 71.8833Z" fill="white" stroke="#263238" stroke-linecap="round" stroke-linejoin="round"/>
<path d="M148.995 79.1978C148.691 79.788 148.61 80.4682 148.766 81.1137C149.021 81.7511 149.412 82.325 149.912 82.7952L150.295 85.1702L155.495 85.3997L153.353 77.4165L148.995 79.1978Z" fill="white" stroke="#263238" stroke-linecap="round" stroke-linejoin="round"/>
<path d="M145.464 64.3993C145.464 64.3993 147.631 78.5195 147.954 79.3677C148.278 80.2159 150.773 81.2138 151.645 80.7797C152.517 80.3457 150.993 78.285 150.993 78.285L151.426 64.7086C151.426 64.7086 147.74 63.3016 145.464 64.3993Z" fill="#263238" stroke="#263238" stroke-linecap="round" stroke-linejoin="round"/>
<path d="M151.536 68.8396C151.536 68.8396 148.497 68.625 148.388 69.1689C148.278 69.7127 148.283 71.5539 148.826 71.7734C149.369 71.9929 153.055 72.3172 153.702 72.0977C153.919 71.9875 154.112 71.8346 154.268 71.6481C154.424 71.4617 154.542 71.2455 154.613 71.0126C154.684 70.7797 154.707 70.5349 154.682 70.2927C154.656 70.0504 154.582 69.8159 154.464 69.603C153.812 68.625 151.536 68.8396 151.536 68.8396Z" fill="white" stroke="#263238" stroke-linecap="round" stroke-linejoin="round"/>
<path d="M151.536 72.3174C151.536 72.3174 148.607 72.3174 148.716 72.966C148.826 73.6146 148.497 75.0316 149.713 75.2512C151.154 75.4306 152.615 75.3937 154.046 75.1414C154.289 75.0961 154.515 74.981 154.694 74.81C154.874 74.639 155 74.4195 155.057 74.1781C155.115 73.9367 155.101 73.6838 155.018 73.4501C154.935 73.2163 154.786 73.0118 154.589 72.8612C153.702 72.0978 151.536 72.3174 151.536 72.3174Z" fill="white" stroke="#263238" stroke-linecap="round" stroke-linejoin="round"/>
<path d="M146.829 73.1506C146.829 73.1506 146.455 70.4164 145.574 70.4913C144.916 70.5461 143.347 71.0451 143.492 72.2475C143.74 73.683 144.203 75.0725 144.866 76.3689C144.981 76.589 145.157 76.7711 145.373 76.893C145.589 77.0148 145.836 77.0713 146.083 77.0554C146.33 77.0396 146.568 76.9521 146.767 76.8037C146.965 76.6552 147.117 76.4522 147.202 76.2192C147.676 75.1664 146.829 73.1506 146.829 73.1506Z" fill="white" stroke="#263238" stroke-linecap="round" stroke-linejoin="round"/>
<path d="M151.7 75.2462C151.7 75.2462 149.05 75.2462 149.15 75.8749C149.249 76.5035 148.95 77.8706 150.031 78.0702C151.337 78.2414 152.661 78.206 153.956 77.9655C154.183 77.9102 154.39 77.7927 154.554 77.6261C154.718 77.4595 154.832 77.2504 154.884 77.0223C154.936 76.7942 154.923 76.5561 154.847 76.3349C154.771 76.1137 154.635 75.9181 154.454 75.7701C153.662 75.0416 151.7 75.2462 151.7 75.2462Z" fill="white" stroke="#263238" stroke-linecap="round" stroke-linejoin="round"/>
<path d="M151.825 77.6311C151.825 77.6311 149.608 77.6311 149.693 78.1301C149.777 78.629 149.528 79.7916 150.43 79.9662C151.522 80.1137 152.63 80.085 153.712 79.8814C153.901 79.8338 154.073 79.7345 154.209 79.5946C154.345 79.4548 154.439 79.2799 154.481 79.0894C154.524 78.899 154.513 78.7005 154.449 78.5161C154.385 78.3318 154.272 78.1687 154.121 78.0453C153.468 77.4565 151.825 77.6311 151.825 77.6311Z" fill="white" stroke="#263238" stroke-linecap="round" stroke-linejoin="round"/>
<path d="M144.861 50.0992C143.456 50.1043 142.082 50.5091 140.897 51.2664C139.713 52.0238 138.768 53.1025 138.172 54.3771C137.576 55.6516 137.354 57.0695 137.531 58.4657C137.708 59.8619 138.278 61.179 139.173 62.2635C140.533 63.9051 142.759 65.0826 144.881 64.9479C151.386 64.5487 168.44 73.6994 168.44 73.6994V41.3477C168.44 41.3477 151.625 50.2339 144.861 50.0992Z" fill="white" stroke="#263238" stroke-linecap="round" stroke-linejoin="round"/>
<path d="M143.536 57.7882C143.536 56.1179 143.986 54.4786 144.838 53.0429C145.69 51.6072 146.913 50.4283 148.378 49.6304C147.228 49.926 146.048 50.0835 144.861 50.0994C143.456 50.1045 142.082 50.5093 140.897 51.2666C139.713 52.024 138.768 53.1027 138.172 54.3772C137.576 55.6518 137.354 57.0697 137.531 58.4659C137.708 59.8621 138.278 61.1792 139.173 62.2637C140.533 63.9053 142.759 65.0828 144.881 64.9481C145.635 64.9185 146.39 64.9704 147.132 65.1027C146.016 64.2392 145.111 63.1311 144.488 61.8633C143.864 60.5954 143.539 59.2014 143.536 57.7882Z" fill="#9759C4" stroke="#263238" stroke-linecap="round" stroke-linejoin="round"/>
<path d="M184.102 61.3468C186.211 52.6665 180.896 43.917 172.231 41.8042C163.566 39.6914 154.832 45.0153 152.723 53.6956C150.614 62.3758 155.928 71.1254 164.593 73.2382C173.259 75.351 181.993 70.027 184.102 61.3468Z" fill="white" stroke="#263238" stroke-linecap="round" stroke-linejoin="round"/>
<path d="M182.182 57.5237C182.183 60.2515 181.377 62.9183 179.864 65.1869C178.352 67.4555 176.203 69.2239 173.687 70.2684C171.172 71.313 168.403 71.5868 165.733 71.0552C163.062 70.5237 160.608 69.2106 158.682 67.2821C156.757 65.3536 155.445 62.8963 154.913 60.221C154.382 57.5457 154.654 54.7726 155.696 52.2523C156.738 49.7321 158.502 47.5779 160.766 46.0623C163.03 44.5467 165.692 43.7378 168.415 43.7378C172.065 43.7391 175.565 45.1918 178.147 47.7768C180.728 50.3617 182.18 53.8674 182.182 57.5237Z" fill="#A6A6A6" stroke="#263238" stroke-linecap="round" stroke-linejoin="round"/>
<path d="M168.415 54.1557V60.9065L157.826 66.34C156.213 64.3885 155.167 62.0301 154.803 59.5229C154.438 57.0157 154.769 54.4564 155.759 52.125L168.415 54.1557Z" fill="white" stroke="#263238" stroke-linecap="round" stroke-linejoin="round"/>
<path d="M171.777 57.5237C171.777 58.19 171.58 58.8413 171.21 59.3953C170.841 59.9492 170.315 60.3809 169.701 60.6357C169.086 60.8904 168.41 60.9568 167.758 60.8265C167.105 60.6961 166.506 60.3749 166.036 59.9034C165.566 59.4318 165.246 58.8313 165.117 58.1776C164.988 57.524 165.055 56.8467 165.311 56.2314C165.566 55.616 165.998 55.0904 166.551 54.7209C167.105 54.3515 167.755 54.1548 168.42 54.1558C169.311 54.1571 170.165 54.5125 170.794 55.144C171.424 55.7754 171.777 56.6313 171.777 57.5237Z" fill="white" stroke="#263238" stroke-linecap="round" stroke-linejoin="round"/>
<path d="M149.204 85.3846L148.671 83.1244L155.649 82.2612L155.495 85.3996L149.204 85.3846Z" fill="white" stroke="#263238" stroke-linecap="round" stroke-linejoin="round"/>
<path d="M62.6186 75.0517L61.0098 72.4721L68.4212 68.7051L69.0438 71.8684L62.6186 75.0517Z" fill="white" stroke="#263238" stroke-linecap="round" stroke-linejoin="round"/>
<path d="M107.67 71.3147C107.67 71.3147 95.7559 69.9875 94.7199 70.5163C93.6839 71.0452 78.5722 88.9475 78.5722 88.9475L69.288 70.3866L61.4731 73.8294C61.4731 73.8294 71.2654 107.259 72.8542 107.638C74.4431 108.017 89.5299 97.9635 89.5299 97.9635L88.6035 111.22C88.6035 111.22 91.3827 122.357 103.695 124.478C116.008 126.598 123.28 117.053 124.869 113.87C126.051 111.333 127.068 108.721 127.912 106.051L133.605 89.2119C133.605 89.2119 149.633 102.319 153.199 103.926C156.765 105.532 160.078 106.979 160.476 106.181C160.875 105.383 156.905 84.1725 156.905 84.1725L148.438 84.5717L148.836 87.8847C148.836 87.8847 137.848 73.4152 136.922 71.9733C135.996 70.5313 133.216 70.7808 129.909 69.8527C126.602 68.9247 107.67 71.3147 107.67 71.3147Z" fill="#9759C4" stroke="#263238" stroke-linecap="round" stroke-linejoin="round"/>
<path d="M89.5347 97.9635L98.4054 91.3325" stroke="#263238" stroke-linecap="round" stroke-linejoin="round"/>
<path d="M95.2275 93.8519L99.7252 93.0586" stroke="#263238" stroke-linecap="round" stroke-linejoin="round"/>
<path d="M133.61 89.212L136.653 78.4746" stroke="#263238" stroke-linecap="round" stroke-linejoin="round"/>
<path d="M134.8 85.7642L138.108 81.124" stroke="#263238" stroke-linecap="round" stroke-linejoin="round"/>
<path d="M149.225 95.6084L149.359 98.2279" stroke="#263238" stroke-linecap="round" stroke-linejoin="round"/>
<path d="M148.831 87.8896L149.07 92.6147" stroke="#263238" stroke-linecap="round" stroke-linejoin="round"/>
<path d="M78.5522 88.9473L81.3315 94.78" stroke="#263238" stroke-linecap="round" stroke-linejoin="round"/>
<path d="M112.167 69.8528L106.345 70.9155C106.345 70.9155 104.228 72.6369 103.038 76.6135C102.315 79.0428 101.783 81.5252 101.449 84.0379L106.479 84.3073L102.495 88.2989C102.495 88.2989 103.69 90.0202 106.2 93.7324C108.184 96.5311 110.347 99.1977 112.675 101.716L105.304 111.221C105.304 111.221 114.304 109.225 119.863 103.133C125.421 97.0404 128.714 87.8847 128.714 87.8847L124.345 84.437L128.978 83.509C128.978 83.509 129.904 75.9549 124.993 71.0353C120.082 66.1157 112.167 69.8528 112.167 69.8528Z" fill="#9759C4" stroke="#263238" stroke-linecap="round" stroke-linejoin="round"/>
<path d="M125.272 73.0357C125.272 73.0357 123.728 76.0993 123.419 81.7873C123.18 86.2279 120.854 91.886 118.802 95.8875C117.173 99.0708 115.714 101.206 115.609 100.877C115.609 100.877 114.752 99.4999 113.383 95.4884C113.049 94.5304 112.69 93.4128 112.302 92.1205C110.31 85.4895 108.596 74.7521 109.388 72.6316C109.76 71.5863 110.202 70.5677 110.713 69.583C117.068 78.2048 125.272 73.0357 125.272 73.0357Z" fill="white" stroke="#263238" stroke-linecap="round" stroke-linejoin="round"/>
<path d="M117.198 91.2026L118.802 95.8877C117.173 99.071 115.714 101.206 115.609 100.877C115.609 100.877 114.753 99.5001 113.383 95.4885L115.609 91.462L113.398 87.3158L116.008 84.6963L119.579 88.2787L117.198 91.2026Z" fill="#263238" stroke="#263238" stroke-linecap="round" stroke-linejoin="round"/>
<path d="M111.64 89.2116L116.008 84.7061L121.327 89.7305" stroke="#263238" stroke-linecap="round" stroke-linejoin="round"/>
<path d="M110.713 69.5884C110.862 72.2595 111.397 74.8948 112.302 77.4119C113.304 79.9537 114.545 82.3945 116.007 84.7015L122.238 75.8202C122.238 75.8202 115.479 76.4838 110.713 69.5884Z" stroke="#263238" stroke-linecap="round" stroke-linejoin="round"/>
<path d="M129.645 55.5379C129.645 55.5379 131.538 55.2436 131.538 57.8331C131.538 60.4226 130.442 63.6109 130.442 63.6109L129.645 55.5379Z" fill="white" stroke="#263238" stroke-linecap="round" stroke-linejoin="round"/>
<path d="M128.978 45.9878C128.978 45.9878 130.302 58.0523 130.432 61.6348C130.561 65.2172 130.168 68.3955 128.978 69.9871C127.787 71.5788 123.001 77.9404 120.51 78.2048C118.02 78.4692 115.216 77.147 114.16 76.209C113.104 75.271 108.068 67.3228 108.068 67.3228C108.068 67.3228 104.233 67.0583 103.307 62.0189C102.38 56.9796 107.54 58.177 107.54 58.177C107.54 58.177 104.761 53.8013 104.497 49.5602C104.233 45.3192 103.436 43.7225 114.822 43.4581C126.208 43.1936 128.978 45.9878 128.978 45.9878Z" fill="white" stroke="#263238" stroke-linecap="round" stroke-linejoin="round"/>
<path d="M123.021 54.4751L126.198 65.4819L121.302 64.02" stroke="#263238" stroke-linecap="round" stroke-linejoin="round"/>
<path d="M116.406 62.6978L112.566 63.4911" stroke="#263238" stroke-linecap="round" stroke-linejoin="round"/>
<path d="M114.553 63.3564C114.921 64.4824 115.602 65.4798 116.516 66.2318C117.43 66.9839 118.539 67.4593 119.713 67.6025C123.947 68.2611 126.064 67.4678 126.064 67.4678" stroke="#263238" stroke-linecap="round" stroke-linejoin="round"/>
<path d="M115.609 65.4771C115.609 65.4771 115.48 72.1081 117.86 72.3725C120.241 72.6369 119.713 67.6026 119.713 67.6026C118.21 67.1943 116.811 66.4697 115.609 65.4771Z" fill="#263238" stroke="#263238" stroke-linecap="round" stroke-linejoin="round"/>
<path d="M116.097 70.062C116.421 71.2695 116.964 72.2723 117.86 72.3721C118.086 72.404 118.316 72.3745 118.526 72.2867C118.737 72.199 118.919 72.0561 119.056 71.8732C118.593 71.0599 116.994 70.3863 116.097 70.062Z" fill="white" stroke="#263238" stroke-linecap="round" stroke-linejoin="round"/>
<path d="M117.258 57.5235C117.258 58.2569 116.934 58.8507 116.53 58.8507C116.127 58.8507 115.803 58.2569 115.803 57.5235C115.803 56.79 116.127 56.1963 116.53 56.1963C116.934 56.1963 117.258 56.79 117.258 57.5235Z" fill="#263238"/>
<path d="M126.134 56.3311C126.134 57.0646 125.805 57.6583 125.402 57.6583C124.998 57.6583 124.674 57.0646 124.674 56.3311C124.674 55.5977 125.003 55.0039 125.402 55.0039C125.8 55.0039 126.134 55.5977 126.134 56.3311Z" fill="#263238"/>
<path d="M114.155 55.2685C114.773 54.5645 115.557 54.026 116.435 53.7019C117.314 53.3779 118.259 53.2783 119.185 53.4124" stroke="#263238" stroke-linecap="round" stroke-linejoin="round"/>
<path d="M123.419 52.8835C123.419 52.8835 125.137 49.7002 127.902 51.2919" stroke="#263238" stroke-linecap="round" stroke-linejoin="round"/>
<path d="M114.947 46.2524C114.947 46.2524 110.848 45.5888 111.774 46.7862C112.7 47.9837 114.817 49.4356 113.766 50.3637C112.715 51.2917 110.061 52.8584 110.195 53.6767C110.33 54.495 110.589 57.788 110.195 58.5864C109.802 59.3847 108.87 59.5144 107.944 59.3797C107.017 59.245 105.692 56.86 105.164 56.1964C104.637 55.5328 99.8699 50.7629 100.796 46.916C101.723 43.0691 111.649 40.0205 111.649 40.0205C111.649 40.0205 117.99 32.8656 122.239 32.7309C126.487 32.5962 124.883 36.5778 124.729 36.9719C124.575 37.3661 130.815 36.5778 132.006 40.4197C133.196 44.2616 132.803 45.3243 127.374 46.7862C121.945 48.2482 114.947 46.2524 114.947 46.2524Z" fill="#263238" stroke="#263238" stroke-linecap="round" stroke-linejoin="round"/>
<path d="M198.43 40.9634L187.646 43.7575L189.878 44.8751L183.736 46.7362L196.198 45.0597L193.04 43.5679L198.43 40.9634Z" fill="#263238"/>
<path d="M200.646 67.2681L189.733 65.0078L191.242 66.9986L184.917 65.9558L196.836 69.9624L194.654 67.2281L200.646 67.2681Z" fill="#263238"/>
<path d="M188.911 85.2901L179.721 78.9734L180.344 81.3933L174.915 77.9805L184.359 86.2929L183.407 82.925L188.911 85.2901Z" fill="#263238"/>
</g>
<defs>
<clipPath id="clip0_338_5565">
<rect width="219" height="211" fill="white"/>
</clipPath>
</defs>
</svg>
