<svg width="100" height="100" viewBox="0 0 19 19" fill="none" xmlns="http://www.w3.org/2000/svg">
    <path
        d="M16.1791 16.9256H2.7399C2.43378 16.9256 2.17993 16.6717 2.17993 16.3656C2.17993 16.0595 2.43378 15.8057 2.7399 15.8057H16.1791C16.4852 15.8057 16.739 16.0595 16.739 16.3656C16.739 16.6717 16.4852 16.9256 16.1791 16.9256Z"
        fill="white" />
    <path
        d="M14.7007 3.09842C13.2523 1.64998 11.8337 1.61265 10.3479 3.09842L9.4445 4.00184C9.36984 4.0765 9.33998 4.19596 9.36984 4.30049C9.93728 6.27903 11.5201 7.86187 13.4987 8.4293C13.5285 8.43677 13.5584 8.44423 13.5883 8.44423C13.6704 8.44423 13.745 8.41437 13.8048 8.35464L14.7007 7.45123C15.4399 6.71954 15.7983 6.01025 15.7983 5.29349C15.8057 4.55434 15.4473 3.83758 14.7007 3.09842Z"
        fill="white" />
    <path
        d="M12.1546 9.10858C11.9381 9.00405 11.729 8.89952 11.5274 8.78006C11.3632 8.683 11.2064 8.57847 11.0496 8.46648C10.9227 8.38435 10.7733 8.26489 10.6315 8.14543C10.6166 8.13797 10.5643 8.09317 10.5046 8.03344C10.2582 7.82439 9.98193 7.5556 9.73554 7.25695C9.71314 7.24202 9.67581 7.18976 9.62355 7.12256C9.54889 7.03297 9.42196 6.88364 9.30997 6.71192C9.22038 6.59993 9.11585 6.43567 9.01879 6.27141C8.89933 6.06983 8.7948 5.86824 8.69027 5.65918C8.66799 5.61143 8.64672 5.56402 8.62633 5.51701C8.52633 5.28655 8.22649 5.21955 8.04885 5.3972L3.74017 9.70587C3.64311 9.80293 3.55352 9.98959 3.53112 10.1165L3.12794 12.9761C3.05328 13.4838 3.19514 13.9616 3.50872 14.2827C3.7775 14.544 4.15081 14.6858 4.55399 14.6858C4.64359 14.6858 4.73318 14.6784 4.82277 14.6634L7.6898 14.2603C7.82419 14.2379 8.01085 14.1483 8.10044 14.0512L12.4042 9.74747C12.5831 9.56859 12.5155 9.26192 12.2825 9.16336C12.2405 9.14562 12.198 9.12738 12.1546 9.10858Z"
        fill="white" />
</svg>
