<svg width="50" height="50" viewBox="0 0 17 17" fill="none" xmlns="http://www.w3.org/2000/svg">
    <mask id="mask0_206_553" style="mask-type:alpha" maskUnits="userSpaceOnUse" x="0" y="0"
        width="17" height="17">
        <rect width="17" height="17" fill="#D9D9D9" />
    </mask>
    <g mask="url(#mask0_206_553)">
        <path
            d="M7.96867 11.8647H9.03117V7.79183H7.96867V11.8647ZM8.49992 6.57952C8.66201 6.57952 8.79789 6.52468 8.90756 6.41501C9.01724 6.30533 9.07207 6.16945 9.07207 6.00736C9.07207 5.84527 9.01724 5.70939 8.90756 5.59972C8.79789 5.49016 8.66201 5.43538 8.49992 5.43538C8.33783 5.43538 8.20195 5.49016 8.09227 5.59972C7.9826 5.70939 7.92776 5.84527 7.92776 6.00736C7.92776 6.16945 7.9826 6.30533 8.09227 6.41501C8.20195 6.52468 8.33783 6.57952 8.49992 6.57952ZM8.50116 15.2293C7.57041 15.2293 6.69556 15.0527 5.87661 14.6995C5.05765 14.3463 4.34531 13.8669 3.73956 13.2614C3.13382 12.6559 2.65422 11.9438 2.30076 11.1252C1.94742 10.3066 1.77075 9.43203 1.77075 8.5014C1.77075 7.57065 1.94736 6.6958 2.30059 5.87685C2.65381 5.0579 3.13317 4.34555 3.73868 3.73981C4.34419 3.13407 5.05624 2.65446 5.87484 2.30101C6.69343 1.94767 7.56805 1.771 8.49868 1.771C9.42943 1.771 10.3043 1.94761 11.1232 2.30083C11.9422 2.65405 12.6545 3.13342 13.2603 3.73892C13.866 4.34443 14.3456 5.05648 14.6991 5.87508C15.0524 6.69368 15.2291 7.56829 15.2291 8.49892C15.2291 9.42967 15.0525 10.3045 14.6993 11.1235C14.346 11.9424 13.8667 12.6548 13.2612 13.2605C12.6557 13.8663 11.9436 14.3459 11.125 14.6993C10.3064 15.0527 9.43179 15.2293 8.50116 15.2293ZM8.49992 14.1668C10.0819 14.1668 11.4218 13.6179 12.5197 12.52C13.6176 11.422 14.1666 10.0821 14.1666 8.50016C14.1666 6.91822 13.6176 5.57829 12.5197 4.48037C11.4218 3.38245 10.0819 2.8335 8.49992 2.8335C6.91797 2.8335 5.57804 3.38245 4.48013 4.48037C3.38221 5.57829 2.83325 6.91822 2.83325 8.50016C2.83325 10.0821 3.38221 11.422 4.48013 12.52C5.57804 13.6179 6.91797 14.1668 8.49992 14.1668Z"
            fill="#10ABEE" />
    </g>
</svg>
