<svg width="50" height="50" viewBox="0 0 14 14" fill="none" xmlns="http://www.w3.org/2000/svg">
    <g id="Location">
        <g id="Iconly/Light-Outline/Location">
            <g id="Location_2">
                <path id="Combined-Shape" fill-rule="evenodd" clip-rule="evenodd"
                    d="M7.14551 1.1665C9.79909 1.1665 11.958 3.34175 11.958 6.01575C11.958 9.30284 8.19201 12.5415 7.14551 12.5415C6.09901 12.5415 2.33301 9.30284 2.33301 6.01575C2.33301 3.34175 4.49192 1.1665 7.14551 1.1665ZM7.14551 2.0415C4.97434 2.0415 3.20801 3.82475 3.20801 6.01575C3.20801 8.8035 6.48867 11.5195 7.14551 11.6642C7.80234 11.5189 11.083 8.80292 11.083 6.01575C11.083 3.82475 9.31667 2.0415 7.14551 2.0415ZM7.14609 4.08317C8.19142 4.08317 9.04192 4.93367 9.04192 5.97959C9.04192 7.02492 8.19142 7.87484 7.14609 7.87484C6.10076 7.87484 5.25026 7.02492 5.25026 5.97959C5.25026 4.93367 6.10076 4.08317 7.14609 4.08317ZM7.14609 4.95817C6.58317 4.95817 6.12526 5.41609 6.12526 5.97959C6.12526 6.5425 6.58317 6.99984 7.14609 6.99984C7.70901 6.99984 8.16692 6.5425 8.16692 5.97959C8.16692 5.41609 7.70901 4.95817 7.14609 4.95817Z"
                    fill="#666666" />
            </g>
        </g>
    </g>
</svg>
