<svg width="203" height="202" viewBox="0 0 203 202" fill="none" xmlns="http://www.w3.org/2000/svg">
<g clip-path="url(#clip0_1128_1179)">
<path d="M48.8291 12.141C42.0115 21.8959 50.0005 37.7105 39.8869 45.043C30.0498 52.1792 17.9571 40.482 8.6802 46.6216C-5.07869 55.7437 -2.56848 97.4623 17.5496 123.388C23.6032 131.179 28.6601 134.212 30.8938 143.029C35.7032 161.964 18.8084 173.225 22.0244 182.587C29.264 203.668 140.608 221.36 185.29 158C206.158 128.408 209.279 85.6778 190.638 53.2267C156.943 -5.4194 64.1159 -9.74038 48.8291 12.141Z" fill="#F4F7FA"/>
<path d="M67.9358 163.405C62.457 154.057 67.7757 138.49 74.2878 129.382C81.8839 118.74 88.0612 121.17 93.329 112.433C103.137 96.1748 85.7547 81.095 94.3476 63.9129C101.369 49.8734 115.652 54.6162 122.724 38.7072C127.824 27.2282 122.833 19.2409 130.568 10.708C131.23 9.98061 138.476 2.21884 147.273 3.63007C156.15 5.04858 161.418 14.9708 163.142 21.8306C166.329 34.4953 157.874 38.5544 156.135 54.9582C153.778 77.2978 168.039 82.9936 162.902 99.0773C158.66 112.36 147.95 111.538 143.533 126.364C139.437 140.127 147.179 145.83 143.533 154.828C135.151 175.524 79.119 182.464 67.9358 163.405Z" fill="url(#paint0_linear_1128_1179)"/>
<mask id="mask0_1128_1179" style="mask-type:luminance" maskUnits="userSpaceOnUse" x="65" y="3" width="100" height="172">
<path d="M67.9372 163.401C62.4555 154.055 67.7742 138.492 74.2855 129.381C81.8875 118.743 88.0633 121.169 93.3311 112.436C103.14 96.1761 85.7532 81.0977 94.344 63.9164C101.367 49.8703 115.652 54.6168 122.721 38.7084C127.822 27.2294 122.836 19.24 130.57 10.7108C131.231 9.98187 138.474 2.22083 147.27 3.62697C156.148 5.04547 161.417 14.9728 163.141 21.8268C166.326 34.4966 157.875 38.5557 156.139 54.9609C153.775 77.2947 168.042 82.9913 162.901 99.0771C158.657 112.36 147.95 111.54 143.536 126.361C139.438 140.124 147.181 145.833 143.536 154.828C135.151 175.521 79.1168 182.463 67.9372 163.401Z" fill="white"/>
</mask>
<g mask="url(#mask0_1128_1179)">
<g style="mix-blend-mode:soft-light" opacity="0.7">
<path d="M75.3572 178.048C75.3063 178.048 75.2554 178.004 75.2481 177.946C75.2408 177.888 75.2845 177.837 75.35 177.83C84.8742 176.818 93.7655 173.865 101.784 169.042C109.372 164.481 117.231 159.76 120.716 151.053C123.357 144.469 121.902 139.625 120.068 133.485C118.278 127.527 116.059 120.107 117.289 108.774C117.987 102.3 118.86 94.2469 124.463 86.6306C127.73 82.1932 130.902 80.2946 133.696 78.6142C136.636 76.8538 138.964 75.4572 140.317 71.7254C142.529 65.644 141.081 60.421 139.4 54.3687C138.367 50.6442 137.298 46.7888 136.89 42.2132C136.388 36.5101 137.29 30.5815 139.582 24.5801C142.478 17.0147 147.651 9.10019 154.971 1.06199C155.007 1.01834 155.08 1.01107 155.124 1.05471C155.168 1.09836 155.175 1.16383 155.131 1.21475C147.833 9.23113 142.675 17.1166 139.793 24.6601C137.509 30.6251 136.606 36.5246 137.109 42.1987C137.516 46.7524 138.586 50.5933 139.619 54.3105C141.307 60.3919 142.762 65.6513 140.528 71.7981C139.146 75.6099 136.672 77.0939 133.813 78.8034C131.033 80.4692 127.883 82.3605 124.645 86.7615C119.071 94.3269 118.206 102.351 117.507 108.796C116.285 120.086 118.497 127.476 120.279 133.419C122.127 139.595 123.59 144.477 120.919 151.133C117.405 159.906 109.518 164.648 101.893 169.231C93.8528 174.069 84.9252 177.037 75.3718 178.048C75.367 178.048 75.3621 178.048 75.3572 178.048Z" fill="white"/>
</g>
<g style="mix-blend-mode:soft-light" opacity="0.7">
<path d="M122.171 90.5662C122.127 90.5662 122.084 90.5371 122.069 90.5007C114.393 73.1367 113.192 59.6937 113.527 51.4809C113.898 42.5698 116.117 37.6959 116.139 37.645C116.161 37.5941 116.227 37.565 116.285 37.5941C116.343 37.6159 116.365 37.6814 116.336 37.7396C116.314 37.7905 114.116 42.628 113.753 51.5027C113.411 59.6937 114.619 73.0931 122.273 90.4061C122.295 90.4643 122.266 90.5298 122.215 90.5589C122.2 90.5637 122.186 90.5662 122.171 90.5662Z" fill="white"/>
</g>
<g style="mix-blend-mode:soft-light" opacity="0.7">
<path d="M117.107 118.129C117.056 118.129 117.012 118.1 116.998 118.049C116.983 117.991 117.02 117.925 117.078 117.911C126.828 115.328 135.224 111.189 142.027 105.617C147.477 101.158 151.923 95.7749 155.255 89.6208C160.923 79.1384 161.381 69.9217 161.381 69.8271C161.381 69.769 161.44 69.718 161.498 69.7253C161.556 69.7253 161.607 69.7762 161.607 69.8344C161.6 69.929 161.149 79.1893 155.451 89.7153C152.112 95.8986 147.644 101.303 142.173 105.784C135.341 111.378 126.915 115.532 117.136 118.129C117.126 118.129 117.117 118.129 117.107 118.129Z" fill="white"/>
</g>
<g style="mix-blend-mode:soft-light" opacity="0.7">
<path d="M110.267 164.365C110.238 164.365 110.217 164.358 110.195 164.336C102.911 158.065 97.1852 151.191 93.1616 143.895C89.9456 138.053 87.8138 131.936 86.8169 125.709C85.1216 115.103 87.3626 107.748 87.3845 107.676C87.4063 107.617 87.4645 107.588 87.5227 107.603C87.5809 107.625 87.6173 107.683 87.5955 107.741C87.5737 107.814 85.3472 115.125 87.0352 125.687C88.032 131.885 90.1566 137.981 93.3653 143.793C97.3671 151.067 103.079 157.92 110.34 164.168C110.384 164.205 110.391 164.278 110.347 164.321C110.326 164.35 110.297 164.365 110.267 164.365Z" fill="white"/>
</g>
<g style="mix-blend-mode:soft-light" opacity="0.7">
<path d="M137.24 40.1038C137.196 40.1038 137.16 40.082 137.138 40.0383C137.116 39.9801 137.138 39.9147 137.196 39.8928C144.261 36.9031 150.133 32.7494 154.658 27.5337C158.274 23.3654 161.039 18.5134 162.88 13.1231C166.009 3.92827 165.354 -3.75348 165.347 -3.82623C165.339 -3.8917 165.383 -3.94262 165.449 -3.94989C165.507 -3.95717 165.565 -3.91352 165.565 -3.84805C165.572 -3.77531 166.234 3.95737 163.091 13.1886C161.243 18.6153 158.456 23.4891 154.826 27.6791C150.278 32.9167 144.377 37.0995 137.283 40.0965C137.269 40.1014 137.254 40.1038 137.24 40.1038Z" fill="white"/>
</g>
</g>
<path d="M112.13 171.937C107.445 163.95 111.992 150.66 117.551 142.876C124.048 133.791 129.323 135.864 133.82 128.4C142.202 114.513 127.352 101.631 134.686 86.9581C140.688 74.9553 152.89 79.0145 158.929 65.4259C163.28 55.62 159.024 48.7966 165.631 41.5077C166.198 40.8894 172.383 34.2551 179.899 35.4554C187.48 36.6702 191.977 45.1522 193.454 51.0008C196.175 61.8251 188.957 65.295 187.473 79.3054C185.45 98.3861 197.638 103.253 193.25 116.987C189.619 128.335 180.474 127.636 176.705 140.294C173.205 152.049 179.819 156.93 176.705 164.612C169.545 182.289 121.676 188.218 112.13 171.937Z" fill="url(#paint1_linear_1128_1179)"/>
<mask id="mask1_1128_1179" style="mask-type:luminance" maskUnits="userSpaceOnUse" x="110" y="35" width="85" height="147">
<path d="M112.13 171.935C107.448 163.952 111.991 150.658 117.553 142.875C124.046 133.789 129.321 135.861 133.821 128.402C142.2 114.512 127.349 101.633 134.686 86.9565C140.686 74.9581 152.887 79.0129 158.926 65.4243C163.283 55.6184 159.024 48.7943 165.631 41.509C166.195 40.8863 172.382 34.2572 179.895 35.4575C187.479 36.6694 191.98 45.1491 193.452 51.0043C196.173 61.8264 188.954 65.2941 187.471 79.3068C185.452 98.3846 197.638 103.25 193.247 116.99C189.622 128.337 180.476 127.636 176.706 140.296C173.205 152.053 179.819 156.929 176.706 164.612C169.544 182.288 121.68 188.218 112.13 171.935Z" fill="white"/>
</mask>
<g mask="url(#mask1_1128_1179)">
<g style="mix-blend-mode:soft-light" opacity="0.7">
<path d="M118.468 184.464C118.417 184.464 118.366 184.42 118.358 184.362C118.351 184.304 118.402 184.245 118.46 184.238C126.588 183.38 134.184 180.856 141.03 176.738C147.513 172.839 154.222 168.809 157.198 161.382C159.453 155.759 158.209 151.627 156.645 146.382C155.117 141.29 153.218 134.954 154.265 125.272C154.869 119.736 155.611 112.855 160.399 106.344C163.193 102.554 165.9 100.932 168.293 99.4989C170.804 97.9931 172.783 96.8073 173.947 93.6212C175.831 88.4272 174.594 83.968 173.161 78.8032C172.273 75.6243 171.357 72.329 171.015 68.4227C170.04 57.4165 175.235 45.5884 186.462 33.2583C186.498 33.2146 186.571 33.2074 186.614 33.251C186.658 33.2874 186.665 33.3601 186.622 33.4038C175.438 45.6902 170.265 57.4674 171.233 68.4008C171.582 72.2926 172.492 75.5734 173.372 78.745C174.82 83.9462 176.064 88.4345 174.151 93.6939C172.965 96.9528 170.855 98.2186 168.403 99.688C166.031 101.114 163.346 102.721 160.581 106.475C155.822 112.942 155.08 119.787 154.491 125.294C153.443 134.932 155.335 141.247 156.856 146.324C158.434 151.605 159.686 155.774 157.401 161.462C154.396 168.962 147.659 173.014 141.147 176.935C134.271 181.067 126.646 183.598 118.482 184.464C118.477 184.464 118.472 184.464 118.468 184.464Z" fill="white"/>
</g>
<g style="mix-blend-mode:soft-light" opacity="0.7">
<path d="M158.456 109.734C158.413 109.734 158.369 109.712 158.354 109.668C151.799 94.8357 150.766 83.3494 151.057 76.3297C151.37 68.7134 153.269 64.5524 153.29 64.5088C153.312 64.4578 153.378 64.4288 153.436 64.4578C153.487 64.4797 153.516 64.5451 153.487 64.6033C153.472 64.647 151.588 68.7788 151.282 76.3587C150.991 83.3494 152.024 94.792 158.558 109.581C158.58 109.639 158.551 109.705 158.5 109.726C158.485 109.731 158.471 109.734 158.456 109.734Z" fill="white"/>
</g>
<g style="mix-blend-mode:soft-light" opacity="0.7">
<path d="M154.127 133.281C154.083 133.281 154.032 133.252 154.025 133.201C154.003 133.143 154.04 133.077 154.098 133.063C162.429 130.851 169.596 127.323 175.409 122.566C180.059 118.754 183.857 114.164 186.702 108.904C191.54 99.957 191.933 92.0861 191.933 92.0061C191.933 91.9406 191.991 91.897 192.05 91.897C192.108 91.9042 192.159 91.9552 192.159 92.0134C192.151 92.0934 191.766 100.008 186.898 109.006C184.046 114.288 180.226 118.907 175.555 122.733C169.712 127.512 162.516 131.062 154.156 133.281C154.146 133.281 154.137 133.281 154.127 133.281Z" fill="white"/>
</g>
<g style="mix-blend-mode:soft-light" opacity="0.7">
<path d="M148.284 172.774C148.263 172.774 148.234 172.766 148.212 172.745C141.991 167.391 137.101 161.513 133.667 155.279C130.917 150.289 129.09 145.066 128.239 139.741C126.791 130.677 128.705 124.392 128.727 124.334C128.748 124.275 128.807 124.239 128.865 124.261C128.923 124.275 128.959 124.341 128.938 124.399C128.268 126.545 127.308 132.503 128.465 139.719C129.309 145.015 131.128 150.216 133.863 155.177C137.283 161.389 142.158 167.245 148.357 172.577C148.408 172.621 148.408 172.686 148.372 172.737C148.35 172.759 148.314 172.774 148.284 172.774Z" fill="white"/>
</g>
<g style="mix-blend-mode:soft-light" opacity="0.7">
<path d="M171.327 66.6331C171.284 66.6331 171.247 66.604 171.226 66.5676C171.204 66.5094 171.226 66.444 171.284 66.4221C177.316 63.8688 182.329 60.3189 186.192 55.867C189.277 52.3098 191.642 48.1707 193.214 43.5587C195.884 35.7169 195.324 29.1554 195.324 29.09C195.316 29.0318 195.36 28.9736 195.418 28.9663C195.484 28.9663 195.535 29.01 195.542 29.0681C195.549 29.1336 196.109 35.7388 193.425 43.6315C191.846 48.2653 189.466 52.4335 186.36 56.0125C182.474 60.4935 177.432 64.058 171.371 66.6258C171.357 66.6307 171.342 66.6331 171.327 66.6331Z" fill="white"/>
</g>
</g>
<path d="M137.982 80.1493L129.243 80.1202C128.123 80.1129 127.221 79.16 127.221 77.9888V56.3548C127.221 40.9694 115.302 28.2538 100.474 27.9556L83.6228 27.6137C68.4815 27.3081 56.0978 39.8201 56.0978 55.5691V77.7196C56.0978 78.9199 55.1446 79.8874 53.9732 79.8874L44.7327 79.8583C43.554 79.851 42.6008 78.869 42.6008 77.6614V55.4236C42.6008 31.9565 61.1037 13.385 83.6228 13.9378L100.474 14.3525C122.426 14.898 139.99 33.7605 139.99 56.493V78.0324C139.99 79.2036 139.095 80.1493 137.982 80.1493Z" fill="url(#paint2_linear_1128_1179)"/>
<path fill-rule="evenodd" clip-rule="evenodd" d="M151.631 93.4105V143.902C151.631 164.401 135.864 181.503 116.176 182.107L67.5793 183.591C46.9882 184.224 30.0934 167.449 30.0934 146.113V93.5778C30.0934 88.3475 34.2552 84.1138 39.3703 84.1211L143.017 84.2957C147.782 84.303 151.631 88.3839 151.631 93.4105ZM96.7269 132.91C101.405 130.917 104.716 126.131 104.716 120.58C104.716 113.328 99.0697 107.479 92.0702 107.523C85.0416 107.566 79.3227 113.524 79.3227 120.842C79.3227 126.436 82.6769 131.172 87.4063 133.041L82.1458 156.421L101.929 155.985L96.7269 132.91Z" fill="url(#paint3_linear_1128_1179)"/>
<path d="M146.458 80.1493L137.72 80.1202C136.599 80.1129 135.697 79.16 135.697 77.9888V56.3548C135.697 40.9694 123.779 28.2538 108.951 27.9556L92.0993 27.6137C76.958 27.3081 64.567 39.8201 64.567 55.5691V77.7196C64.567 78.9199 63.6211 79.8874 62.4497 79.8874L53.2092 79.8583C52.0305 79.851 51.0701 78.869 51.0701 77.6614V55.4236C51.0701 31.9565 69.5802 13.385 92.0993 13.9378L108.951 14.3525C130.902 14.898 148.466 33.7605 148.466 56.493V78.0324C148.466 79.2036 147.571 80.1493 146.458 80.1493Z" fill="url(#paint4_linear_1128_1179)"/>
<path fill-rule="evenodd" clip-rule="evenodd" d="M160.108 93.4105V143.902C160.108 164.401 144.334 181.503 124.652 182.107L76.0558 183.591C55.4648 184.224 38.5699 167.449 38.5699 146.113V93.5778C38.5699 88.3475 42.7245 84.1138 47.8396 84.1211L151.493 84.2957C156.252 84.303 160.108 88.3839 160.108 93.4105ZM105.203 132.91C109.882 130.917 113.192 126.131 113.192 120.58C113.192 113.328 107.539 107.479 100.547 107.523C93.5182 107.566 87.7993 113.524 87.7993 120.842C87.7993 126.436 91.1535 131.172 95.8829 133.041L90.6224 156.421L110.406 155.985L105.203 132.91Z" fill="url(#paint5_linear_1128_1179)"/>
<g style="mix-blend-mode:soft-light" opacity="0.5">
<path d="M51.0701 55.4238V77.6616C51.0701 78.8692 52.0305 79.8512 53.2092 79.8585L62.4497 79.8876C63.6211 79.8876 64.567 78.9201 64.567 77.7198V55.5693C64.567 39.8202 76.958 27.3083 92.0994 27.6138L94.2021 27.6575C92.4268 22.82 89.9457 18.3172 86.9771 14.1489C66.8371 16.273 51.0701 33.7607 51.0701 55.4238Z" fill="white"/>
</g>
<g style="mix-blend-mode:soft-light" opacity="0.5">
<path d="M105.458 134.067L110.406 155.985L90.6223 156.421L95.8829 133.041C91.1535 131.172 87.7993 126.436 87.7993 120.842C87.7993 120.129 87.8575 119.438 87.9593 118.754C85.3545 115.314 83.3245 111.32 82.0949 106.33C80.0358 98.0006 81.1999 90.9081 83.6083 84.1793L47.8396 84.1211C42.7245 84.1138 38.5699 88.3475 38.5699 93.5778V146.113C38.5699 167.449 55.4648 184.224 76.0558 183.591L124.652 182.107C129.774 181.947 134.635 180.667 139.015 178.506C137.298 173.181 135.013 167.791 132.001 162.466C124.019 148.339 114.291 140.614 105.458 134.067Z" fill="white"/>
</g>
<path fill-rule="evenodd" clip-rule="evenodd" d="M100.474 27.9553C115.302 28.2535 127.221 40.9692 127.221 56.3545V77.9885C127.221 79.1597 128.123 80.1127 129.243 80.1199L137.982 80.149C138.084 80.149 138.185 80.1345 138.287 80.1199L146.458 80.149C147.571 80.149 148.466 79.2034 148.466 78.0322V56.4927C148.466 33.7603 130.902 14.8978 108.951 14.3522L92.0994 13.9376C90.7315 13.9085 89.3709 13.9448 88.0394 14.0467L83.6229 13.9376C77.4674 13.7848 71.6175 15.0651 66.3569 17.4802C72.5488 20.4336 78.4787 24.1799 83.2445 28.9519C85.1144 28.3336 87.0717 27.9117 89.0944 27.7225L100.474 27.9553ZM151.486 84.3027L85.9803 84.1863C84.7652 90.2095 84.6124 96.5382 87.0717 103.558C88.1631 106.693 89.5892 109.392 91.2408 111.778C92.6451 110.214 94.3986 108.999 96.3776 108.279C101.245 110.076 104.709 114.899 104.709 120.58C104.709 121.708 104.57 122.799 104.316 123.846C114.364 130.641 125.445 135.987 130.204 149.627C134.002 160.516 132.103 171.879 128.414 181.787C146.305 179.277 160.101 163.077 160.101 143.902V93.4175C160.101 88.3909 156.252 84.31 151.486 84.3027Z" fill="#D8DEE8"/>
<path fill-rule="evenodd" clip-rule="evenodd" d="M127.664 182.383L127.955 181.612C132.372 169.755 132.976 159.047 129.745 149.787C125.736 138.301 117.369 132.896 108.514 127.178C107.044 126.225 105.523 125.25 104.046 124.246L103.763 124.057L103.843 123.73C104.097 122.697 104.221 121.635 104.221 120.58C104.221 115.328 101.078 110.622 96.3776 108.803C94.5804 109.494 92.936 110.629 91.6118 112.098L91.1971 112.564L90.8478 112.055C89.0579 109.479 87.6682 106.752 86.6059 103.718C84.4158 97.4549 84.0666 91.2208 85.5 84.0919L85.58 83.6918L151.493 83.8082C156.514 83.8154 160.595 88.1219 160.595 93.4103V143.902C160.595 163.208 146.793 179.706 128.479 182.267L127.664 182.383ZM104.876 123.628C106.251 124.552 107.67 125.469 109.045 126.356C117.653 131.914 126.551 137.66 130.669 149.467C133.907 158.742 133.398 169.406 129.156 181.176C146.582 178.31 159.613 162.437 159.613 143.902V93.4176C159.613 88.6674 155.968 84.7975 151.486 84.7902L86.3803 84.6811C85.0707 91.4681 85.4417 97.4258 87.53 103.398C88.4977 106.155 89.7346 108.643 91.3062 110.993C92.7032 109.581 94.3839 108.49 96.2102 107.821L96.3776 107.755L96.5449 107.821C101.725 109.734 105.203 114.863 105.203 120.58C105.203 121.606 105.094 122.624 104.876 123.628ZM146.465 80.6365C146.461 80.6365 146.458 80.6365 146.458 80.6365L138.324 80.6147C138.202 80.6292 138.091 80.6365 137.989 80.6365C137.989 80.6365 137.986 80.6365 137.982 80.6365L129.243 80.6147C127.853 80.6074 126.733 79.429 126.733 77.9886V56.3546C126.733 49.0293 124.004 42.0968 119.05 36.8374C114.095 31.5635 107.495 28.5883 100.467 28.4428L89.1088 28.2173C87.1734 28.3991 85.2526 28.8065 83.4045 29.4176L83.1134 29.5121L82.9024 29.3012C78.6241 25.0166 72.9853 21.1902 66.1458 17.924L65.2 17.473L66.1531 17.0365C71.661 14.5051 77.5473 13.3048 83.6373 13.4503L88.0247 13.5594C89.3781 13.4575 90.7605 13.4212 92.1138 13.4503L108.958 13.8649C119.697 14.1341 129.76 18.7169 137.298 26.7697C144.814 34.8079 148.954 45.363 148.954 56.4928V78.0396C148.954 78.7525 148.685 79.4217 148.183 79.9164C147.724 80.3819 147.113 80.6365 146.465 80.6365ZM138.251 79.6327L146.458 79.6618C146.463 79.6618 146.465 79.6618 146.465 79.6618C146.851 79.6618 147.215 79.5017 147.491 79.2253C147.804 78.9125 147.979 78.4906 147.979 78.0396V56.4928C147.979 45.6103 143.926 35.2953 136.585 27.4389C129.221 19.5753 119.406 15.1088 108.936 14.847L92.0847 14.4323C90.7605 14.3959 89.4072 14.4323 88.0757 14.5414H88.0465L83.6155 14.4323C78.0275 14.2941 72.6142 15.3271 67.521 17.5021C73.9239 20.6592 79.2572 24.3182 83.3826 28.3919C85.2235 27.8026 87.1225 27.4171 89.0434 27.2352H89.0725L100.481 27.468C107.779 27.6135 114.633 30.7051 119.763 36.1609C124.885 41.6094 127.708 48.782 127.708 56.3546V77.9886C127.708 78.8907 128.399 79.6254 129.243 79.6327L137.989 79.6618C138.047 79.6545 138.12 79.6545 138.207 79.6399L138.251 79.6327Z" fill="white"/>
<mask id="mask2_1128_1179" style="mask-type:luminance" maskUnits="userSpaceOnUse" x="65" y="13" width="96" height="170">
<path d="M127.668 182.382L127.955 181.611C132.375 169.754 132.978 159.047 129.747 149.787C125.739 138.301 117.371 132.897 108.511 127.177C107.041 126.228 105.521 125.247 104.046 124.249L103.763 124.058L103.845 123.726C104.097 122.696 104.225 121.637 104.225 120.579C104.225 115.33 101.079 110.622 96.3768 108.801C94.5775 109.491 92.9331 110.63 91.6118 112.102L91.1978 112.562L90.8442 112.054C89.0572 109.481 87.6711 106.754 86.6081 103.717C84.4158 97.4564 84.0637 91.2193 85.5007 84.0882L85.58 83.6947L151.492 83.8082C156.511 83.8162 160.596 88.1255 160.596 93.4133V143.899C160.596 163.208 146.79 179.704 128.482 182.268L127.668 182.382ZM104.875 123.625C106.254 124.553 107.671 125.468 109.044 126.354C117.652 131.912 126.554 137.66 130.673 149.465C133.91 158.741 133.4 169.406 129.16 181.173C146.58 178.308 159.616 162.435 159.616 143.899V93.4133C159.616 88.6653 155.971 84.796 151.49 84.788L86.3847 84.676C85.0751 91.463 85.4425 97.4207 87.5336 103.394C88.4991 106.149 89.7361 108.641 91.3084 110.994C92.701 109.578 94.3847 108.485 96.2095 107.817L96.379 107.755L96.5478 107.817C101.726 109.731 105.206 114.86 105.206 120.579C105.206 121.602 105.094 122.624 104.875 123.625ZM146.466 80.6365C146.464 80.6365 146.461 80.6365 146.459 80.6365L138.321 80.6111C138.203 80.628 138.092 80.6365 137.989 80.6365C137.987 80.6365 137.986 80.6365 137.984 80.6365L129.24 80.6089C127.856 80.6052 126.73 79.429 126.73 77.9872V56.3532C126.73 49.03 124.003 42.0975 119.051 36.8316C114.098 31.565 107.497 28.5854 100.464 28.4435L89.1096 28.2137C87.1734 28.3962 85.2533 28.8007 83.403 29.4168L83.1156 29.5129L82.9017 29.2983C78.6234 25.0158 72.9867 21.1888 66.148 17.9226L65.2036 17.4716L66.1546 17.0344C71.6654 14.5051 77.5488 13.299 83.6373 13.4496L88.024 13.5579C89.3824 13.4525 90.7576 13.4161 92.1124 13.4496L108.961 13.8656C119.697 14.1304 129.761 18.7133 137.298 26.7682C144.817 34.8021 148.957 45.3594 148.957 56.4936V78.0359C148.957 78.7539 148.684 79.4224 148.187 79.9171C147.721 80.3812 147.111 80.6365 146.466 80.6365ZM138.249 79.6305L146.462 79.6559C146.463 79.6559 146.465 79.6559 146.466 79.6559C146.849 79.6559 147.214 79.5024 147.494 79.2231C147.806 78.9132 147.977 78.4913 147.977 78.0359V56.4936C147.977 45.6089 143.931 35.2902 136.582 27.4375C129.226 19.576 119.408 15.1045 108.937 14.8455L92.0884 14.4294C90.7583 14.3967 89.4086 14.433 88.0749 14.5371L88.0502 14.5393L83.6133 14.4294C78.0254 14.2912 72.6186 15.3242 67.5239 17.4999C73.9253 20.6577 79.255 24.3182 83.3812 28.3926C85.222 27.8034 87.1262 27.4142 89.0463 27.2352L89.0739 27.2323L100.483 27.4637C107.783 27.6113 114.63 30.6993 119.766 36.1602C124.889 41.6087 127.711 48.7798 127.711 56.3532V77.9872C127.711 78.8899 128.398 79.6261 129.243 79.629L137.987 79.6559C138.046 79.6552 138.124 79.6501 138.21 79.6363L138.249 79.6305Z" fill="white"/>
</mask>
<g mask="url(#mask2_1128_1179)">
<path fill-rule="evenodd" clip-rule="evenodd" d="M81.5346 156.923L86.8388 133.332C81.9639 131.222 78.8352 126.37 78.8352 120.842C78.8352 113.269 84.7724 107.079 92.0702 107.035C95.4827 107.013 98.7277 108.344 101.187 110.789C103.777 113.364 105.203 116.841 105.203 120.58C105.203 126.057 102.111 130.968 97.2944 133.194L102.54 156.464L81.5346 156.923ZM92.1503 108.01C92.126 108.01 92.1018 108.01 92.0775 108.01C85.3181 108.053 79.8175 113.807 79.8175 120.834C79.8175 126.108 82.8661 130.713 87.5882 132.583L87.9811 132.735L82.7642 155.912L101.325 155.504L96.1593 132.612L96.5377 132.452C101.209 130.466 104.228 125.803 104.228 120.58C104.228 117.103 102.904 113.873 100.496 111.48C98.2403 109.239 95.2789 108.01 92.1503 108.01Z" fill="white"/>
<path fill-rule="evenodd" clip-rule="evenodd" d="M146.465 80.6364C146.465 80.6364 146.463 80.6364 146.458 80.6364L137.712 80.6073C136.33 80.6073 135.202 79.4288 135.202 77.9885V56.3545C135.202 49.0292 132.481 42.0967 127.526 36.83C122.571 31.5633 115.972 28.5881 108.936 28.4426L92.092 28.1007C85.0634 27.9625 78.4059 30.6177 73.3345 35.5861C68.0012 40.8164 65.0617 47.9089 65.0617 55.5688V77.7193C65.0617 78.4395 64.7852 79.116 64.2759 79.618C63.7884 80.1053 63.1409 80.3745 62.4569 80.3745C62.4521 80.3745 62.4496 80.3745 62.4496 80.3745L53.2091 80.3454C51.7612 80.3454 50.5825 79.1378 50.5825 77.6611V55.4233C50.5825 43.6898 55.0936 32.8291 63.2864 24.8345C71.0862 17.2255 81.3308 13.181 92.1138 13.4501L108.958 13.8648C119.697 14.1339 129.76 18.7095 137.298 26.7695C144.814 34.8004 148.954 45.3556 148.954 56.4927V78.0321C148.954 78.7523 148.685 79.4215 148.19 79.9162C147.724 80.3818 147.113 80.6364 146.465 80.6364ZM91.5536 27.1187C91.7379 27.1187 91.9222 27.1187 92.1066 27.1187L108.958 27.4606C116.256 27.6134 123.102 30.6977 128.239 36.1608C133.361 41.6093 136.184 48.7818 136.184 56.3545V77.9885C136.184 78.8905 136.876 79.6252 137.72 79.6252L146.458 79.6543C146.463 79.6543 146.465 79.6543 146.465 79.6543C146.851 79.6543 147.215 79.5016 147.491 79.2251C147.804 78.9123 147.979 78.4904 147.979 78.0321V56.4927C147.979 45.6102 143.933 35.2878 136.585 27.4388C129.229 19.5752 119.406 15.1014 108.936 14.8468L92.0847 14.4322C81.5709 14.1703 71.581 18.113 63.9703 25.5402C55.9667 33.3456 51.5648 43.9589 51.5648 55.4233V77.6611C51.5648 78.5995 52.2997 79.3633 53.2091 79.3633L62.4496 79.3924C62.8862 79.3924 63.2791 79.2324 63.5847 78.9269C63.9048 78.6068 64.0795 78.1776 64.0795 77.7193V55.5688C64.0795 47.647 67.1208 40.2999 72.6506 34.8877C77.7729 29.8611 84.4741 27.1187 91.5536 27.1187Z" fill="white"/>
<path fill-rule="evenodd" clip-rule="evenodd" d="M74.9279 184.1C65.4401 184.1 56.4906 180.47 49.6221 173.807C42.1787 166.59 38.0751 156.755 38.0751 146.113V93.5773C38.0751 90.8785 39.1155 88.3543 41.0073 86.463C42.8408 84.6371 45.2637 83.626 47.8249 83.626C47.8297 83.626 47.837 83.626 47.8467 83.626L151.493 83.8078C156.514 83.8151 160.595 88.1215 160.595 93.41V143.902C160.595 153.947 156.877 163.499 150.118 170.795C143.351 178.106 134.307 182.296 124.667 182.594L76.0703 184.078C75.6871 184.093 75.3063 184.1 74.9279 184.1ZM47.8249 84.608C45.5257 84.608 43.3502 85.5173 41.6985 87.1613C39.9959 88.8635 39.0573 91.1404 39.0573 93.5773V146.113C39.0573 156.486 43.0518 166.074 50.306 173.101C57.2546 179.844 66.3932 183.394 76.0412 183.103L124.637 181.612C134.016 181.328 142.806 177.247 149.398 170.126C155.99 163.019 159.613 153.7 159.613 143.902V93.41C159.613 88.6671 155.968 84.7972 151.493 84.7899L47.8394 84.608C47.8346 84.608 47.8297 84.608 47.8249 84.608ZM90.0111 156.923L95.3153 133.332C90.4331 131.222 87.3117 126.37 87.3117 120.842C87.3117 113.269 93.2489 107.079 100.547 107.035C103.959 107.013 107.204 108.344 109.663 110.789C112.254 113.364 113.68 116.841 113.68 120.58C113.68 126.057 110.588 130.968 105.764 133.194L111.017 156.464L90.0111 156.923ZM100.627 108.01C100.602 108.01 100.578 108.01 100.554 108.01C93.7946 108.053 88.2939 113.807 88.2939 120.834C88.2939 126.108 91.3426 130.713 96.0647 132.583L96.4503 132.735L91.2407 155.912L109.802 155.504L104.636 132.612L105.014 132.452C109.685 130.466 112.705 125.803 112.705 120.58C112.705 117.103 111.381 113.873 108.972 111.48C106.717 109.239 103.755 108.01 100.627 108.01Z" fill="white"/>
<path fill-rule="evenodd" clip-rule="evenodd" d="M74.928 176.745C67.0627 176.745 59.6775 173.618 54.1332 167.929C48.5234 162.16 45.4312 154.413 45.4312 146.113V93.5774C45.4312 92.1444 46.508 90.9805 47.8249 90.9805L151.479 91.1623C152.33 91.1623 153.239 92.0644 153.239 93.4101V143.902C153.239 160.698 140.325 174.76 124.441 175.247L75.8448 176.731C75.5392 176.746 75.2336 176.745 74.928 176.745ZM47.8249 91.9625C47.0464 91.9625 46.4134 92.6827 46.4134 93.5774V146.113C46.4134 154.159 49.4038 161.666 54.839 167.245C60.3979 172.948 67.8921 175.996 75.8157 175.756L124.412 174.265C139.772 173.792 152.264 160.174 152.264 143.902V93.4101C152.264 92.6463 151.792 92.1371 151.479 92.1371L47.8249 91.9625Z" fill="white"/>
<path d="M141.918 79.8873H140.936V53.3212C140.936 35.6154 126.529 21.2193 108.827 21.2193H90.4403C72.7378 21.2193 58.3314 35.6154 58.3314 53.3212V79.8873H57.3491V53.3212C57.3491 35.0771 72.1994 20.2373 90.4403 20.2373H108.827C127.068 20.2373 141.918 35.0771 141.918 53.3212V79.8873Z" fill="white"/>
<path d="M136.716 180.223L135.835 179.801L141.918 167.26V91.5479L139.524 84.4481L140.455 84.1353L142.893 91.3878V167.485L136.716 180.223Z" fill="white"/>
<path d="M115.652 182.158L114.742 181.787L117.645 174.767V91.5187L116.19 84.3898L117.151 84.1934L118.628 91.4241V174.963L115.652 182.158Z" fill="white"/>
<path d="M152.876 105.027H38.2351V104.045H152.628L159.824 100.183L160.282 101.048L152.876 105.027Z" fill="white"/>
<path d="M152.876 131.164H38.2351V130.189H152.628L159.824 126.327L160.282 127.185L152.876 131.164Z" fill="white"/>
<path d="M38.2425 157.308L38.2279 156.326L150.715 154.319L159.344 150.005L159.781 150.878L150.955 155.293H150.846L38.2425 157.308Z" fill="white"/>
<path d="M113.054 119.227L104.687 118.98L104.716 117.998L113.076 118.245L113.054 119.227Z" fill="white"/>
<path d="M109.598 112.12H101.514V111.138H109.598V112.12Z" fill="white"/>
<path d="M112.181 125.061L104.585 123.592L104.767 122.631L112.363 124.101L112.181 125.061Z" fill="white"/>
<g opacity="0.4">
<path d="M67.9357 163.404C62.4569 154.057 67.7756 138.489 74.2876 129.382C81.8838 118.739 88.0611 121.169 93.3289 112.433C103.137 96.1743 85.7546 81.0945 94.3475 63.9124C101.369 49.8729 115.652 54.6158 122.724 38.7067C127.824 27.2277 122.833 19.2404 130.567 10.7076C131.229 9.98012 138.476 2.21835 147.273 3.62958C156.15 5.04809 161.418 14.9704 163.142 21.8301C166.329 34.4948 157.874 38.5539 156.135 54.9577C153.778 77.2973 168.039 82.9932 162.902 99.0768C158.66 112.36 147.95 111.538 143.533 126.363C139.437 140.126 147.178 145.829 143.533 154.828C135.151 175.523 79.1189 182.463 67.9357 163.404Z" fill="url(#paint6_linear_1128_1179)"/>
<path fill-rule="evenodd" clip-rule="evenodd" d="M97.6436 175.058C85.4854 175.058 72.4759 172.105 67.5137 163.652C62.1513 154.501 66.7934 139.021 73.8875 129.098C77.8383 123.563 81.4618 121.482 84.6632 119.642C87.7409 117.867 90.404 116.339 92.9142 112.185C97.7964 104.082 95.81 96.3709 93.7073 88.2091C91.6918 80.3891 89.6036 72.2927 93.9037 63.6944C97.3525 56.8055 102.599 54.2959 107.67 51.8735C113.076 49.2838 118.671 46.6141 122.273 38.5105C124.47 33.5711 124.761 29.3593 125.045 25.2856C125.401 20.1572 125.736 15.3124 130.204 10.3804C131.019 9.49292 138.375 1.70932 147.346 3.14238C156.885 4.67 162.065 15.5307 163.615 21.7066C165.441 28.9737 163.477 33.5784 161.207 38.9105C159.409 43.1151 157.379 47.8799 156.63 55.0088C155.459 66.0222 158.398 72.9765 160.988 79.1161C163.68 85.4884 166.001 90.9879 163.368 99.2225C161.279 105.769 157.569 109.028 153.989 112.171C150.183 115.517 146.247 118.972 144.006 126.501C141.867 133.674 143.009 138.642 144.021 143.036C144.916 146.942 145.76 150.638 143.992 155.01C141.831 160.349 136.461 165.092 128.472 168.729C121.247 172.017 112.261 174.2 103.173 174.862C101.376 174.993 99.5208 175.058 97.6436 175.058ZM145.112 3.94984C137.603 3.94984 131.644 10.2567 130.931 11.0424C126.697 15.7125 126.384 20.1863 126.02 25.3584C125.743 29.3229 125.431 33.8112 123.168 38.9105C119.421 47.3416 113.658 50.0913 108.092 52.7537C102.94 55.2197 98.0801 57.5402 94.7841 64.1381C90.6441 72.4091 92.6886 80.3164 94.6604 87.969C96.7195 95.9636 98.8514 104.235 93.7509 112.687C91.117 117.059 88.2139 118.725 85.1507 120.493C81.8838 122.37 78.515 124.312 74.6878 129.666C71.2245 134.511 68.4596 140.614 67.0917 146.419C65.9712 151.162 65.2873 157.92 68.3577 163.15C72.425 170.082 83.2808 174.098 97.3525 174.098C99.2152 174.098 101.136 174.025 103.108 173.88C119.079 172.716 138.396 166.205 143.082 154.646C144.734 150.558 143.962 147.175 143.06 143.254C142.027 138.744 140.856 133.638 143.068 126.218C145.389 118.427 149.434 114.87 153.341 111.436C156.987 108.235 160.428 105.217 162.436 98.9242C164.954 91.0315 162.698 85.6849 160.086 79.4944C157.452 73.2529 154.462 66.1677 155.648 54.9069C156.419 47.6325 158.485 42.7951 160.304 38.525C162.596 33.142 164.415 28.8937 162.662 21.9467C161.17 16.0035 156.23 5.55748 147.193 4.10987C146.487 4.00076 145.796 3.94984 145.112 3.94984Z" fill="white"/>
</g>
<g opacity="0.4">
<path d="M112.13 171.937C107.445 163.95 111.992 150.659 117.551 142.876C124.048 133.79 129.323 135.863 133.82 128.4C142.202 114.513 127.352 101.63 134.686 86.9576C140.688 74.9549 152.89 79.014 158.929 65.4254C163.28 55.6195 159.024 48.7962 165.631 41.5072C166.198 40.8889 172.383 34.2547 179.899 35.4549C187.48 36.6698 191.977 45.1517 193.454 51.0003C196.175 61.8246 188.957 65.2945 187.473 79.3049C185.45 98.3857 197.638 103.252 193.25 116.986C189.619 128.334 180.474 127.636 176.705 140.293C173.205 152.049 179.819 156.93 176.705 164.612C169.545 182.288 121.676 188.217 112.13 171.937Z" fill="url(#paint7_linear_1128_1179)"/>
<path fill-rule="evenodd" clip-rule="evenodd" d="M137.509 181.969C127.097 181.969 115.957 179.437 111.708 172.185C107.11 164.343 111.082 151.089 117.151 142.592C120.541 137.857 123.641 136.067 126.377 134.496C129.003 132.983 131.273 131.681 133.405 128.145C137.56 121.257 135.864 114.681 134.075 107.726C132.35 101.034 130.56 94.1086 134.249 86.7396C137.203 80.8255 141.692 78.6796 146.036 76.6064C150.649 74.4022 155.415 72.1254 158.478 65.222C160.348 61.0174 160.595 57.4311 160.836 53.9539C161.141 49.5602 161.432 45.4065 165.267 41.1801C165.958 40.4163 172.266 33.7384 179.971 34.9751C188.157 36.2844 192.595 45.5884 193.927 50.8841C195.491 57.1183 193.81 61.061 191.868 65.6293C190.332 69.2156 188.601 73.282 187.96 79.3561C186.964 88.7401 189.474 94.676 191.678 99.9135C193.985 105.369 195.971 110.076 193.716 117.139C191.919 122.748 188.746 125.534 185.683 128.233C182.438 131.077 179.084 134.023 177.177 140.439C175.358 146.542 176.326 150.783 177.185 154.522C177.956 157.876 178.684 161.04 177.163 164.794C175.308 169.377 170.709 173.436 163.87 176.549C157.685 179.364 150.002 181.227 142.238 181.794C140.696 181.903 139.109 181.969 137.509 181.969ZM178.051 35.8043C171.662 35.8043 166.598 41.1728 165.994 41.8348C162.385 45.8139 162.123 49.6184 161.818 54.0267C161.578 57.4165 161.316 61.2574 159.373 65.622C156.164 72.8528 151.231 75.2097 146.458 77.4866C142.071 79.5816 137.931 81.5675 135.122 87.1761C131.608 94.2177 133.34 100.961 135.02 107.479C136.788 114.331 138.615 121.409 134.242 128.655C131.979 132.408 129.498 133.834 126.871 135.347C124.085 136.94 121.211 138.599 117.951 143.16C115.004 147.292 112.639 152.493 111.475 157.439C110.529 161.484 109.94 167.238 112.552 171.69C116.008 177.582 125.263 181.001 137.254 181.001C138.845 181.001 140.482 180.94 142.165 180.819C155.786 179.823 172.259 174.272 176.253 164.43C177.658 160.96 176.996 158.08 176.232 154.741C175.344 150.885 174.347 146.513 176.239 140.155C178.225 133.478 181.689 130.437 185.036 127.498C188.135 124.77 191.067 122.195 192.777 116.841C194.924 110.127 193.003 105.566 190.776 100.292C188.521 94.9524 185.967 88.8928 186.985 79.2543C187.64 73.0274 189.408 68.8955 190.965 65.2438C192.915 60.6536 194.465 57.0383 192.974 51.1242C191.7 46.0612 187.502 37.1719 179.819 35.9425C179.222 35.848 178.633 35.8043 178.051 35.8043Z" fill="white"/>
</g>
</g>
<path d="M146.466 80.5128C146.466 80.5128 146.463 80.5128 146.458 80.5128L137.712 80.4837C136.396 80.4837 135.326 79.3634 135.326 77.9885V56.3545C135.326 49.0001 132.59 42.0385 127.613 36.75C122.637 31.4543 116.008 28.4645 108.943 28.319L92.0921 27.9771C89.1089 27.9189 86.1694 28.3627 83.3609 29.2938L83.1281 28.6027C86.0166 27.6352 89.0362 27.1842 92.1066 27.2424L108.958 27.5843C116.219 27.7298 123.037 30.8069 128.152 36.2408C133.252 41.6675 136.061 48.811 136.061 56.3545V77.9885C136.061 78.956 136.803 79.7489 137.72 79.7489L146.458 79.778C146.463 79.778 146.466 79.778 146.466 79.778C146.88 79.778 147.28 79.6107 147.579 79.3125C147.913 78.9779 148.103 78.5268 148.103 78.0322V56.4927C148.103 45.5739 144.043 35.2297 136.672 27.3515C129.294 19.4661 119.442 14.9851 108.936 14.7232L92.0921 14.3085C84.6342 14.1194 77.3218 16.0762 70.9553 19.9535L70.5697 19.3279C77.0599 15.3779 84.5032 13.3847 92.1066 13.5738L108.958 13.9885C119.661 14.2504 129.694 18.8187 137.21 26.8496C144.705 34.866 148.837 45.392 148.837 56.4927V78.0322C148.837 78.7233 148.576 79.3561 148.103 79.829C147.659 80.2727 147.077 80.5128 146.466 80.5128Z" fill="white"/>
<path fill-rule="evenodd" clip-rule="evenodd" d="M128.465 182.151L128.363 181.423C146.247 178.914 159.737 162.786 159.737 143.902V93.4103C159.737 88.5947 156.041 84.6738 151.493 84.6665L85.9802 84.5501V83.8154L151.493 83.9318C156.441 83.9391 160.472 88.1946 160.472 93.4103V143.902C160.472 163.15 146.713 179.59 128.465 182.151ZM111.257 128.284L110.646 127.876C112.072 125.716 112.821 123.192 112.821 120.58C112.821 117.074 111.483 113.808 109.06 111.4C106.76 109.116 103.741 107.865 100.547 107.886C97.1416 107.908 93.8528 109.414 91.5173 112.018L90.9716 111.524C93.4454 108.767 96.9306 107.173 100.547 107.152C100.571 107.152 100.595 107.152 100.62 107.152C103.981 107.152 107.161 108.476 109.576 110.876C112.145 113.429 113.556 116.878 113.556 120.58C113.556 123.337 112.763 126 111.257 128.284Z" fill="white"/>
<path d="M144.952 105.042C144.952 106.41 143.846 107.523 142.471 107.523C141.103 107.523 139.99 106.41 139.99 105.042C139.99 103.675 141.103 102.562 142.471 102.562C143.846 102.562 144.952 103.675 144.952 105.042Z" fill="white"/>
<path d="M144.952 91.3517C144.952 92.7265 143.846 93.8322 142.471 93.8322C141.103 93.8322 139.99 92.7265 139.99 91.3517C139.99 89.9841 141.103 88.8711 142.471 88.8711C143.846 88.8711 144.952 89.9841 144.952 91.3517Z" fill="white"/>
<path d="M144.952 130.546C144.952 131.921 143.846 133.027 142.471 133.027C141.103 133.027 139.99 131.921 139.99 130.546C139.99 129.178 141.103 128.065 142.471 128.065C143.846 128.065 144.952 129.178 144.952 130.546Z" fill="white"/>
<path d="M144.952 156.057C144.952 157.425 143.846 158.538 142.471 158.538C141.103 158.538 139.99 157.425 139.99 156.057C139.99 154.682 141.103 153.577 142.471 153.577C143.846 153.577 144.952 154.682 144.952 156.057Z" fill="white"/>
<path d="M143.977 75.5519C143.977 76.9267 142.871 78.0324 141.496 78.0324C140.128 78.0324 139.015 76.9267 139.015 75.5519C139.015 74.1843 140.128 73.0713 141.496 73.0713C142.871 73.0713 143.977 74.1843 143.977 75.5519Z" fill="white"/>
<path d="M119.566 104.562C119.566 105.428 118.868 106.133 117.994 106.133C117.129 106.133 116.423 105.428 116.423 104.562C116.423 103.696 117.129 102.991 117.994 102.991C118.868 102.991 119.566 103.696 119.566 104.562Z" fill="white"/>
<path d="M119.566 91.5698C119.566 92.4355 118.868 93.1411 117.994 93.1411C117.129 93.1411 116.423 92.4355 116.423 91.5698C116.423 90.6969 117.129 89.9985 117.994 89.9985C118.868 89.9985 119.566 90.6969 119.566 91.5698Z" fill="white"/>
<path d="M119.566 130.546C119.566 131.419 118.868 132.117 117.994 132.117C117.129 132.117 116.423 131.419 116.423 130.546C116.423 129.68 117.129 128.975 117.994 128.975C118.868 128.975 119.566 129.68 119.566 130.546Z" fill="white"/>
<path d="M143.068 57.0967C143.068 57.9623 142.369 58.6679 141.496 58.6679C140.63 58.6679 139.924 57.9623 139.924 57.0967C139.924 56.231 140.63 55.5254 141.496 55.5254C142.369 55.5254 143.068 56.231 143.068 57.0967Z" fill="white"/>
<path d="M138.396 36.7212C138.396 37.5941 137.691 38.2924 136.825 38.2924C135.952 38.2924 135.253 37.5941 135.253 36.7212C135.253 35.8555 135.952 35.1499 136.825 35.1499C137.691 35.1499 138.396 35.8555 138.396 36.7212Z" fill="white"/>
<path d="M124.201 23.5762C124.201 24.4418 123.495 25.1474 122.629 25.1474C121.756 25.1474 121.051 24.4418 121.051 23.5762C121.051 22.7032 121.756 22.0049 122.629 22.0049C123.495 22.0049 124.201 22.7032 124.201 23.5762Z" fill="white"/>
<path d="M100.911 20.4336C100.911 21.2992 100.205 22.0048 99.339 22.0048C98.4658 22.0048 97.7673 21.2992 97.7673 20.4336C97.7673 19.5606 98.4658 18.8623 99.339 18.8623C100.205 18.8623 100.911 19.5606 100.911 20.4336Z" fill="white"/>
<path d="M136.825 47.8653C136.825 49.2329 135.712 50.3459 134.344 50.3459C132.968 50.3459 131.863 49.2329 131.863 47.8653C131.863 46.4905 132.968 45.3848 134.344 45.3848C135.712 45.3848 136.825 46.4905 136.825 47.8653Z" fill="white"/>
<path d="M80.4142 193.091C80.305 193.091 80.2104 192.997 80.2104 192.888V111.844C80.2104 111.727 80.305 111.633 80.4142 111.633C80.5306 111.633 80.6252 111.727 80.6252 111.844V192.888C80.6252 192.997 80.5306 193.091 80.4142 193.091Z" fill="#D8DEE8"/>
<path d="M58.5788 187.999C58.4624 187.999 58.3751 187.912 58.3751 187.796V109.8C58.3751 109.683 58.4624 109.589 58.5788 109.589C58.688 109.589 58.7826 109.683 58.7826 109.8V187.796C58.7826 187.912 58.688 187.999 58.5788 187.999Z" fill="#D8DEE8"/>
<path d="M8.08351 191.637C8.05926 191.637 8.03743 191.632 8.01803 191.622C7.90889 191.586 7.85068 191.462 7.89434 191.36L37.0856 110.935C37.122 110.826 37.2457 110.767 37.3475 110.811C37.4567 110.847 37.5149 110.964 37.4712 111.073L8.27997 191.498C8.25086 191.578 8.17083 191.637 8.08351 191.637Z" fill="#97A6B7"/>
<path d="M29.6349 197.929C29.6155 197.929 29.5961 197.924 29.5767 197.914C29.4676 197.885 29.4094 197.769 29.4385 197.66L55.6393 112.87C55.6757 112.76 55.7921 112.695 55.9012 112.731C56.0104 112.768 56.0686 112.877 56.0322 112.986L29.8314 197.783C29.8096 197.871 29.7222 197.929 29.6349 197.929Z" fill="#97A6B7"/>
<path d="M58.819 109.712L80.7269 111.335V111.829L55.6903 112.95L36.9764 110.658V110.163L58.819 109.712Z" fill="#D8DEE8"/>
<path d="M58.819 109.225L80.7269 111.335L55.6903 112.462L36.9764 110.163L58.819 109.225Z" fill="white"/>
<path d="M35.303 179.583C35.2884 179.583 35.2715 179.58 35.2521 179.576L14.3918 174.105C14.2827 174.076 14.2172 173.96 14.2463 173.851C14.2754 173.742 14.3918 173.676 14.501 173.705L35.3612 179.176C35.4703 179.205 35.5358 179.321 35.5067 179.43C35.4776 179.525 35.3976 179.583 35.303 179.583Z" fill="#97A6B7"/>
<path d="M41.2183 160.386C41.2038 160.386 41.1917 160.386 41.182 160.386L20.7073 156.763C20.5982 156.741 20.5182 156.632 20.54 156.523C20.5618 156.414 20.6637 156.334 20.7801 156.356L41.2474 159.978C41.3639 160 41.4366 160.109 41.4148 160.218C41.4002 160.32 41.3129 160.386 41.2183 160.386Z" fill="#97A6B7"/>
<path d="M47.3593 140.578C47.3496 140.578 47.3399 140.578 47.3302 140.578L27.5176 138.024C27.4085 138.01 27.3285 137.901 27.343 137.792C27.3576 137.675 27.4594 137.603 27.5686 137.617L47.3884 140.17C47.4975 140.185 47.5775 140.287 47.563 140.396C47.5484 140.498 47.4611 140.578 47.3593 140.578Z" fill="#97A6B7"/>
<path d="M51.2956 126.829C51.2859 126.829 51.2762 126.829 51.2665 126.829L32.6327 123.912C32.5236 123.898 32.4436 123.788 32.4654 123.679C32.4799 123.563 32.5891 123.49 32.6982 123.505L51.3248 126.422C51.4412 126.436 51.5139 126.545 51.4994 126.655C51.4848 126.756 51.3975 126.829 51.2956 126.829Z" fill="#97A6B7"/>
<path d="M68.7362 107.29C68.7362 107.29 74.3314 109.836 74.426 110.236C74.5133 110.644 70.8244 110.105 69.3183 110.164C67.8121 110.222 66.5752 109.778 66.7062 109.138C66.8444 108.498 67.3756 106.897 67.3756 106.897L68.7362 107.29Z" fill="url(#paint8_linear_1128_1179)"/>
<path d="M68.9399 105.224L68.5979 107.748C68.5979 107.748 67.7175 108.061 67.1209 107.69L66.8662 104.926L68.9399 105.224Z" fill="url(#paint9_linear_1128_1179)"/>
<path d="M42.579 105.29L41.9315 106.33C41.7496 106.621 41.6914 106.977 41.7787 107.312C42.0115 108.177 42.4626 109.872 42.6663 110.309C42.9356 110.913 46.5517 111.269 46.5517 111.269C46.5517 111.269 46.8791 110.818 46.1224 110.265C45.373 109.72 44.8928 109.632 44.6236 108.825C44.3616 108.01 44.1797 105.719 44.1797 105.719L42.579 105.29Z" fill="url(#paint10_linear_1128_1179)"/>
<path d="M45.2929 102.635C45.0528 102.824 43.8887 106.352 43.8887 106.352C43.8887 106.352 43.5176 106.832 42.7973 106.119C42.0842 105.413 42.4771 105.806 42.4771 105.806L42.6081 102.329L45.2929 102.635Z" fill="url(#paint11_linear_1128_1179)"/>
<path d="M72.0177 54.609C72.316 62.1234 72.3306 70.2853 71.894 79.0146C71.4065 88.835 70.4315 97.9134 69.1946 106.141C68.7362 106.155 68.256 106.163 67.754 106.148C67.4144 106.138 67.0846 106.121 66.7644 106.097C66.1241 104.395 65.3674 102.147 64.6908 99.4702C63.9777 96.6477 63.5484 94.1235 63.2428 91.7011C62.166 83.1901 63.432 82.4481 62.5516 76.1412C61.7804 70.5545 60.6817 70.3362 59.3866 62.3999C57.9823 53.7943 59.0228 52.4994 59.5321 52.0339C61.7003 50.048 66.779 51.401 72.0177 54.609Z" fill="url(#paint12_linear_1128_1179)"/>
<path style="mix-blend-mode:multiply" opacity="0.3" d="M59.5321 52.0339C61.5985 50.1426 66.3133 51.2919 71.2974 54.1799C65.5639 60.3704 64.9382 64.3858 65.6294 66.9901C66.4006 69.9362 68.7653 70.7873 68.758 74.0099C68.7435 77.9671 65.171 79.0146 65.251 83.1974C65.2947 85.969 66.8663 85.9399 67.2374 89.3588C67.6739 93.4107 65.6294 94.8001 66.2915 97.7971C66.5752 99.0847 67.3902 100.772 69.7185 102.504C69.5511 103.733 69.3765 104.948 69.1946 106.141C68.7362 106.155 68.256 106.163 67.754 106.148C67.4144 106.138 67.0846 106.121 66.7644 106.097C66.1241 104.395 65.3674 102.147 64.6908 99.4702C63.9777 96.6478 63.5484 94.1235 63.2428 91.7012C62.166 83.1901 63.432 82.4481 62.5516 76.1413C61.7804 70.5545 60.6817 70.3363 59.3866 62.3999C57.9823 53.7943 59.0228 52.4995 59.5321 52.0339Z" fill="url(#paint13_linear_1128_1179)"/>
<path d="M68.4743 54.4778C63.5339 61.7013 58.2151 70.6851 53.4494 81.4367C49.855 89.5694 47.243 97.2003 45.3294 104.002C45.0747 104.118 44.4562 104.358 43.6777 104.256C42.6154 104.111 41.9751 103.434 41.8078 103.245C41.0293 98.3715 41.1166 94.2396 41.3785 91.2571C41.5459 89.3512 41.8442 86.1723 43.0665 82.2514C44.4271 77.8577 45.3657 77.6103 47.1411 72.962C48.9819 68.1391 48.5381 66.9315 50.3061 60.8938C51.0337 58.4132 52.2488 54.7251 54.2497 50.3096C58.9888 51.7014 63.7303 53.0908 68.4743 54.4778Z" fill="url(#paint14_linear_1128_1179)"/>
<path d="M91.2553 63.6438C90.3094 65.1205 87.0425 64.9459 84.8088 64.1457C79.5919 62.2835 76.2522 55.6492 75.9612 50.3753C75.8957 49.2405 75.9393 48.1348 75.7065 48.0984C75.1317 48.0111 73.6474 54.8636 72.4833 60.6758C71.5447 61.0177 70.1258 61.3814 68.5033 61.1196C65.8476 60.6831 65.5347 59.0318 62.5588 57.9552C60.8271 57.3296 59.1318 57.3296 55.7339 57.3223C51.8995 57.3223 51.7976 57.7952 51.0555 57.4533C51.0555 57.4533 50.8736 57.3514 50.7208 57.235C47.9923 55.2782 55.7994 40.3876 53.5511 26.6462C53.2965 25.1186 52.9181 23.5546 53.7694 22.0197C55.974 18.0697 64.6907 17.5169 70.0895 20.1138C71.5665 20.8267 74.0403 22.3834 76.2595 24.0275C77.1399 24.6894 78.0639 25.4241 79.0244 26.2607C81.3454 28.2902 82.9679 29.7088 84.3067 31.6728C89.6837 39.5874 83.4627 46.1852 88.3449 56.3112C90.0257 59.7956 92.2521 62.1016 91.2553 63.6438Z" fill="url(#paint15_linear_1128_1179)"/>
<path d="M76.7834 18.688C76.7834 18.688 75.3791 20.2811 73.873 21.1031C72.5124 21.8451 69.5147 20.5939 68.8162 20.4484C68.125 20.2956 68.9544 22.1651 70.2641 23.4527C71.5738 24.7476 75.9103 27.6937 77.0745 27.7373C78.2386 27.7882 76.8853 26.7698 76.1722 25.5768C75.4519 24.3838 76.4633 21.9251 77.3655 21.1686C78.275 20.4047 76.7834 18.688 76.7834 18.688Z" fill="url(#paint16_linear_1128_1179)"/>
<path d="M89.7637 60.9596C89.7637 60.9596 91.9901 60.8214 93.3362 60.2977C94.675 59.7812 95.5044 60.625 95.3589 61.1779C95.2207 61.738 93.016 62.4436 92.1502 62.4436C91.2771 62.4436 89.7637 60.9596 89.7637 60.9596Z" fill="url(#paint17_linear_1128_1179)"/>
<path d="M79.9993 19.9319C81.5927 19.8155 83.2007 17.8514 82.8733 17.0003C82.7787 16.753 82.575 16.7166 79.4609 16.2001C77.9184 15.9455 77.1471 15.8437 76.6087 16.2729C76.2813 16.5348 76.0266 17.0003 75.9466 17.4368C75.9102 17.6623 75.9029 17.9751 75.9466 18.5934C75.9757 19.1463 75.9684 19.1172 75.983 19.2845C76.0193 19.67 76.1212 20.3611 76.5068 21.3068C76.6596 21.1395 76.8706 20.9285 77.1398 20.7248C77.2417 20.6448 77.6419 20.3393 78.1003 20.1574C78.8934 19.8373 79.49 19.9756 79.9993 19.9319Z" fill="url(#paint18_linear_1128_1179)"/>
<path d="M75.9247 20.2522C75.9247 20.2522 75.9902 21.7725 77.4309 22.4418C78.7114 23.0383 80.414 20.354 79.9484 19.3356C79.7883 18.9937 79.3081 18.6227 78.806 18.5063C78.515 18.4408 78.3695 18.499 77.8965 18.3754C77.4527 18.2663 77.3727 18.1644 77.198 18.1935C76.987 18.2372 76.7178 18.4845 76.5141 19.4302C76.4122 19.0592 76.1794 18.8118 75.9247 18.7973C75.8811 18.79 75.7647 18.8046 75.6701 18.8628C75.3208 19.0883 75.3936 19.6557 75.9247 20.2522Z" fill="url(#paint19_linear_1128_1179)"/>
<path d="M41.6186 50.9497C39.4722 49.895 34.8301 47.1962 33.404 42.2278C31.032 33.9568 39.4794 26.0641 43.8377 23.1107C48.8363 19.7281 53.8641 19.1825 56.9127 18.8479C60.7035 18.4332 63.0172 18.1859 64.7562 19.6044C69.2455 23.2853 66.5461 35.4189 62.1005 36.6701C60.6453 37.0775 60.0923 36.0082 57.0437 35.2734C56.0469 35.0407 48.6326 33.2512 44.7836 37.1721C42.0842 39.9145 41.7423 44.832 43.6413 49.4294C42.9671 49.9386 42.2928 50.4454 41.6186 50.9497Z" fill="url(#paint20_linear_1128_1179)"/>
<path d="M42.0552 50.6226L43.1902 49.7715C43.1902 49.7715 43.9033 50.2661 44.7764 50.1934C45.2566 50.157 45.8896 50.448 46.0279 50.5935C46.1734 50.7463 46.8355 51.11 45.8823 51.0154C44.9365 50.9208 44.7837 51.1827 44.9146 51.6555C45.0456 52.1357 45.8387 53.4596 46.2389 53.7433C46.6463 54.027 45.4894 54.2161 45.0165 54.0416C44.5436 53.867 43.7869 53.5542 43.2339 52.5285C43.0302 52.1502 42.0552 50.6226 42.0552 50.6226Z" fill="url(#paint21_linear_1128_1179)"/>
<path fill-rule="evenodd" clip-rule="evenodd" d="M131.186 55.1982L125.86 60.1448C125.525 60.4503 125.089 60.6249 124.63 60.6249L120.709 60.6612L120.599 58.6244L117.216 58.6462L118.54 59.7665L117.318 60.6903L114.146 60.7194L114.044 58.8354L109.896 58.8645L109.991 60.7558L108.441 60.7704L108.39 59.7956L104.898 59.8247L106.164 59.8756L104.941 60.7994L102.213 60.8285L102.104 58.7626L100.154 58.7772L101.478 59.9193L100.256 60.8431L98.5604 60.8576L98.4513 58.7917L95.0388 58.8208L96.3703 59.9629L95.148 60.8867L88.2649 60.9522C86.7005 66.8008 82.4732 71.6019 76.7979 74.0607C76.7931 74.0655 76.7882 74.0679 76.7834 74.0679C76.6379 74.131 76.4899 74.1916 76.3395 74.2498C76.325 74.2595 76.3104 74.2668 76.2959 74.2716C76.1455 74.3298 75.9927 74.388 75.8375 74.4462C75.8375 74.4462 75.8351 74.4486 75.8302 74.4535C75.5149 74.5699 75.1948 74.6814 74.8698 74.7881C74.8455 74.7929 74.8237 74.7978 74.8043 74.8027C74.6685 74.8463 74.5327 74.8899 74.3968 74.9336C74.3629 74.9433 74.3289 74.953 74.295 74.9627C74.164 75.0015 74.0355 75.0379 73.9094 75.0718C73.8754 75.0815 73.8414 75.0888 73.8075 75.0936C73.4873 75.1809 73.1624 75.2609 72.8325 75.3337C72.8034 75.3385 72.7719 75.3434 72.7379 75.3482C72.6118 75.3773 72.4808 75.404 72.345 75.4282C72.2965 75.4379 72.248 75.4476 72.1995 75.4573C72.0831 75.4816 71.9667 75.5034 71.8503 75.5228C71.8017 75.5325 71.7508 75.5398 71.6975 75.5446C71.5713 75.564 71.4428 75.5834 71.3118 75.6028C71.2779 75.6077 71.2415 75.615 71.2027 75.6247C71.0378 75.6441 70.8704 75.6635 70.7006 75.6828C70.6715 75.6877 70.6424 75.6925 70.6133 75.6974C70.4775 75.7119 70.3393 75.7241 70.1986 75.7338C70.1452 75.7386 70.0895 75.7435 70.0313 75.7483C69.9197 75.758 69.8057 75.7677 69.6893 75.7774C69.6311 75.7823 69.5704 75.7871 69.5074 75.792C69.391 75.7968 69.2746 75.8017 69.1581 75.8065C69.1048 75.8114 69.0514 75.8138 68.9981 75.8138C68.8283 75.8235 68.6561 75.8283 68.4815 75.8283C56.3888 76.0393 45.9696 66.7354 45.3657 55.0454C44.7618 43.3482 54.2133 33.9351 66.3278 34.0152C66.4975 34.0152 66.6673 34.02 66.8371 34.0297C66.8905 34.0297 66.9438 34.0297 66.9972 34.0297C67.1184 34.0346 67.2373 34.0394 67.3537 34.0443C67.4167 34.0491 67.4774 34.054 67.5356 34.0588C67.652 34.0637 67.7684 34.0709 67.8848 34.0806C67.9382 34.0855 67.994 34.0903 68.0522 34.0952C68.188 34.1049 68.3262 34.117 68.4669 34.1315C68.496 34.1315 68.5251 34.134 68.5542 34.1388C68.724 34.1582 68.8938 34.1776 69.0635 34.197C69.1024 34.2019 69.1412 34.2067 69.18 34.2116C69.3061 34.231 69.4346 34.2504 69.5656 34.2698C69.6189 34.2746 69.6723 34.2819 69.7257 34.2916C69.8421 34.311 69.9609 34.3304 70.0822 34.3498C70.1307 34.3595 70.1792 34.3692 70.2277 34.3789C70.3635 34.4031 70.4969 34.4274 70.6279 34.4516C70.657 34.4565 70.6885 34.4613 70.7225 34.4662C71.0572 34.5341 71.3894 34.6092 71.7193 34.6917C71.7581 34.7014 71.7945 34.7111 71.8284 34.7208C71.9594 34.7547 72.0904 34.7887 72.2213 34.8226C72.2553 34.8323 72.2917 34.842 72.3305 34.8517C72.4711 34.8905 72.6094 34.9317 72.7452 34.9754C72.7694 34.9802 72.7913 34.9875 72.8107 34.9972C73.1454 35.0942 73.4776 35.2009 73.8075 35.3173C73.8123 35.3173 73.8172 35.3197 73.822 35.3245C73.9773 35.3779 74.1325 35.4337 74.2877 35.4919C74.3071 35.4967 74.3241 35.504 74.3386 35.5137C74.4939 35.5719 74.6467 35.6301 74.797 35.6883C74.8019 35.6931 74.8092 35.6955 74.8189 35.6955C80.7415 38.0888 85.4636 42.8463 87.6319 48.6803L127.482 48.6076C128.13 48.6076 128.748 48.9349 129.127 49.4732L131.404 52.7903C131.443 52.8437 131.479 52.9019 131.513 52.9649C131.523 52.9795 131.533 52.9965 131.542 53.0159C131.562 53.0595 131.581 53.1056 131.601 53.1541C131.61 53.1686 131.618 53.1832 131.622 53.1977C131.647 53.2559 131.666 53.3165 131.681 53.3796C131.681 53.3796 131.683 53.3796 131.688 53.3796C131.863 54.0343 131.688 54.7326 131.186 55.1982ZM57.8076 59.2355C60.2669 59.2136 62.1514 57.3005 62.0349 54.9508C61.9113 52.6085 59.823 50.7099 57.3638 50.7171C54.9045 50.7244 52.9982 52.6449 53.1219 55.0018C53.2383 57.3587 55.341 59.25 57.8076 59.2355Z" fill="url(#paint22_linear_1128_1179)"/>
<path d="M76.9727 60.1373L96.3704 59.9628L96.2613 57.8968L99.6737 57.8677L99.7756 59.9337L101.478 59.9191L101.369 57.8532L103.326 57.8386L103.435 59.9046L106.164 59.8755L106.113 58.9007L109.613 58.8716L109.664 59.8464L111.213 59.8318L111.119 57.9478L115.266 57.9114L115.361 59.7954L118.54 59.7663L118.439 57.7222L121.822 57.7004L121.924 59.7373L125.853 59.7009C126.311 59.7009 126.748 59.5263 127.082 59.2208L132.408 54.2742C133.071 53.6631 133.165 52.6375 132.627 51.8664L130.342 48.5565C129.971 48.0109 129.352 47.6836 128.705 47.6836L80.3633 47.7709L76.9727 60.1373Z" fill="url(#paint23_linear_1128_1179)"/>
<path fill-rule="evenodd" clip-rule="evenodd" d="M67.5429 33.0913C79.4901 33.1713 89.5309 42.4826 90.1203 53.8888C90.7096 65.2878 81.6365 74.7008 69.7039 74.9045C57.6112 75.1155 47.192 65.8115 46.5881 54.1216C45.9842 42.4244 55.4357 33.0113 67.5429 33.0913ZM58.5862 49.7933C56.1196 49.8006 54.2206 51.721 54.337 54.0779C54.4607 56.4348 56.5635 58.3262 59.03 58.3116C61.482 58.2898 63.3738 56.3766 63.2501 54.027C63.1337 51.6847 61.0455 49.786 58.5862 49.7933Z" fill="url(#paint24_linear_1128_1179)"/>
<path style="mix-blend-mode:multiply" opacity="0.3" fill-rule="evenodd" clip-rule="evenodd" d="M88.8543 47.7565L128.705 47.6837C129.352 47.6837 129.971 48.0111 130.342 48.5567L132.627 51.8665C132.969 52.3612 133.056 52.9577 132.896 53.4887C128.61 55.14 125.249 55.1036 122.746 54.5944C119.908 54.0197 118.664 52.9431 115.237 52.8631C110.311 52.754 109.773 54.9145 104.505 55.4673C98.1894 56.1366 95.0607 53.4669 92.8415 55.4164C92.0557 56.1075 91.3645 57.4023 91.5537 60.0066L89.4873 60.0284C87.2317 68.4812 79.4173 74.7372 69.7039 74.9045C57.6112 75.1155 47.192 65.8115 46.5881 54.1216C45.9842 42.4244 55.4357 33.0113 67.5429 33.0913C77.2636 33.1568 85.7256 39.3328 88.8543 47.7565ZM59.03 58.3116C61.482 58.2898 63.3738 56.3766 63.2501 54.027C63.1337 51.6847 61.0455 49.786 58.5862 49.7933C56.1196 49.8006 54.2206 51.721 54.337 54.0779C54.4607 56.4348 56.5635 58.3262 59.03 58.3116Z" fill="url(#paint25_linear_1128_1179)"/>
<path fill-rule="evenodd" clip-rule="evenodd" d="M67.7612 37.194C77.3728 37.2376 85.4709 44.7157 85.9439 53.9105C86.4168 63.0981 79.0972 70.6634 69.4929 70.8017C59.7867 70.9471 51.4411 63.4691 50.9537 54.0924C50.4734 44.723 58.0405 37.1576 67.7612 37.194ZM58.5862 49.7932C56.1196 49.8005 54.2206 51.7209 54.337 54.0778C54.4607 56.4347 56.5634 58.3261 59.03 58.3115C61.482 58.2897 63.3738 56.3765 63.2501 54.0269C63.1337 51.6846 61.0455 49.7859 58.5862 49.7932Z" fill="url(#paint26_linear_1128_1179)"/>
<path d="M154.571 193.36C155.051 194.342 154.913 194.764 154.797 194.953C154.447 195.499 153.596 194.982 151.384 195.244C151.122 195.273 150.627 195.346 150.009 195.193C149.478 195.07 148.859 194.793 148.881 194.648C148.896 194.597 148.99 194.575 149.019 194.568C149.638 194.437 153.48 193.258 153.48 193.258L154.571 193.36Z" fill="url(#paint27_linear_1128_1179)"/>
<path d="M154.862 191.2L154.52 193.397C154.52 193.397 153.574 194.066 153.327 193.251C153.152 192.669 153.152 191.098 153.152 191.098L154.862 191.2Z" fill="url(#paint28_linear_1128_1179)"/>
<path d="M143.708 192.284L144.632 194.815L145.985 194.604L145.673 192.262L143.708 192.284Z" fill="url(#paint29_linear_1128_1179)"/>
<path d="M145.054 196.212C145.709 195.441 146.291 195.506 146.407 194.975C146.502 194.561 146.24 194.044 145.854 193.855C145.316 193.579 144.654 194.008 144.508 194.102C143.497 194.757 143.774 195.783 142.82 196.227C142.631 196.321 142.326 196.416 142.005 196.714C141.875 196.838 141.533 197.158 141.613 197.376C141.707 197.623 142.304 197.616 142.879 197.609C143.563 197.594 143.905 197.594 144.232 197.383C144.69 197.1 144.552 196.809 145.054 196.212Z" fill="url(#paint30_linear_1128_1179)"/>
<path d="M162.08 138.591C161.825 143.705 161.098 148.07 160.261 151.634C159.366 155.461 158.878 156.115 158.566 158.77C157.889 164.546 159.737 165.419 159.941 171.966C160.166 179.197 158.122 184.9 157.314 187.075C156.616 188.974 155.888 190.509 155.35 191.571C154.673 192.131 153.662 191.891 152.599 191.651C152.345 185.089 151.988 178.913 151.733 172.352C150.676 162.463 149.618 152.578 148.561 142.694C153.067 141.326 157.574 139.959 162.08 138.591Z" fill="url(#paint31_linear_1128_1179)"/>
<path style="mix-blend-mode:multiply" opacity="0.3" d="M152.599 191.651C152.345 185.089 151.988 178.913 151.733 172.352C150.676 162.463 149.618 152.578 148.561 142.694C153.067 141.326 157.574 139.959 162.08 138.591C162.058 138.926 162.036 139.253 162.014 139.588C155.626 144.898 154.302 149.19 154.302 152.136C154.302 155.708 156.215 157.519 155.721 162.691C155.371 166.387 154.244 167.012 154.171 170.351C154.076 174.658 155.873 177.116 156.717 179.619C157.54 182.041 157.772 185.453 155.99 190.254C155.757 190.749 155.539 191.192 155.35 191.571C154.673 192.131 153.662 191.891 152.599 191.651Z" fill="url(#paint32_linear_1128_1179)"/>
<path d="M154.054 143.349C150.642 148.834 148.721 153.162 147.673 155.839C147.033 157.469 146.451 159.178 146.276 161.419C146.058 164.168 146.56 166.445 147.004 167.907C147.652 169.777 148.234 171.959 148.568 174.411C149.674 182.376 147.673 188.974 146.131 192.757C145.331 193.038 144.53 193.317 143.73 193.593C142.042 188.516 139.983 181.329 138.593 172.483C137.829 167.653 137.247 163.863 137.349 159.069C137.451 154.013 138.338 146.033 142.682 136.562C146.47 138.827 150.261 141.089 154.054 143.349Z" fill="url(#paint33_linear_1128_1179)"/>
<path d="M153.152 99.5426C148.081 100.306 144.21 101.128 142.435 103.733C140.565 106.497 143.402 108.657 144.057 114.812C145.054 124.232 139.575 127.622 140.928 137.115C141.387 140.308 142.413 142.796 143.133 144.28C144.734 145.648 147.295 147.517 150.787 148.827C155.873 150.725 158.427 149.743 165.318 150.281C176.581 151.169 178.203 154.479 183.34 152.573C188.535 150.652 192.384 145.24 191.344 142.869C190.718 141.45 188.63 142.28 185.712 140.49C181.943 138.184 182.649 135.165 179.608 132.496C175.242 128.655 170.884 132.343 167.151 129.011C163.375 125.636 163.091 117.627 164.83 112.898C165.965 109.807 166.052 106.424 166.918 103.245C166.984 102.983 167.049 102.561 166.896 102.081C166.3 100.234 162.953 99.8045 160.421 99.5062C156.557 99.0552 153.574 99.4844 153.152 99.5426Z" fill="url(#paint34_linear_1128_1179)"/>
<path style="mix-blend-mode:multiply" opacity="0.3" d="M182.824 149.001C181.289 147.925 182.198 144.993 179.913 143.378C177.803 141.88 176.086 143.742 172.943 142.709C168.912 141.378 169.203 137.471 165.347 136.14C162.567 135.187 161.687 136.955 157.649 136.94C153.618 136.933 148.379 135.158 145.127 130.823C143.744 128.975 142.988 127.025 142.595 125.229C141.445 128.684 140.201 132.016 140.929 137.115C141.387 140.308 142.413 142.796 143.133 144.28C144.734 145.648 147.295 147.517 150.788 148.827C155.873 150.725 158.427 149.743 165.318 150.282C176.581 151.169 178.203 154.479 183.34 152.573C186.665 151.344 189.423 148.696 190.718 146.317C186.193 149.467 183.944 149.78 182.824 149.001Z" fill="url(#paint35_linear_1128_1179)"/>
<path d="M150.424 90.7334C150.424 90.7334 148.968 93.3231 148.845 95.1562C148.714 96.9894 150.795 96.8948 150.795 96.8948L150.686 98.0514C150.598 99.0407 149.943 99.8846 149.005 100.205L148.183 100.488C148.183 100.488 153.487 101.74 156.448 99.7464L155.611 99.6445C154.425 99.5063 153.501 98.5461 153.407 97.3604L153.363 96.8584C153.363 96.8584 154.411 91.1626 150.424 90.7334Z" fill="url(#paint36_linear_1128_1179)"/>
<path d="M141.94 119.715L135.341 104.998C135.261 104.817 135.071 104.708 134.875 104.737L123.342 106.191C123.03 106.228 122.855 106.555 122.993 106.839L130.771 122.741C130.859 122.93 131.077 123.032 131.281 122.981L141.554 120.442L141.94 119.715Z" fill="url(#paint37_linear_1128_1179)"/>
<path d="M140.128 117.932L134.788 106.017C134.715 105.872 134.562 105.784 134.402 105.806L125.067 106.985C124.819 107.014 124.674 107.283 124.783 107.508L131.077 120.384C131.157 120.537 131.331 120.617 131.499 120.58L139.808 118.522L140.128 117.932Z" fill="white"/>
<path d="M132.845 105.944L132.423 104.991C132.365 104.86 132.226 104.78 132.081 104.795L127.286 105.362C127.06 105.384 126.929 105.624 127.024 105.828L127.497 106.868C127.555 106.999 127.693 107.079 127.839 107.057L132.59 106.41C132.808 106.38 132.939 106.148 132.845 105.944Z" fill="url(#paint38_linear_1128_1179)"/>
<path d="M126.304 109.167C126.309 109.167 126.316 109.167 126.326 109.167L134.78 108.083C134.89 108.068 134.962 107.974 134.948 107.872C134.933 107.763 134.839 107.69 134.737 107.704L126.275 108.788C126.173 108.803 126.1 108.897 126.107 108.999C126.122 109.101 126.209 109.174 126.304 109.167Z" fill="#D8DEE8"/>
<path d="M126.733 110.025C126.743 110.025 126.752 110.023 126.762 110.018L135.173 108.854C135.282 108.839 135.355 108.745 135.341 108.636C135.326 108.534 135.231 108.461 135.122 108.475L126.711 109.639C126.602 109.654 126.529 109.756 126.544 109.858C126.558 109.952 126.638 110.025 126.733 110.025Z" fill="#D8DEE8"/>
<path d="M130.968 111.363C130.977 111.363 130.987 111.363 130.997 111.363L135.588 110.6C135.69 110.578 135.763 110.483 135.748 110.381C135.726 110.272 135.632 110.207 135.53 110.221L130.939 110.985C130.83 111 130.764 111.101 130.779 111.203C130.793 111.298 130.88 111.363 130.968 111.363Z" fill="#D8DEE8"/>
<path d="M128.865 118.849C128.865 118.849 126.988 117.568 126.762 116.666C126.544 115.772 126.602 114.077 126.602 114.077L127.701 116.463C127.701 116.463 128.225 116.31 128.457 115.524C128.683 114.739 129.069 115.459 128.916 116.048C128.756 116.645 128.865 118.849 128.865 118.849Z" fill="url(#paint39_linear_1128_1179)"/>
<path d="M143.337 102.845C142.34 103.449 140.849 104.511 139.524 106.228C135.763 111.094 137.225 116.288 134.111 118.121C133.223 118.645 131.659 119.074 128.836 118.078L127.759 118.652C127.759 118.652 126.435 125.367 134.591 125.621C142.755 125.869 146.815 115.728 146.815 115.728L143.337 102.845Z" fill="url(#paint40_linear_1128_1179)"/>
<path d="M151.202 93.352C151.471 93.3375 151.712 92.9883 151.893 93.0974C152.09 93.2138 152.061 93.723 151.879 94.0722C151.733 94.3631 151.501 94.5232 151.37 94.6032C151.573 94.9014 151.835 95.367 151.937 95.9635C152.155 97.2947 151.428 98.3495 151.122 98.9678C149.74 101.747 151.704 106.235 153.909 108.534C155.706 110.396 156.572 109.683 157.634 111.196C159.708 114.142 156.696 117.27 157.714 121.198C159.264 127.171 168.599 129.135 168.992 129.215C169.138 129.244 169.247 129.266 169.399 129.287C173.598 130.051 179.95 131.201 184.512 127.84C187.924 125.33 189.561 120.871 189.394 116.906C189.35 115.866 189.117 111.902 185.967 108.606C185.465 108.083 182.504 104.991 178.414 104.867C176.246 104.802 175.795 105.558 174.143 105.049C171.888 104.358 170.535 102.263 169.698 100.968C168.148 98.575 168.81 98.0876 167.69 96.9092C165.485 94.5886 162.815 96.3127 160.45 94.2613C158.129 92.239 159.613 89.5911 157.365 87.838C155.044 86.0267 150.526 86.5432 149.514 88.6164C148.656 90.4059 150.351 93.4029 151.202 93.352Z" fill="url(#paint41_linear_1128_1179)"/>
</g>
<defs>
<linearGradient id="paint0_linear_1128_1179" x1="250.523" y1="-43.0629" x2="281.233" y2="64.9758" gradientUnits="userSpaceOnUse">
<stop offset="0.004" stop-color="#E38DDD"/>
<stop offset="1" stop-color="#9571F6"/>
</linearGradient>
<linearGradient id="paint1_linear_1128_1179" x1="266.597" y1="6.62331" x2="304.944" y2="92.6331" gradientUnits="userSpaceOnUse">
<stop offset="0.004" stop-color="#E38DDD"/>
<stop offset="1" stop-color="#9571F6"/>
</linearGradient>
<linearGradient id="paint2_linear_1128_1179" x1="43.7496" y1="106.877" x2="54.0363" y2="68.6611" gradientUnits="userSpaceOnUse">
<stop stop-color="#311944"/>
<stop offset="1" stop-color="#893976"/>
</linearGradient>
<linearGradient id="paint3_linear_1128_1179" x1="52.5471" y1="209.815" x2="46.2568" y2="141.701" gradientUnits="userSpaceOnUse">
<stop stop-color="#311944"/>
<stop offset="1" stop-color="#893976"/>
</linearGradient>
<linearGradient id="paint4_linear_1128_1179" x1="162.198" y1="14.1784" x2="-2.42821" y2="286.402" gradientUnits="userSpaceOnUse">
<stop stop-color="#FF9085"/>
<stop offset="1" stop-color="#FB6FBB"/>
</linearGradient>
<linearGradient id="paint5_linear_1128_1179" x1="217.36" y1="55.8608" x2="60.349" y2="315.493" gradientUnits="userSpaceOnUse">
<stop stop-color="#FF9085"/>
<stop offset="1" stop-color="#FB6FBB"/>
</linearGradient>
<linearGradient id="paint6_linear_1128_1179" x1="250.523" y1="-43.0634" x2="281.233" y2="64.9753" gradientUnits="userSpaceOnUse">
<stop offset="0.004" stop-color="#E38DDD"/>
<stop offset="1" stop-color="#9571F6"/>
</linearGradient>
<linearGradient id="paint7_linear_1128_1179" x1="266.597" y1="6.62282" x2="304.944" y2="92.6326" gradientUnits="userSpaceOnUse">
<stop offset="0.004" stop-color="#E38DDD"/>
<stop offset="1" stop-color="#9571F6"/>
</linearGradient>
<linearGradient id="paint8_linear_1128_1179" x1="70.6862" y1="95.241" x2="68.8814" y2="118.216" gradientUnits="userSpaceOnUse">
<stop stop-color="#311944"/>
<stop offset="1" stop-color="#A03976"/>
</linearGradient>
<linearGradient id="paint9_linear_1128_1179" x1="69.9872" y1="108.365" x2="70.2434" y2="89.7798" gradientUnits="userSpaceOnUse">
<stop stop-color="#FFC444"/>
<stop offset="0.996" stop-color="#F36F56"/>
</linearGradient>
<linearGradient id="paint10_linear_1128_1179" x1="41.3476" y1="94.67" x2="39.7873" y2="114.532" gradientUnits="userSpaceOnUse">
<stop stop-color="#311944"/>
<stop offset="1" stop-color="#A03976"/>
</linearGradient>
<linearGradient id="paint11_linear_1128_1179" x1="46.7972" y1="108.061" x2="47.0531" y2="89.5038" gradientUnits="userSpaceOnUse">
<stop stop-color="#FFC444"/>
<stop offset="0.996" stop-color="#F36F56"/>
</linearGradient>
<linearGradient id="paint12_linear_1128_1179" x1="72.2333" y1="51.1077" x2="58.682" y2="51.1077" gradientUnits="userSpaceOnUse">
<stop stop-color="#444B8C"/>
<stop offset="0.996" stop-color="#3E4177"/>
</linearGradient>
<linearGradient id="paint13_linear_1128_1179" x1="72.2333" y1="51.1075" x2="58.6821" y2="51.1075" gradientUnits="userSpaceOnUse">
<stop stop-color="#444B8C"/>
<stop offset="0.996" stop-color="#3E4177"/>
</linearGradient>
<linearGradient id="paint14_linear_1128_1179" x1="68.471" y1="50.3105" x2="41.1898" y2="50.3105" gradientUnits="userSpaceOnUse">
<stop stop-color="#444B8C"/>
<stop offset="0.996" stop-color="#3E4177"/>
</linearGradient>
<linearGradient id="paint15_linear_1128_1179" x1="33.9209" y1="81.0977" x2="46.6824" y2="8.84689" gradientUnits="userSpaceOnUse">
<stop stop-color="#AA80F9"/>
<stop offset="0.996" stop-color="#6165D7"/>
</linearGradient>
<linearGradient id="paint16_linear_1128_1179" x1="77.6234" y1="28.8422" x2="77.6234" y2="17.8947" gradientUnits="userSpaceOnUse">
<stop stop-color="#FFC444"/>
<stop offset="0.996" stop-color="#F36F56"/>
</linearGradient>
<linearGradient id="paint17_linear_1128_1179" x1="94.0743" y1="58.554" x2="89.7661" y2="60.9631" gradientUnits="userSpaceOnUse">
<stop stop-color="#FFC444"/>
<stop offset="0.996" stop-color="#F36F56"/>
</linearGradient>
<linearGradient id="paint18_linear_1128_1179" x1="73.4331" y1="29.3456" x2="84.4909" y2="20.0585" gradientUnits="userSpaceOnUse">
<stop stop-color="#444B8C"/>
<stop offset="0.996" stop-color="#3E4177"/>
</linearGradient>
<linearGradient id="paint19_linear_1128_1179" x1="84.1488" y1="26.6504" x2="77.1752" y2="13.0877" gradientUnits="userSpaceOnUse">
<stop stop-color="#FFC444"/>
<stop offset="0.996" stop-color="#F36F56"/>
</linearGradient>
<linearGradient id="paint20_linear_1128_1179" x1="25.1772" y1="71.8131" x2="35.9014" y2="11.0969" gradientUnits="userSpaceOnUse">
<stop stop-color="#AA80F9"/>
<stop offset="0.996" stop-color="#6165D7"/>
</linearGradient>
<linearGradient id="paint21_linear_1128_1179" x1="40.8245" y1="56.6714" x2="42.2308" y2="48.7094" gradientUnits="userSpaceOnUse">
<stop stop-color="#FFC444"/>
<stop offset="0.996" stop-color="#F36F56"/>
</linearGradient>
<linearGradient id="paint22_linear_1128_1179" x1="82.3196" y1="-0.72594" x2="181.999" y2="213.257" gradientUnits="userSpaceOnUse">
<stop stop-color="#AB316D"/>
<stop offset="1" stop-color="#792D3D"/>
</linearGradient>
<linearGradient id="paint23_linear_1128_1179" x1="118.128" y1="32.1706" x2="87.511" y2="107.696" gradientUnits="userSpaceOnUse">
<stop stop-color="#FFC444"/>
<stop offset="0.996" stop-color="#F36F56"/>
</linearGradient>
<linearGradient id="paint24_linear_1128_1179" x1="111.182" y1="20.0552" x2="74.5101" y2="110.517" gradientUnits="userSpaceOnUse">
<stop stop-color="#FFC444"/>
<stop offset="0.996" stop-color="#F36F56"/>
</linearGradient>
<linearGradient id="paint25_linear_1128_1179" x1="-3.72311" y1="-11.2458" x2="221.945" y2="-121.575" gradientUnits="userSpaceOnUse">
<stop stop-color="#FFC444"/>
<stop offset="0.996" stop-color="#F36F56"/>
</linearGradient>
<linearGradient id="paint26_linear_1128_1179" x1="28.5983" y1="47.2964" x2="161.481" y2="-17.6699" gradientUnits="userSpaceOnUse">
<stop stop-color="#FFC444"/>
<stop offset="0.996" stop-color="#F36F56"/>
</linearGradient>
<linearGradient id="paint27_linear_1128_1179" x1="150.126" y1="202.581" x2="155.548" y2="183.768" gradientUnits="userSpaceOnUse">
<stop stop-color="#444B8C"/>
<stop offset="0.996" stop-color="#26264F"/>
</linearGradient>
<linearGradient id="paint28_linear_1128_1179" x1="156.026" y1="197.846" x2="155.681" y2="172.882" gradientUnits="userSpaceOnUse">
<stop stop-color="#FFC444"/>
<stop offset="0.996" stop-color="#F36F56"/>
</linearGradient>
<linearGradient id="paint29_linear_1128_1179" x1="146.352" y1="197.979" x2="146.007" y2="173.015" gradientUnits="userSpaceOnUse">
<stop stop-color="#FFC444"/>
<stop offset="0.996" stop-color="#F36F56"/>
</linearGradient>
<linearGradient id="paint30_linear_1128_1179" x1="144.915" y1="199.7" x2="149.779" y2="182.82" gradientUnits="userSpaceOnUse">
<stop stop-color="#444B8C"/>
<stop offset="0.996" stop-color="#26264F"/>
</linearGradient>
<linearGradient id="paint31_linear_1128_1179" x1="49.1023" y1="149.666" x2="52.1617" y2="202.172" gradientUnits="userSpaceOnUse">
<stop stop-color="#311944"/>
<stop offset="1" stop-color="#893976"/>
</linearGradient>
<linearGradient id="paint32_linear_1128_1179" x1="49.1024" y1="149.666" x2="52.1618" y2="202.172" gradientUnits="userSpaceOnUse">
<stop stop-color="#311944"/>
<stop offset="1" stop-color="#893976"/>
</linearGradient>
<linearGradient id="paint33_linear_1128_1179" x1="119.725" y1="199.496" x2="165.89" y2="196.758" gradientUnits="userSpaceOnUse">
<stop stop-color="#311944"/>
<stop offset="1" stop-color="#893976"/>
</linearGradient>
<linearGradient id="paint34_linear_1128_1179" x1="225.825" y1="163.289" x2="191.29" y2="92.0564" gradientUnits="userSpaceOnUse">
<stop stop-color="#FFC444"/>
<stop offset="0.996" stop-color="#F36F56"/>
</linearGradient>
<linearGradient id="paint35_linear_1128_1179" x1="152.634" y1="89.9285" x2="187.856" y2="137.124" gradientUnits="userSpaceOnUse">
<stop stop-color="#FF9085"/>
<stop offset="1" stop-color="#FB6FBB"/>
</linearGradient>
<linearGradient id="paint36_linear_1128_1179" x1="143.612" y1="97.0792" x2="150.2" y2="107.417" gradientUnits="userSpaceOnUse">
<stop stop-color="#FFC444"/>
<stop offset="0.996" stop-color="#F36F56"/>
</linearGradient>
<linearGradient id="paint37_linear_1128_1179" x1="118.355" y1="114.615" x2="131.222" y2="134.806" gradientUnits="userSpaceOnUse">
<stop stop-color="#444B8C"/>
<stop offset="0.996" stop-color="#26264F"/>
</linearGradient>
<linearGradient id="paint38_linear_1128_1179" x1="131.451" y1="107.058" x2="127.85" y2="99.8436" gradientUnits="userSpaceOnUse">
<stop stop-color="#AA80F9"/>
<stop offset="0.996" stop-color="#6165D7"/>
</linearGradient>
<linearGradient id="paint39_linear_1128_1179" x1="122.396" y1="118.17" x2="125.092" y2="122.4" gradientUnits="userSpaceOnUse">
<stop stop-color="#FFC444"/>
<stop offset="0.996" stop-color="#F36F56"/>
</linearGradient>
<linearGradient id="paint40_linear_1128_1179" x1="205.13" y1="215.544" x2="155.631" y2="113.448" gradientUnits="userSpaceOnUse">
<stop stop-color="#FFC444"/>
<stop offset="0.996" stop-color="#F36F56"/>
</linearGradient>
<linearGradient id="paint41_linear_1128_1179" x1="209.637" y1="120.209" x2="185.023" y2="69.4405" gradientUnits="userSpaceOnUse">
<stop stop-color="#444B8C"/>
<stop offset="0.996" stop-color="#26264F"/>
</linearGradient>
<clipPath id="clip0_1128_1179">
<rect width="203" height="202.01" fill="white"/>
</clipPath>
</defs>
</svg>
