<svg width="16" height="20" viewBox="0 0 16 20" fill="none" xmlns="http://www.w3.org/2000/svg">
<path d="M11.1462 14.0992L11.1865 14.0589L14.5463 10.7003L11.1462 14.0992ZM11.1462 14.0992L11.116 14.1475C11.0297 14.2856 10.9007 14.3919 10.7487 14.4502C10.5967 14.5086 10.4298 14.5158 10.2732 14.4709C10.1167 14.426 9.979 14.3314 9.88099 14.2013L9.48484 14.4999M11.1462 14.0992L9.48484 14.4999M9.48484 14.4999L9.88099 14.2013C9.79169 14.0828 9.73975 13.9408 9.73123 13.7933V13.75V13.6875V1.25C9.73123 1.05109 9.81025 0.860323 9.9509 0.71967C10.0916 0.579018 10.2823 0.5 10.4812 0.5C10.6801 0.5 10.8709 0.579018 11.0116 0.71967C11.1522 0.860322 11.2312 1.05109 11.2312 1.25V10.6862V11.8934L12.0848 11.0398L13.4848 9.6398L13.4849 9.63968C13.5546 9.56999 13.6372 9.51469 13.7283 9.47696L13.5367 9.01509L13.7283 9.47696C13.8193 9.43922 13.9168 9.41978 14.0153 9.41975C14.1139 9.41971 14.2114 9.43908 14.3025 9.47675C14.3935 9.51443 14.4762 9.56966 14.5459 9.6393C14.6156 9.70894 14.6709 9.79163 14.7086 9.88264L15.1705 9.69114M9.48484 14.4999L15.1705 9.69114M15.1705 9.69114L14.7086 9.88265C14.7464 9.97366 14.7658 10.0712 14.7659 10.1697C14.7659 10.2683 14.7465 10.3658 14.7089 10.4569L15.1709 10.648L14.7088 10.4569C14.6712 10.5478 14.616 10.6305 14.5465 10.7001L15.1705 9.69114Z" fill="white" stroke="#EBE7EE"/>
<path d="M4.81364 5.94106L4.85391 5.90079L4.88409 5.8525C4.9704 5.7144 5.09932 5.60815 5.25136 5.5498L5.07318 5.08553L5.25136 5.5498C5.4034 5.49144 5.5703 5.48417 5.72685 5.52906C5.88339 5.57396 6.02107 5.66859 6.11907 5.79865C6.21708 5.92872 6.27009 6.08715 6.27009 6.25V6.31251V18.75C6.27009 18.9489 6.19107 19.1397 6.05042 19.2803C5.90976 19.421 5.719 19.5 5.52009 19.5C5.32117 19.5 5.13041 19.421 4.98976 19.2803C4.8491 19.1397 4.77009 18.9489 4.77009 18.75V9.31376V8.10741L3.91669 8.96004L2.51544 10.36L2.51538 10.36L2.50919 10.3664C2.44001 10.438 2.35725 10.4952 2.26575 10.5345C2.17424 10.5738 2.07583 10.5945 1.97624 10.5953C1.87666 10.5962 1.7779 10.5772 1.68573 10.5395C1.59355 10.5018 1.50982 10.4461 1.4394 10.3757C1.36898 10.3053 1.31329 10.2215 1.27558 10.1294C1.23787 10.0372 1.21889 9.93843 1.21975 9.83885C1.22062 9.73926 1.24131 9.64085 1.28062 9.54935C1.31992 9.45784 1.37706 9.37508 1.44869 9.3059L1.44875 9.30595L1.45489 9.29981L4.81364 5.94106Z" fill="white" stroke="#EBE7EE"/>
</svg>
