<svg width="342" height="175" viewBox="0 0 342 175" fill="none" xmlns="http://www.w3.org/2000/svg">
<path d="M0 7.36202C0 3.29608 3.29609 0 7.36203 0H130.047C132.978 0 135.629 1.73842 136.798 4.42611L149.204 32.954C151.318 37.8162 147.755 43.2519 142.453 43.2519H7.36203C3.2961 43.2519 0 39.9558 0 35.8899V7.36202Z" fill="#9759C4"/>
<path d="M342 167.638C342 171.704 338.704 175 334.638 175L212.549 175C209.62 175 206.969 173.263 205.799 170.577L193.486 142.301C191.368 137.439 194.932 132 200.236 132L334.638 132C338.704 132 342 135.296 342 139.362L342 167.638Z" fill="#9759C4"/>
<rect y="18" width="342" height="138" rx="11.043" fill="#9759C4"/>
<path d="M257 137.595C257 129.11 257 124.867 259.636 122.231C262.272 119.595 266.515 119.595 275 119.595C283.485 119.595 287.728 119.595 290.364 122.231C293 124.867 293 129.11 293 137.595C293 146.08 293 150.323 290.364 152.959C287.728 155.595 283.485 155.595 275 155.595C266.515 155.595 262.272 155.595 259.636 152.959C257 150.323 257 146.08 257 137.595Z" fill="white"/>
<path d="M278.6 142.995C279.097 142.995 279.509 143.402 279.41 143.889C279.236 144.749 278.812 145.547 278.182 146.177C277.338 147.021 276.193 147.495 275 147.495C273.806 147.495 272.662 147.021 271.818 146.177C271.188 145.547 270.764 144.749 270.59 143.889C270.491 143.402 270.903 142.995 271.4 142.995H278.6Z" fill="#9759C4"/>
<path d="M280.493 135.594C280.013 135.722 279.719 136.225 279.962 136.658C280.218 137.114 280.573 137.512 281.004 137.821C281.681 138.306 282.505 138.542 283.336 138.487C284.167 138.433 284.954 138.092 285.562 137.522C286.17 136.953 286.561 136.191 286.67 135.365C286.779 134.539 286.598 133.701 286.158 132.994C285.718 132.287 285.047 131.754 284.258 131.486C283.469 131.218 282.612 131.232 281.833 131.526C281.336 131.713 280.891 132.005 280.525 132.38C280.178 132.735 280.332 133.296 280.762 133.545L281.219 133.809C281.913 134.209 281.776 135.25 281.002 135.457L280.493 135.594Z" fill="#9759C4"/>
<path d="M269.508 135.594C269.988 135.722 270.282 136.225 270.039 136.658C269.783 137.114 269.428 137.512 268.997 137.821C268.32 138.306 267.496 138.542 266.665 138.487C265.834 138.433 265.047 138.092 264.439 137.522C263.831 136.953 263.44 136.191 263.331 135.365C263.222 134.539 263.403 133.701 263.843 132.994C264.283 132.287 264.954 131.754 265.743 131.486C266.532 131.218 267.389 131.232 268.168 131.526C268.665 131.713 269.11 132.005 269.476 132.38C269.823 132.735 269.669 133.296 269.238 133.545L268.782 133.809C268.088 134.209 268.225 135.25 268.999 135.457L269.508 135.594Z" fill="#9759C4"/>
<path fill-rule="evenodd" clip-rule="evenodd" d="M242.058 18C242.037 18.7643 242.027 19.5313 242.027 20.3006C242.027 66.2965 279.314 103.584 325.31 103.584C331.026 103.584 336.608 103.008 342 101.911V62.9703C336.828 64.9948 331.199 66.1062 325.31 66.1062C300.012 66.1062 279.504 45.5983 279.504 20.3006C279.504 19.5291 279.523 18.7621 279.561 18H242.058Z" fill="#6D4FA5"/>
</svg>
